<mxfile host="app.diagrams.net" modified="2024-01-22T10:42:50.659Z" agent="Mozilla/5.0 (Windows NT 10.0; Win64; x64; rv:121.0) Gecko/20100101 Firefox/121.0" etag="jn6hJD8F4imfEnoLj2vC" version="22.1.21" type="device">
  <diagram name="Page-1" id="Za_w-Xly2XIXL4WVjU1j">
    <mxGraphModel dx="1434" dy="774" grid="1" gridSize="10" guides="1" tooltips="1" connect="1" arrows="1" fold="1" page="1" pageScale="1" pageWidth="827" pageHeight="1169" math="0" shadow="0">
      <root>
        <mxCell id="0" />
        <mxCell id="1" parent="0" />
        <mxCell id="FdZVj9eKRGL_CXXwi0DK-1" value="&lt;div&gt;MSSQL&lt;/div&gt;" style="shape=cylinder3;whiteSpace=wrap;html=1;boundedLbl=1;backgroundOutline=1;size=15;" vertex="1" parent="1">
          <mxGeometry x="384" y="660" width="60" height="80" as="geometry" />
        </mxCell>
        <mxCell id="FdZVj9eKRGL_CXXwi0DK-12" style="edgeStyle=orthogonalEdgeStyle;rounded=0;orthogonalLoop=1;jettySize=auto;html=1;exitX=0.5;exitY=1;exitDx=0;exitDy=0;entryX=0.5;entryY=0;entryDx=0;entryDy=0;" edge="1" parent="1" source="FdZVj9eKRGL_CXXwi0DK-3" target="FdZVj9eKRGL_CXXwi0DK-6">
          <mxGeometry relative="1" as="geometry" />
        </mxCell>
        <mxCell id="FdZVj9eKRGL_CXXwi0DK-3" value="" style="shape=image;verticalLabelPosition=bottom;labelBackgroundColor=default;verticalAlign=top;aspect=fixed;imageAspect=0;image=data:image/png,iVBORw0KGgoAAAANSUhEUgAAAK8AAABKCAYAAADNGwREAAAAAXNSR0IArs4c6QAAEwFJREFUeNrtXQuQZFV5/vcNi6AQlSxqQMEkBmIkm0KIIDOnZ2Z3xe5eyhpSVrkajdkgahmSNVFMmXvuvHaWRS2i4AYQxaBk+t59sA9exgExEXAlkWKBVYQIEXVhWZaduef0vbf7pP7zuH2nt+fRszPT3bPnVv3Vj+mZ7p773f98//c/DoA9JjyEgAViCBYJBxZX/2y0D1ZwBzo4hc8EDnyNUdgVUHiEUXiKUXiOUziEJu+78jn82S7uwte4C3/LKXSOOnDGUe/pwGL5ngIW2DNgj+mB1oGlAioAEltgCXPhUu7AYEDhIU7hsOgDITZpGwQhNoIQAyBEP4i4Vxnel89t1K8xr+8HwVx4lVF4mFPYxBxow/dM3g/0Z7AgtseUgbsFlqQfhw68K6CwmVH4hQTitQqMUY8EX5lRiJgLYWL4WFlJW8TTPzevcaGMf0MC+9oEzM9wB64LXTh/os9kD3uMBS0u1UOwyDzmFLKMwr1FF4TYnIArZlQCMOYITAVeMS1Tv1uSf1OBOpYXx2YQobow7hulkE8+X/fYz2cPeyiKkPJsnMIqRuEh6REHQXBXGmdUAlfw6YJ1Akv9zRjfCx8bGqJpxZq0FxYOLLRn7jg/hjE40rz2sAPnBBTulKAdkKApSS+rbsUcm3xvjt54IAHxLt4Db08HdvYMWm4LAYW/Rx6KgVTCWY+FEsyUGU5tPpsLceDCP1gufLyCVkfxeH+kD05nFL6PAZPkmRSKDQfs+FYMXRXcMQr3jzjwu9oDj1FF7DGPgbt3vfJWUvZy4WXtbYuSbzYvcCX31ry7iJ9Za8jthkJYAM/3wKxbRevMhY+VUaPta3pvO64XTn3+v8bvNNQtkyk2kJt3wHVgoZGZmAufk55LebJI37aU6RUCubBMeBRduCaR+yyA55+qoIH7RckZlU4b8dbzuNUAjqU+rHiwYwBsz/g8OQzHRUXBALdB8tdsymoSwEaJsDLa/KALUlUoUvggiv6plK2YZya/l/yOLnwo/d3t0cI6bujCSkzxFt0KT5ynFuF3RMkvcOACqwO3cICGtwcceA1z4TmdMSvy+Qtcw4FDWYNB4VcHHTjFqBAWEa0EXh20cApDyAVlvYA7f4FbpQUXJf+lsBVMQY/VgFuL5yL304U14XwHbY20cqiTLx+x/LfFPK4YgFOZCwfKffOe547Lf+V3d+GlV/vhd4wHtghpbq8rJSLuwr9gXSxTpYziuDQXOP4POIUbrHw2R4eD2TDM1WPdqrH1sGSyvi7jWYoO/JGswa1ISMcreGVVHCoQIy78sU1gzJbH1AXhYv3k0g6+DhMP1UGI8SyMwndMsc3xEKRNqj6oUsp/t953pkHbXbszF8v9jjhwXujCu8NeuKDYA+941YHX16IJQntq43WPW087gffFi3jEgXda7XcGPa15jJpk0YUrmAvf4i48zii8gks+Nijqfq44oHCQU3iUOXDjKIXL0hH0bzbASXiLLeja04QWvFXKgwM3gi2fnAFvq7nrEQfeyFwYCCj8NmkL71edueklH3mbbCMf0K9RbTHPYi5faDEeFYaAwoul3qR+wQI3rTxQeNGsXpb7HoMaoBMIn0QPixGxBpxpC8cgqyzN1UarOm2xLUZ32jIKvx6hkGEufFhz3bgpWniaiDrwiu77Uct9p3Hs08u8cGA5c2A3ZoE0aLkuUZxyIJKqZy2aGQrYFSHrFyxwaxavazp1Vzp9bo8pHKYsUfTDG3D0ka4/Lc5IAkF5bDnAQ3toC9YaVWf6/zMi+mCFBfAUD1MILjbCa5kLT+vli8/40ng8a7pTWa2QOgzKmt8r5PlYb1WHyThucnUzCj+QRTIU2PGsvzZc86Xw9bRkplqkuhdJE85C+djOR6vQBeZAjw6umAVTwwK3WJeGPlKRLJ2FtZ2Os1BsWblEDHUvFXtXLhnvdfPX6w4l6drziiZdayWsxnleTRs4BU953pUJbZAAHW5bPGH6HT2yAvT8H7+a1NS64Nt0bXPovaiPjzrwfnOOwqH2lWGB7As9sj/yyf7II49HPnk48sie0CP/GhXIhqhAuoS/asXRaXoF5Hmr56LX5Va+ag7gqg6LZ1SRkwJd7Ge+Lh54nxDbMkLs7FS2q1OIPV1C3L1K2c5OEXnkSOSR/4x88s8I+LFOqnvpvKIVJnUbODBo07VNovOqEtG+dCAd+ZknxPYOERVIGHkkTllkLCyQUnlrRojdXULcu0oCPfLII6FHPiV2XXzqGOrR6mnntMLAKfxUBgmW6zayNSjWzacCV8LkPHkd55d8CUS0sr4dz8oazEV8bDxz5JEDkZ9xXx7qeG3yd4fbWjd7Z/RD7sA5mD3TA+ysBtvIwhzVEj9slnnpdb32z4q7uoQGpZiKxQmQMwjiEL22uGcVPn8g9Mgn0lSipdPAHCu/+mV0W7KZr4ZajOAddeDjEljXn7NMgrdA7kUPWg94x5gvvXGMlENsz0gQIy8u3tHxDpWcalvcclk8I36PUvhEMu/WBmwNSwvHqn7kJeHAaeYcjfqXrIg88orku4rjimOyAimhN1aePFMK/fb1FRrZQjRCVEaIXqPbznHCtwVvY7uIv6GW84tOlCqD1/4BDMA0cMvHDF5DK3zCSxjc3b1KoJKRltVaK6tWGWpnlYZGZtX6ZSH6e9OUIfYyW/QyX5wp4KYslnz4vtXohe821KElArlUB+/fWdrQwEIclMdU0f6P0ioQaryRR55EPRdBNgvgNcZRWos88kNDHZoWwKaXTFyrWnKYC3+po1xbHN6IAnSdUcPAWZ2fc1U99ba2s9DjonaL/HQWwYvGlIfPDKeUiEXNA1i1tdJRVxTvgbP1NlBWKpt7bZfrkU/bk/OkvV60NXOR2NGhgOvPHN+dEMD3rRZhgXw3+SyNSmborU0XV/dBIYhxqyXeA6uZAx9CzstdCLRAbj3v3PesvSL64HRTU208XlRoz+iUbzwHwNWWKSoOTL5gsnENkcHG7MfrwBmMwl8FDhRwe1MZ3fbrDfAGk2omC9y5qxyTmUw8ByMUVo2p29XgDf2OC5XnJeU58rwmQ1cWd3aIyM/ITWD2DZ27dE75bKqwvD2gMMQojCabRvclM3DLmufalPAcJyPQUWh5cn06YTQmYPPb3hx5JJCcV+qzc+V9SSju7BShR/5XDLedMCf8N90uwnrhYubCf5gNpPVMhTDZKNod0/FrATV3Fso9ktVq92mYpEM48jI/Utm1THEOwasViNV40Xx51tUHke74pXAzelczHl/vx1viFjgNpQkyOBtQgXFA4YOmlrpWUGTAUvLIlVrG4nMK3gIpYX0EJjKKXuads+Z9zZUbOHAho/Cc7j8r6QnjFrSNBS2ubtzsSM8o7A/74F214pLq9h4TdIcF8pguzAlif27Aq9+nqCvSts04eKWaYPYso/AROammX+98bunA7M0Um8gqG8HIoSvFyjauJVkzbeYST2GItPG+3Ot8e4z1DQrARaU+SN23PPvBXKaEdRXhELlgRumDSe9yClenNtsLm6iFp5QEhCooTFs0kXEzlaeW0dRtDeNqzkQ4JRvnPXglPqj9+dRtbPZXS2+7JZ3IRjXuSg9quYU78Pu1YpOpAlhsI2dHXuZRTCRgxk0lLnS1WKUgPZRWIGGMHLmg7uvnzWvqrZGI8KKJPXL7jIHX/ANGKXxSp3ZLTbZLpCysxgEaaHhCjZW0ocZptjaVgWW1DVTZxiobHMc2TWLX1mkT/a30+26sTATCDbNxP7mgF96SdjbTmXqeLpYp+R3rZe9agTCUs2Sx+V26FegebbItSD+PXRXYLoSv3dFhuivKU8/YZUr6QhkR27vecswANksOdyAnc+KulryaaGmVgQnVQ0twkxQKo9yFEUbhVUbhcEDhZSz/YxQOMBd+wyi8wCj8H3J2HMyHWjR34WfIETmFfYzC49yF/wko/Dej8GNG4WFG4b8YhR8yCg/gjvCMwvc4hbs5hT2BCzsDF3ZgUyl3ocBc+C5z4XacbslcuJW7cBNzYAujcAOncH1A4SucwuaAwiZGoZ9R6MWdKjGBU+yBzxcp/GPgwIaAwtWoEnAXrhp14UrmwsdHHfgY0raAQnfgwJ/jUMLqmORYR/VX803hd7wtGsqsDn2yruRnror89s9HPtkYe+SG0CO3RwWyMyqQ+yOf7I088lTkkecjjxyMPDJaAfGUACw7M/CCKHmZzxxT5VkymLkH3opDQWQNaDPt5WCqoyjchkvlEZx+3gN/gN0a3IG3sV44kznwe6IX3jTqwBmYWcKTjVMRsY5VOPA6nCYpBuFkrL14wYHlwoETxKdhmWxINHN+m7ylW2c3l85kkTcGd/VmvGT7+87s8sNDq05D3Vj45MzYa39f5JFDEsBT0o+T+t/h9Per+8Onkg8Paims6fZyQLpQ7X2aDFRq2kw3LBpWF8NieWGo2g8E3NKf48VyPSx7Fi8cY1fDieJLcCJeUPqikoYzh/FCEw68Rj83a5qoHDKyZ80ycVvXSdJ2Zpc/P3TRifK54al3RIQe2VdHtVqs6UbAfHImTDAEZdLOh8CFT2nZpdiMHQE6X38bDpYOKHyAU8jifU5h1QiFTtYDhLlwKXPhksCFi3Cq+qgDfxY68KcjLvwJ7suAk9OLDvyhrsE4G1ca9NiBA2/GAXQ4kR2HAUqPPQCnHkKPPQgn42aEibdWQFw82R4Zs1UrPVNFLWrA98olRj6b9PV7Vy45+G9rThn5TuZ0NtT11uLWtvPCO9ouxLkO6HVjn3wjKfipO3Brv6Ju3muuqMMOnIZ8UdOFUpNWSpWToMoEWyYI00FaSQdvmPkL3TEDqkuav0dap8axUwHyZe4mfPkQo3AQB1QzCr/Fub+4kySj8Dyj8EvNmZ9mFH7GKTzJKDzBXXgsoPBTTuEnAYW9jMJDmjM/mHBmF+5jDtzDXdiNnJm7sA05M+4ToTnztzVnvoU5cBN34caAwlcDxZk3IQ8OXHh3rYEu0+W51SDBpT/2SBabMkOv/bqwQG6KvcwdUYHsiTzyg8gjj0Ye2R8rjvtS7JER9JyyJR657m416wEBGdYnmxUxWRJ65CvTAe9SrS70anUhbPLkQ5TSPBMdtLrNyJRiFlMW6n15w56KWpFWLErjKRb1KBe11IuJFIypqBiD6vMxCk9yCn9THafUCdxKrcPtF5+KmbbQIw/g0i3VA6MwGFVhT0pZwIEkCNTtKjBD4Mqkg5+oDNE0tOFQp6mH00mUegB8CnqZlhmHX5mULo1XwFy/pfXiiYzW1JQT41qj5WP12pm0UmoS/P0YgNYDYDMJUt7f8Z6TowJxYp+8KCWw3V0yXVs9bGSM+YmWWzHVdFlKJTam1TKEF0TskV+KW3WxTj20CEe96yDNtus0e9UYBSauk3LhYxj0wRR2ttybkqBiP/MXsU9+JSffKH5a1AAtz3GBTiKZ4YUTeyQIjN5bT9CG+qUZhGcB0hI2igBmLmyZjP8aCQw9b+i1f1NSAVXLiwU5UdwYwB4FYKQgoddxfl2t8qN9sIJTOKw5la2/bZFZDIbX4/5043lfI/qLnW2vx4BLliJWqIBoGiuQkixSL3S0Va8Uk3ndrO4wje1shZYa0c/14LwvputRqj1uMETehFkwXUfAmgq0ad67q1PE28iaujJtqYnlljK05vyxu6o9rwnMDt3a9rrQI8/KaL5AWNycwFXg3d0puEeydYGXU9gqK8eU9mlB0Urzx9SI/seqEw9JtqvQ/qCum2VzVa97LJ4Xkx11gTeg8BP9T4gsIFpvEg4mS9KANSc+8jODuluXN7HHrdT2YhDpt79nnETFgu7uSgGRo7TgBTgY5BlZ8GKbJVtv0rlyOj9Oims0cEO/7UI9QK88B0NFZsZ8UhZb1XTJqkq35MJcs2bNsmw2uzyt8R6M7fzc1hzltKn25iiYrUp1RzS/11XFOa8cGbrkDTDO5ob5fP6juVyuP5fL9WSz2auk9+UUjugOYKs0tNqYfjUR57PyhN96lkxYREOZTl3VFTcw8VCPx40w7Rx65IlqwLa1KfqQzWbX5fP527LZbG8+n/9cLpe7OZvNbkDP+2tdrWU9byv1u1FVlxG6sFIttefqaefEl+NFvUyxyYM0VReBg6kxqCyQrbWK49va2k7I5/Mbc7nce3O53Ffz+fzVaLlczkXPu6/Uq6WyWrn848loS3xG7Npm2uE8la5tkAOjC7Laq5zqK2teUwXrgQJv5ppawVpXV9dJ2Wx2YO3atRfkcrkduVzu+5dddtl5Ery4G6L4sm7uGxincspaUxnSPHG9BO/N6YHRkU8cMbymsi0V9pc1s+3Qt6iKbG2/tNrzGtqQy+WuzOVyt6xdu/asyy+//I14P5/Pf0G2tuv+rn26RvUpa0eb/t/s1/PYnkbjqdvxbLKfT9XMezIKP8e6YqwdPmJSw2aPCZ/8k9ydxyP7Q4/8IvbJ081scuNCL/NC7GfuSCrexhb3L0gFbBtyudxmHbS569atO+n/AaH28cwNWosCAAAAAElFTkSuQmCC;" vertex="1" parent="1">
          <mxGeometry x="365.7" y="80" width="94.59" height="40" as="geometry" />
        </mxCell>
        <mxCell id="FdZVj9eKRGL_CXXwi0DK-28" style="edgeStyle=orthogonalEdgeStyle;rounded=0;orthogonalLoop=1;jettySize=auto;html=1;exitX=0.5;exitY=1;exitDx=0;exitDy=0;" edge="1" parent="1" source="FdZVj9eKRGL_CXXwi0DK-4">
          <mxGeometry relative="1" as="geometry">
            <mxPoint x="413" y="370" as="targetPoint" />
          </mxGeometry>
        </mxCell>
        <mxCell id="FdZVj9eKRGL_CXXwi0DK-4" value="" style="shape=image;verticalLabelPosition=bottom;labelBackgroundColor=default;verticalAlign=top;aspect=fixed;imageAspect=0;image=data:image/png,iVBORw0KGgoAAAANSUhEUgAABoIAAAaCCAYAAAABZu+EAAAgAElEQVR4AezBT1Jk9b4v0M+3iKCwBTOAGUhHI23BDHQGRVsk3DkCtyPIbSC2qRnoDKBlhnZwBjADaFnFC/i9d999991zz/FolcWfzJ1rrQoAAAAAAACjVAEAAAAAAGCUKgAAAAAAAIxSBQAAAAAAgFGqAAAAAAAAMEoVAAAAAAAARqkCAAAAAADAKFUAAAAAAAAYpQoAAAAAAACjVAEAAAAAAGCUKgAAAAAAAIxSBQAAAAAAgFGqAAAAAAAAMEoVAAAAAAAARqkCAAAAAADAKFUAAAAAAAAYpQoAAAAAAACjVAEAAAAAAGCUKgAAAAAAAIxSBQAAAAAAgFGqAAAAAAAAMEoVAAAAAAAARqkCAAAAAADAKFUAAAAAAAAYpQoAAAAAAACjVAEAAAAAAGCUKgAAAAAAAIxSBQAAAAAAgFGqAAAAAAAAMEoVAAAAAAAARqkCAAAAAADAKFUAAAAAAAAYpQoAAAAAAACjVAEAAAAAAGCUKgAAAAAAAIxSBQAAAAAAgFGqAAAAAAAAMEoVAAAAAAAARqkCAAAAAADAKFUAAAAAAAAYpQoAAAAAAACjVAEAAAAAAGCUKgAAAAAAAIxSBQAAAAAAgFGqAAAAAAAAMEoVAAAAAAAARqkCAAAAAADAKFUAAAAAAAAYpQoAAAAAAACjVAEAAAAAAGCUKgAAAAAAAIxSBQAAAAAAgFGqAAAAAAAAMEoVAAAAAAAARqkCAAAAAADAKFUAAAAAAAAYpQoAAAAAAACjVAEAAAAAAGCUKgAAAAAAAIxSBQAAAAAAgFGqAAAAAAAAMEoVAAAAAAAARqkCAAAAAADAKFUAAAAAAAAYpQoAAAAAAACjVAEAAAAAAGCUKgAAAAAAAIxSBQAAAAAAgFGqAAAAAAAAMEoVAAAAAAAARqkCAAAAAADAKFUAAAAAAAAYpQoAAAAAAACjVAEAAAAAAGCUKgAAAAAAAIxSBQAAAAAAgFGqAAAAAAAAMEoVAAAAAAAARqkCAAAAAADAKFUAAAAAAAAYpQoAAAAAAACjVAEAAAAAAGCUKgAAAAAAAIxSBQAAAAAAgFGqAAAAAAAAMEoVAAAAAAAARqkCAAAAAADAKFUAAAAAAAAYpQoAAAAAAACjVAEAAAAAAGCUKgAAAAAAAIxSBQAAAAAAgFGqAAAAAAAAMEoVAAAAAAAARqkCAAAAAADAKFUAAAAAAAAYpQoAAAAAAACjVAEAAAAAAGCUKgAAAGNz8slusrabZCep3aRt5f+qnVS2k3aTlov8t7O0uk5rFzmanwUAAGAkKgAAAMtutruV9Y0vkvoi1faT2syHaO08rX7M/2o/Zjq/DAAAwJKqAAAALKvZZCcv0yf1Ko+ltfMkpzmcnwYAAGDJVAAAAJbNbLKTl+mTepWn0nKV+3aQo/lZAAAAlkQFAABgWcx2t7K+0aXqmzyX1s5zm4NM55cBAABYcBUAAIBlcDI5SKpPZTuLoOW73P7eZ3pxHQAAgAVVAQAAWGTHk/28SJ+qvSycdpOWLofz0wAAACygCgAAwCKaTXbyMn1Sr7Lw2m+5S5ej+VkAAAAWSAUAAGDRnEz6VLqkNrNMWn7KbesynV8GAABgAVQAAAAWxQ+ffpG2NqSynWXW2re5fTNkenEdAACAZ1QBAAB4bief7CZrQ6r2MhYtV0nrczg/DQAAwDOpAAAAPJfZ7lZebgxJvcpYtXae+/Q5mp8FAADgiVUAAACew/efdXnR+qQ2sxLa67xNn+n8MgAAAE+kAgAA8JSOJ/t5UaepbGfltJu0DDmc9wEAAHgCFQAAgKcwm+xkPaep2suqa7lK3XX58pcfAwAA8IgqAAAAj2m2u5X1j/pUvg7/U2vnyV2Xw18vAgAA8AgqAAAAj+VkcpDKkNRm+Pdavsvt732mF9cBAAB4QBUAAICHdjzZz1qGpD4O76jd5L76fPXzEAAAgAdSAQAAeCizyU7Wa0jl8/D3tFzlvh3kaH4WAACAD1QBAAD4ULPdraxvdKl0SW2GD9faeW5zkOn8MgAAAH9TBQAA4EOcTA6S6lPZDg+vtW9z+2bI9OI6AAAA76kCAADwdxxP9vMifar2wiNrN2npcjg/DQAAwHuoAAAAvI/Z7lZebgxJvQpPrP2Wu3Q5mp8FAADgHVQAAADe1cmkT6VLajM8n5afctu6TOeXAQAA+BMVAACAv/LDp1+krQ2pbIcF0W7SMuT2zZDpxXUAAAD+QAUAAODfOflkN1kbUrUXFlPLVdL6HM5PAwAA8E8qAAAA/2y2u5X1j/pUvg7LobXz3KfP0fwsAAAA/08FAADgH33/WZcXrU9qMyyh9jpv33SZXlwHAABYeRUAAID/cDzZz4s6TWU7LLl2k5Yhh/M+AADASqsAAACrbTbZyXoNqXwexqXlKnXX5ctffgwAALCSKgAAwGqa7W5lfaNL1Tdh3Fo7z20OMp1fBgAAWCkVAABg9ZxMDlIZktoMq6Plu9z+3md6cR0AAGAlVAAAgNVxPNnPWoakPg4rqt3kvvp89fMQAABg9CoAAMD4zSY7eZk+qVeB/9Bylft2kKP5WQAAgNGqAAAA4zXb3cr6RpdKl9Rm4J+1/JTb1mU6vwwAADA6FQAAYJxOJgdJ9alsB/5Ka9/m9s2Q6cV1AACA0agAAADjcvLJbrI2pGov8F7aTVq6HM5PAwAAjEIFAAAYh9nuVl5uDEm9CnyQ9lvu0uVofhYAAGCpVQAAgOV3MulT6ZLaDDyY9jpv02c6vwwAALCUKgAAwPL64dMv0taGVLYDj6LdpGXI7Zsh04vrAAAAS6UCAAAsn9lkJ+s5TdVe4Cm0XCWtz+H8NAAAwNKoAAAAy2O2u5X1j/pUvg48h9bOk7suh79eBAAAWHgVAABgOXz/WZcXrU9qM/Ds2uu8fdNlenEdAABgYVUAAIDFdjzZz1qGpD4OLJR2k5Yhh/M+AADAQqoAAACLaTbZyXoNqXweWGQtV7lvBzmanwUAAFgoFQAAYLHMdreyvtGl6pvAMmntPLc5yHR+GQAAYCFUAACAxXEyOUhlSGozsKxavsvt732mF9cBAACeVQUAAHh+x5P9vEifqr3AKLSb3Fefr34eAgAAPJsKAADwfGaTnbxMn9SrwCi133KXLkfzswAAAE+uAgAAPL3Z7lbWN7pUuqQ2A2PX8lNuW5fp/DIAAMCTqQAAAE/rh0+/SFsbUtkOrJrWvs3tmyHTi+sAAACPrgIAADyNk092k7UhVXuBldZu0tLlcH4aAADgUVUAAIDHNdvdysuNIalXAf5ba+e5T5+j+VkAAIBHUQEAAB7PyaRPpUtqM8C/0V7nbfpM55cBAAAeVAUAAHh4x5P9vKjTVLYDvIN2k5Yhh/M+AADAg6kAAAAPZzbZyXpOU7UX4P21XKXuunz5y48BAAA+WAUAAPhws92trH/Up/J1gA/X2nly1+Xw14sAAAB/WwUAAPgwJ5ODVIakNgM8sPY6b990mV5cBwAAeG8VAADg7zme7GctQ1IfB3hE7Sb31eern4cAAADvpQIAALyf2WQn6zWk8nmAp9Nylft2kKP5WQAAgHdSAQAA3s1sdyvrG12qvgnwfFo7z20OMp1fBgAA+FMVAADgr51MDpLqU9kOsBhavsvt732mF9cBAAD+UAUAAPj3jif7eZE+VXsBFlC7SUuXw/lpAACAf1EBAAD+1Wyyk5fpk3oVYAm033KXLkfzswAAAP9fBQAA+J9OJn0qXVKbAZZLy0+5bV2m88sAAACpAAAA/+mHT79IWxtS2Q6w3Fr7NrdvhkwvrgMAACusAgAAq+7kk91kbUjVXoDxaLlKWp/D+WkAAGBFVQAAYFXNdrfycmNI6lWA8WrtPPfpczQ/CwAArJgKAACsou8/6/Ki9UltBlgR7XXevukyvbgOAACsiAoAAKyS48l+XtRpKtsBVlC7ScuQw3kfAABYARUAAFgFs8lO1nOaqr0AtFyl7rp8+cuPAQCAEasAAMCYzXa3sr7RpeqbAPyz1s6Tuy6Hv14EAABGqAIAAGN1MjlIZUhqMwB/puW73P7eZ3pxHQAAGJEKAACMzfFkP2sZkvo4AO+s3eS++nz18xAAABiJCgAAjMVsspP1GlL5PAB/V8tV7ttBjuZnAQCAJVcBAIBlN9vdyvpGl0qX1GYAHkJr57nNQabzywAAwJKqAADAMjuZHCTVp7IdgMfQ2re5fTNkenEdAABYMhUAAFhGx5P9vEifqr0APLp2k5Yuh/PTAADAEqkAAMAyme1u5eXGkNSrADy59lvu0uVofhYAAFgCFQAAWBYnkz6VLqnNADynlp9y27pM55cBAIAFVgEAgEX3w6dfpK0NqWwHYGG0m7QMuX0zZHpxHQAAWEAVAABYVLPJTtZzmqq9ACyqlquk9TmcnwYAABZMBQAAFs1sdyvrH/WpfB2AZdHaeXLX5fDXiwAAwIKoAADAIvn+sy4vWp/UZgCWUnudt2+6TC+uAwAAz6wCAACL4Hiynxd1msp2AJZeu0nLkMN5HwAAeEYVAAB4TrPJTtZrSOXzAIxNy1XqrsuXv/wYAAB4BhUAAHgOs92trG90qfomAGPX2nluc5Dp/DIAAPCEKgAA8NROJgepDEltBmCVtHyX29/7TC+uAwAAT6ACAABP5Xiyn7UMSX0cgJXVbnJffb76eQgAADyyCgAAPLbZZCcv0yf1KgD8p5ar3LeDHM3PAgAAj6QCAACPZba7lfWNLpUuqc0A8K9afspt6zKdXwYAAB5YBQAAHsPJ5CCpPpXtAPDXWvs2t2+GTC+uAwAAD6QCAAAP6eST3WRtSNVeAHhP7SYtXQ7npwEAgAdQAQCAhzDb3crLjSGpVwHgA7XfcpcuR/OzAADAB6gAAMCHOpn0qXRJbQaAB9Re5236TOeXAQCAv6ECAAB/1/FkPy/qNJXtAPBI2k1ahty+GTK9uA4AALyHCgAAvK/ZZCfrOU3VXgB4Gi1XqbsuX/7yYwAA4B1VAADgXc12t7L+UZ/K1wHgebR2ntx1Ofz1IgAA8BcqAADwLr7/rMuL1ie1GQAWQHudt2+6TC+uAwAA/0YFAAD+zPFkP2sZkvo4ACyYdpOWIYfzPgAA8AcqAADwR2aTnazXkMrnAWCxtVzlvh3kaH4WAAD4BxUAAPhHs92trG90qfomACyX1s5zm4NM55cBAID/owIAAP/lZHKQypDUZgBYXi3f5fb3PtOL6wAAsNIqAABwPNnPi/Sp2gsAI9Fucl99vvp5CAAAK6sCAMDqmk128jJ9Uq8CwEi133KXLkfzswAAsHIqAACsntnuVtY3ulS6pDYDwPi1/JTb1mU6vwwAACujAgDAavnh0y/S1oZUtgPA6mnt29y+GTK9uA4AAKNXAQBgNZx8spusDanaCwCrreUqaX0O56cBAGDUKgAAjNtsdysvN4akXgUA/lFr57lPn6P5WQAAGKUKAADj9f1nXV60PqnNAMC/1V7nbfpM55cBAGBUKgAAjM/xZD8v6jSV7QDAO2k3aRlyOO8DAMBoVAAAGI/ZZCfrOU3VXgDg72i5St11+fKXHwMAwNKrAACw/Ga7W1n/qE/l6wDAQ2jtPLnrcvjrRQAAWFoVAACW28nkIJUhqc0AwINrr/P2TZfpxXUAAFg6FQAAltPxZD9rGZL6OADwqNpN7qvPVz8PAQBgqVQAAFgus8lO1mtI5fMAwFNqucp9O8jR/CwAACyFCgAAy2G2u5X1jS5V3wQAnlNr57nNQabzywAAsNAqAAAsvpPJQVJ9KtsBgEXR8l1uf+8zvbgOAAALqQIAwOI6nuznRfpU7QUAFlK7SUuXw/lpAABYOBUAABbPbLKTl+mTehUAWArtt9yly9H8LAAALIwKAACL5WTSp9IltRkAWDYtP+W2dZnOLwMAwLOrAACwGH749Iu0tSGV7QDAUms3aRly+2bI9OI6AAA8mwoAAM/r5JPdZG1I1V4AYExarpLW53B+GgAAnkUFAIDnMdvdyvpHfSpfBwDGrLXz3KfP0fwsAAA8qQoAAE/v+8+6vGh9UpsBgJXRXuftmy7Ti+sAAPAkKgAAPJ3jyX5e1Gkq2wGAldRu0jLkcN4HAIBHVwEA4PHNJjtZz2mq9gIAJC1XqbsuX/7yYwAAeDQVAAAez2x3K+sbXaq+CQDwr1o7T+66HP56EQAAHlwFAIDHcTI5SGVIajMAwJ9r+S63v/eZXlwHAIAHUwEA4GEdT/azliGpjwMAvId2k/vq89XPQwAAeBAVAAAexmyyk/UaUvk8AMDf13KV+3aQo/lZAAD4IBUAAD7MbHcr6xtdKl1SmwEAHkZr57nNQabzywAA8LdUAAD4+04mB0n1qWwHAHgcrX2b2zdDphfXAQDgvVQAAHh/J5/sJmtDqvYCADyBdpOWLofz0wAA8M4qAAC8u9nuVl5uDEm9CgDwDNpvuUuXo/lZAAD4SxUAAN7NyaRPpUtqMwDAM2uv8zZ9pvPLAADwb1UAAPhzP3z6RdrakMp2AIAF0m7SMuT2zZDpxXUAAPgXFQAA/thsspP1nKZqLwDA4mq5Slqfw/lpAAD4HyoAAPxPs92trH/Up/J1AIDl0dp5ctfl8NeLAADwf1UAAPhv33/W5UXrk9oMALCk2uu8fdNlenEdAIAVVwEAIDme7OdFnaayHQBgBNpNWoYczvsAAKywCgDAKptNdrJeQyqfBwAYn5ar1F2XL3/5MQAAK6gCALCKZrtbWd/oUvVNAIDxa+08tznIdH4ZAIAVUgEAWDUnk4NUhqQ2AwCslpbvcvt7n+nFdQAAVkAFAGBVHE/2s5YhqY8DAKywdpP76vPVz0MAAEauAgAwdrPJTl6mT+pVAAD+S8tV7ttBjuZnAQAYqQoAwFjNdreyvtGl0iW1GQCAP9LyU25bl+n8MgAAI1MBABijHz79Im1tSGU7AADvorVvc/tmyPTiOgAAI1EBABiTk092k7UhVXsBAHhv7SYtXQ7npwEAGIEKAMAYzHa38nJjSOpVAAA+VGvnuU+fo/lZAACWWAUAYNmdTPpUuqQ2AwDwoNrrvE2f6fwyAABLqAIAsKyOJ/t5UaepbAcA4NG0m7QMuX0zZHpxHQCAJVIBAFg2s8lO1nOaqr0AADyVlqvUXZcvf/kxAABLogIAsCxmu1tZ/6hP5esAADyX1s6Tuy6Hv14EAGDBVQAAlsH3n3V50fqkNgMAsBDa67x902V6cR0AgAVVAQBYZMeT/axlSOrjAAAsnHaTliGH8z4AAAuoAgCwiGaTnazXkMrnAQBYdC1XuW8HOZqfBQBggVQAABbJbHcr6xtdqr4JAMCyae08tznIdH4ZAIAFUAEAWBQnk4NUhqQ2AwCwzFq+y+3vfaYX1wEAeEYVAIDndjzZz4v0qdoLAMBotJu0dDmcnwYA4JlUAACey2yyk5fpk3oVAIDRar/lLl2O5mcBAHhiFQCA53Ay6VPpktoMAMAqaPkpt63LdH4ZAIAnUgEAeEo/fPpF2tqQynYAAFZRa9/m9s2Q6cV1AAAeWQUA4CmcfLKbrA2p2gsAwKpruUpan8P5aQAAHlEFAOAxzXa38nJjSOpVAAD4n1o7z336HM3PAgDwCCoAAI/l+8+6vGh9UpsBAOBPtNd5mz7T+WUAAB5QBQDgoR1P9vOiTlPZDgAA76jdpGXI4bwPAMADqQAAPJTZZCfrOU3VXgAA+HtarlJ3Xb785ccAAHygCgDAh5rtbmX9oz6VrwMAwMNo7Ty563L460UAAP6mCgDAhziZHKQyJLUZAAAeQXudt2+6TC+uAwDwnioAAH/H8WQ/axmS+jgAADyydpP76vPVz0MAAN5DBQDgfcwmO1mvIZXPAwDA02q5yn07yNH8LAAA76ACAPAuZrtbWd/oUvVNAAB4Xq2d5zYHmc4vAwDwJyoAAH/lZHKQVJ/KdgAAWBytfZvbN0OmF9cBAPgDFQCAf+d4sp8X6VO1FwAAFlS7SUuXw/lpAAD+SQUA4J/NdrfycmNI6lUAAFgS7bfcpcvR/CwAAP9PBQDgH51M+lS6pDYDAMDyafkpt63LdH4ZAGDlVQAA/sMPn36Rtjaksh0AAJZcu0nLkNs3Q6YX1wEAVlYFAFhtJ5/sJmtDqvYCAMC4tFwlrc/h/DQAwEqqAACraba7lfWP+lS+DgAA49baee7T52h+FgBgpVQAgNXz/WddXrQ+qc0AALBC2uu8fdNlenEdAGAlVACA1XE82c+LOk1lOwAArKh2k5Yhh/M+AMDoVQCA8ZtNdrKe01TtBQAA/kPLVequy5e//BgAYLQqAMB4zXa3sr7RpeqbAADAH2ntPLnrcvjrRQCA0akAAON0MjlIZUhqMwAA8Fdavsvt732mF9cBAEajAgCMy/FkP2sZkvo4AADwXtpN7qvPVz8PAQBGoQIAjMNsspOX6ZN6FQAA+BAtV7lvBzmanwUAWGoVAGC5zXa3sr7RpdIltRkAAHgoLT/ltnWZzi8DACylCgCwvE4mB0n1qWwHAAAeS2vf5vbNkOnFdQCApVIBAJbPySe7ydqQqr0AAMCTaDdp6XI4Pw0AsDQqAMDymO1u5eXGkNSrAADAs2i/5S5djuZnAQAWXgUAWA4nkz6VLqnNAADAs2uv8zZ9pvPLAAALqwIALLYfPv0ibW1IZTsAALBQ2k1ahty+GTK9uA4AsHAqAMBimk12sp7TVO0FAAAWWctV0voczk8DACyUCgCwWGa7W1n/qE/l6wAAwDJp7Ty563L460UAgIVQAQAWx/efdXnR+qQ2AwAAS6u9zts3XaYX1wEAnlUFAHh+x5P9vKjTVLYDAACj0G7SMuRw3gcAeDYVAOD5zCY7Wa8hlc8DAABj1HKVuuvy5S8/BgB4chUA4OnNdreyvtGl6psAAMAqaO08tznIdH4ZAODJVACAp3UyOUhlSGozAACwalq+y+3vfaYX1wEAHl0FAHgax5P9vEifqr0AAMBKaze5rz5f/TwEAHhUFQDgcc0mO3mZPqlXAQAA/kH7LXfpcjQ/CwDwKCoAwOOY7W5lfaNLpUtqMwAAwB9r+Sm3rct0fhkA4EFVAICH98OnX6StDalsBwAAeDetfZvbN0OmF9cBAB5EBQB4OCef7CZrQ6r2AgAA/A3tJi1dDuenAQA+WAUA+HCz3a283BiSehUAAODDtXae+/Q5mp8FAPjbKgDAhzmZ9Kl0SW0GAAB4YO113qbPdH4ZAOC9VQCAv+d4sp8XdZrKdgAAgEfUbtIy5PbNkOnFdQCAd1YBAN7PbLKT9Zymai8AAMDTablK3XX58pcfAwC8kwoA8G5mu1tZ/6hP5esAAADPp7Xz5K7L4a8XAQD+VAUA+Gvff9blReuT2gwAALAg2uu8fdNlenEdAOAPVQCAf+94sp+1DEl9HAAAYAG1m9xXn69+HgIA/IsKAPCvZpOdrNeQyucBAAAWX8tV7ttBjuZnAQD+vwoA8N9mu1tZ3+hS9U0AAIDl09p5bnOQ6fwyAEAqAMB/OpkcJNWnsh0AAGC5tXyX29/7TC+uAwArrAIAq+54sp8X6VO1FwAAYETaTVq6HM5PAwArqgIAq2o22cnL9Em9CgAAMGLtt9yly9H8LACwYioAsIpOJn0qXVKbAQAAVkPLT7ltXabzywDAiqgAwCr54dMv0taGVLYDAACspta+ze2bIdOL6wDAyFUAYBWcfLKbrA2p2gsAAEDLVdL6HM5PAwAjVgGAMZvtbuXlxpDUqwAAAPyz1s5znz5H87MAwAhVAGCsvv+sy4vWJ7UZAACAP9Ve5236TOeXAYARqQDA2BxP9vOiTlPZDgAAwDtrN2kZcjjvAwAjUQGAsZhNdrKe01TtBQAA4O9quUrddfnylx8DAEuuAgDLbra7lfWNLlXfBAAA4KG0dp7cdTn89SIAsKQqALDMTiYHqQxJbQYAAOAxtHyX29/7TC+uAwBLpgIAy+h4sp+1DEl9HAAAgEfXbnJffb76eQgALJEKACyT2WQn6zWk8nkAAACeWstV7ttBjuZnAYAlUAGAZTDb3cr6RpdKl9RmAAAAnlNr57nNQabzywDAAqsAwKI7mRwk1aeyHQAAgEXS2re5fTNkenEdAFhAFQBYVMeT/bxIn6q9AAAALKx2k5Yuh/PTAMCCqQDAopntbuXlxpDUqwAAACyN9lvu0uVofhYAWBAVAFgkJ5M+lS6pzQAAACyjlp9y27pM55cBgGdWAYBF8MOnX6StDalsBwAAYOm1m7QMuX0zZHpxHQB4JhUAeE4nn+wma0Oq9gIAADA2LVdJ63M4Pw0APIMKADyH2e5W1j/qU/k6AAAAY9faee7T52h+FgB4QhUAeGrff9blReuT2gwAAMBKaa/z9k2X6cV1AOAJVADgqRxP9vOiTlPZDgAAwMpqN2kZcjjvAwCPrAIAj2022cl6Dal8HgAAAP5Ty1XqrsuXv/wYAHgkFQB4LLPdraxvdKn6JgAAAPyx1s5zm4NM55cBgAdWAYDHcDI5SGVIajMAAAD8tZbvcvt7n+nFdQDggVQA4CEdT/azliGpjwMAAMB7aje5rz5f/TwEAB5ABQAewmyyk5fpk3oVAAAAPkzLVe7bQY7mZwGAD1ABgA8x293K+kaXSpfUZgAAAHg4LT/ltnWZzi8DAH9DBQD+rpPJQVJ9KtsBAADg8bT2bW7fDJleXAcA3kMFAN7XySe7ydqQqr0AAADwRNpNWroczk8DAO+oAgDvara7lZcbQ1KvAgAAwDNpv+UuXY7mZwGAv1ABgHdxMulT6ZLaDAAAAAugvc7b9JnOLwMA/0YFAP7MD59+kbY2pLIdAAAAFky7ScuQ2zdDphfXAYB/UgGAPzKb7GQ9p6naCwAAAIut5SppfQ7npwGAf1ABgH80293K+kd9Kl8HAACA5dLaeXLX5fDXiwDA/1EBgP/y/WddXrQ+qc0AAACwxNrrvH3TZXpxHQBWWgUAjif7WcIa1cMAACAASURBVMuQ1McBAABgJNpNWoYczvsAsLIqAKyu2WQn6zWk8nkAAAAYp5ar3LeDHM3PAsDKqQCwema7W1nf6FL1TQAAAFgNrZ3nNgeZzi8DwMqoALBaTiYHqQxJbQYAAIDV0/K/2YOf2DgLO/H/7w+sHCo5P3sFB5g9xEiwcArOqFRPl1+bxxxWFRwm7WrhghqjnDo2YnxqpbKaBy1Iv548ETPsKYtTcQlV+80cwqLvgZlQ0bEKcpycwiZSnMMaDolkf2Op2FJ4fmLX/Za2/Ekc/xn7eb9ex1n7Q8bU/BKSpD0vkCQVw2tJyl1kRBxGkiRJklRw+TKfRcZkr4EkaU8LJEl723Qywj4yiKNIkiRJkvRn8vPcpMYLs10kSXtSIEnam6ZHhxm4p0ZQgxhCkiRJkqSvktNmLa8xNbuAJGlPCSRJe8/r3zlCfneD4ACSJEmSJN2qPH+ZtU8bTM0vIUnaEwJJ0t7RenwU7m4QcRhJkiRJkjYkXyanxsTsDJKkXS+QJO1+06PD7LunAXEUSZIkSZI2Q56f5TMyXpjtIknatQJJ0u7WSjKCGsQQkiRJkiRtuvwkq2RMzS4gSdp1AknS7vRaknJXzBAcQJIkSZKkLZUvk9NgYjZDkrSrBJKk3WU6GWGAGSIOI0mSJEnSdsq5StysUf39aSRJu0IgSdodpkeHGfhWRvAikiRJkiTtpDw/CzdrTHwwjySprwWSpP7XSsYJGhBDSJIkSZLUN/KTrH5aY2p+CUlSXwokSf3rtSTlbhoQjyFJkiRJUl/Kl/ksMiZ7DSRJfSeQJPWf6WSEgWgQVJAkSZIkaTfIucpn+TgvzHaRJPWNQJLUP6ZHhxm4p0ZEHUmSJEmSdqM8P8sa40zNLiBJ2nGBJKk/tJJxiIzgAJIkSZIk7XY5x1n7Q8bU/BKSpB0TSJJ21mtJyl1kRBxGkiRJkqQ9JV8mp8bE7AySpB0RSJJ2xnQywj4yiKNIkiRJkrSn5ee5SY0XZrtIkrZVIEnafq0kI6hBDCFJkiRJUlHktFnLa0zNLiBJ2haBJGn7vP6dI+R3NwgOIEmSJElSUeX5y6x92mBqfglJ0pYKJElbr/X4KNzdIOIwkiRJkiQJcq5CnjExO4MkacsEkqStMz06zMC3MoIXkSRJkiRJfy3Pz/IZGS/MdpEkbbpAkrQ1mt+tcVeeQQwhSZIkSZK+QX6S1U9rTM0vIUnaNIEkaXO9lqTcFTMEB5AkSZIkSbchXyanwcRshiRpUwSSpM0xnYwwwAwRh5EkSZIkSRuXc5W4WaP6+9NIku5IIEm6M9OjwwzcUyOijiRJkiRJ2jx5fhZu1pj4YB5J0oYEkqSNayXjBA2IISRJkiRJ0tbIOc7aHzKm5peQJN2WQJJ0+15LUu6mAfEYkiRJkiRpG+TLfBYZk70GkqRbFkiSbt10MsJANAgqSJIkSZKk7Zdzlc/ycV6Y7SJJ+kaBJOmbTY8OM3BPjaAGMYQkSZIkSdpZeX6WNcaZml1AkvSVAknS12sl4xAZwQEkSZIkSVJ/yfOXWfu0wdT8EpKkvxJIkr7ca0nKXWREHEaSJEmSJPWxfJmcGhOzM0iS/kwgSfpz06PD7LunAXEUSZIkSZK0i+TnuUmNF2a7SJL+WyBJ+pNWkhHUIIaQJEmSJEm7U06btbzG1OwCklRwgSQJXv/OEfK7GwQHkCRJkiRJe0C+TE6DtU8bTM0vIUkFFUhSkU0nIwwwQ8RhJEmSJEnS3pNzFfKMidkZJKmAAkkqounRYQa+lRG8iCRJkiRJ2vvy/CzcrDHxwTySVCCBJBVN87s17soziCEkSZIkSVLB5CdZ/bTG1PwSklQAgSQVxWtJyl0xQ3AASZIkSZJUYPkyOQ0mZjMkaY8LJGmvm05GGIgGQQVJkiRJkqQ/yrlK3KxR/f1pJGmPCiRpr5oeHWbgnhoRdSRJkiRJkr5Knp9ljXGmZheQpD0mkKS9qJWMEzQghpAkSZIkSboVOcdZ+0PG1PwSkrRHBJK0l7yWpNxNA+IxJEmSJEmSblu+zGeRMdlrIEl7QCBJe8F0MsI+MoijSJIkSZIk3amcq3yWj/PCbBdJ2sUCSdrNpkeHGbinRlCDGEKSJEmSJGkz5bRZy2tMzS4gSbtQIEm7VSsZh8gIDiBJkiRJkrSV8vxl1j5tMDW/hCTtIoEk7Tatx0fh7gYRh5EkSZIkSdo2+TI5NSZmZ5CkXSKQpN1ienSYffc0II4iSZIkSZK0Y/Lz3KTGC7NdJKnPBZK0G7SSjKAGMYQkSZIkSVJfyE+ySsbU7AKS1KcCSepnryUpd8UMwQEkSZIkSZL6Tr5MToO1TxtMzS8hSX0mkKR+NJ2MMMAMEYeRJEmSJEnqdzlXiZs1qr8/jST1kUCS+sn06DAD38oIXkSSJEmSJGm3yfOzcLPGxAfzSFIfCCSpXzS/W+OuPIMYQpIkSZIkaVfLT7L6aY2p+SUkaQcFkrTTXktS7qYB8RiSJEmSJEl7Rr5MToOJ2QxJ2iGBJO2U6WSEgWgQVJAkSZIkSdqrcq7yWT7OC7NdJGmbBZK03aZHhxm4p0ZEHUmSJEmSpKLI87OsMc7U7AKStE0CSdpOrWScoAExhCRJkiRJUhHlHGftDxlT80tI0hYLJGk7vJak3EVGxGEkSZIkSZIKL1/ms8iY7DWQpC0USNJWmk5G2EcGcRRJkiRJkiT9hfw8N6nxwmwXSdoCgSRthenRYQbuqRHUIIaQJEmSJEnSV8tps5bXmJpdQJI2USBJm+317xwhv7tBcABJkiRJkiTdujx/mbVPG0zNLyFJmyCQpM3SenwU7m4QcRhJkiRJkiRtTM5VyDMmZmeQpDsUSNKdmh4dZt89DYijSJIkSZIkaXPk+Vk+I+OF2S6StEGBJN2J5ndr3JVnEENIkiRJkiRpC+QnWSVjanYBSbpNgSRtxGtJyl0xQ3AASZIkSZIkbbF8mZwGE7MZknQbAkm6HdPJCAPMEHEYSZIkSZIkba+cq8TNGtXfn0aSbkEgSbdienSYgW9lBC8iSZIkSZKknZXnZ+FmjYkP5pGkrxFI0jdpJeMEDYghJEmSJEmS1Efyk6x+WmNqfglJ+hKBJH2V15KUu2lAPIYkSZIkSZL6VL7MZ5Ex2WsgSX8hkKS/NJ2MMBANggqSJEmSJEnaHXKu8lk+zguzXSRpXSBJfzQ9OszAPTUi6kiSJEmSJGl3yvOzrDHO1OwCkgovkKTPtZJxiIzgAJIkSZIkSdr9co6z9oeMqfklJBVWIKnYXktS7iIj4jCSJEmSJEnaY/JlcmpMzM4gqZACScU0PTrMvnsaEEeRJEmSJEnSHpef5yY1XpjtIqlQAknF00oyghrEEJIkSZIkSSqOnDZreY2p2QUkFUIgqThe/84R8rsbBAeQJEmSJElSQeXL5DRY+7TB1PwSkva0QNLe13p8FO5uEHEYSZIkSZIk6XM5VyHPmJidQdKeFUjau6ZHhxn4VkbwIpIkSZIkSdKXyfOzfEbGC7NdJO05gaS9qfndGnflGcQQkiRJkiRJ0jfKT7L6aY2p+SUk7RmBpL3ltSTlrpghOIAkSZIkSZJ0W/JlchpMzGZI2hMCSXvDdDLCADNEHEaSJEmSJEm6EzlXiZs1qr8/jaRdLZC0u02PDjNwT42IOpIkSZIkSdJmyvOzcLPGxAfzSNqVAkm7VysZJ2hADCFJkiRJkiRtlZzjrP0hY2p+CUm7SiBp93ktSbmbBsRjSJIkSZIkSdsiX+azyJjsNZC0awSSdo/pZISBaBBUkCRJkiRJknZCzlU+y8d5YbaLpL4XSOp/06PDDNxTI6hBDCFJkiRJkiTttDw/yxrjTM0uIKlvBZL6WysZh8gIDiBJkiRJkiT1mzx/mbVPG0zNLyGp7wSS+lPr8VG4u0HEYSRJkiRJkqS+li+TU2NidgZJfSWQ1F+mR4fZd08D4iiSJEmSJEnSrpKf5yY1XpjtIqkvBJL6RyvJCGoQQ0iSJEmSJEm7Vn6SVTKmZheQtKMCSTvv9e8cIb+7QXAASZIkSZIkaU/Il8lpsPZpg6n5JSTtiEDSzplORhhghojDSJIkSZIkSXtRzlXIMyZmZ5C07QJJ2296dJiBb2UELyJJkiRJkiQVQZ6fhZs1Jj6YR9K2CSRtr+Z3a9yVZxBDSJIkSZIkSYWTn2T10xpT80tI2nKBpO3xWpJyV8wQHECSJEmSJEkqtHyZnAYTsxmStlQgaWtNJyMMRIOggiRJkiRJkqQ/yblK3KxR/f1pJG2JQNLWmB4dZuCeGhF1JEmSJEmSJH21PD/LGuNMzS4gaVMFkjZfKxknaEAMIUmSJEmSJOnW5Bxn7Q8ZU/NLSNoUgaTN81qScjcNiMeQJEmSJEmStAH5Mp9FxmSvgaQ7Fki6c9PJCPvIII4iSZIkSZIk6c7lXOWzfJwXZrtI2rBA0sZNjw4zcE+NoAYxhCRJkiRJkqTNldNmLa8xNbuApNsWSNqY179zhPzuBsEBJEmSJEmSJG2tPH+ZtU8bTM0vIemWBZJuz3QywgAzRBxGkiRJkiRJ0jbKl+Gzcaq/P42kWxJIunWtZJygATGEJEmSJEmSpB2Sn2T10xpT80tI+lqBpFvzejIDcRRJkiRJkiRJfSA/z+qnKVPzS0j6SoGkb/Z6MgNxFEmSJEmSJEl9JF8mv5ky8cE8kr5UIOnrvZ7MQBxFkiRJkiRJUh/Kl1lllKnZBST9lUDSV3s9mYE4iiRJkiRJkqQ+lp9n9dOUqfklJP2ZQNKXayXjRLyBJEmSJEmSpP6X52eZmE2R9GcCSX+t9fgo8TfnkCRJkiRJkrR75PnLTMxmSPq/Akl/bnp0mIFvzRMcQJIkSZIkSdLucjMf44XZLpL+WyDpz7W+2yB4EUnSbRu972GGB/Yz8v88wMj++/nc6L1/z/C+Qf7ocOkQt+v89cssrd7gjxZufMzCjY/53MKNT1j4Px/zue7iHJIkSZtt9L6HGR7YT/p3h/jc6L1/z/C+QT53uHSIO3F28RyfW1pdYf76f/K57n+dY2ntBvPXLiFJ2oCcq0z0RpD03wJJf9J6fJT4m3NIkr7S8L5BRu/9e0bve5iR/Q8wet/DjOx/gAP776dfnF08x+e6i3Msra4wf+0SCzc+ZuHGx0iSJH2dtFRm9L6HGb3vYUbv+3seu/chdtL565eZv/afzF+7xPy1S3QX55Ak3YI8f5mJ2QxJBJL+pJV0iTiMJOn/Sktl0r87xOi9f8/ofQ9zYP/97GZnF8+xcONj5q9dYv7aJeav/ydLqytIkqRiSktl0r87RFoqc7h0iN3g7OI5uotzdP/rHN3FOSRJXyZfZpVRpmYXkAoukPQ/XktS7o4OklRwaalM+neHSEtlDpcOUQRXb3zC/LVLdBfnmL92ie7iHJIkaW8a3jfIkQcPc2Tk+6R/d4ihgUF2s+W1Fbr/dY7TC+9x+spZllZXkCT9UX6S6uw4UsEFkv5HK+kScRhJKpiR/Q+Q/l2ZIyPfp/Lg99D/OLt4ju7iHPPXLtFdnGNpdQVJkrQ7De8b5MiDhzky8n0qD36Pvax95becXniP01fOsrS6giQV3mr+IFOzC0gFFkiC1uOjxN+cQ5IKYmT/Axx58PuMP/o0j937EPpmZxfP0V2co/tf5+guziFJkvpfWioz/uhTHHnw+wwNDFIky2srnL7yHo0Lp5i/dglJKqw8f5mJ2QypwAJJ8HoyA3EUSdrDhvcNcuTBw9QOPstj9z6ENm55bYXuf53j9MJ7nL5ylqXVFSRJUv8Yf/Rpagef5bF7H0Jw/vplGhdOMXPxDJJUPPky1dlhpAILJMHryRLEEJK0B6WlMuOPPsXRR55CW+P89cvMXDzD6SvvsXDjYyRJ0vYb3jdI7eCz1A4+y9DAIPprV298wsxHZ2hcOMXS6gqSVBw3f0j196eRCiqQiu717xyBu/8XkrSHDO8bZPyRp6kdfJYD++9H2+f89cvMXDzD6SvvsXDjYyRJ0tYa3jdI7eCz1A4+y9DAIPpmy2srNC6conHhFEurK0jS3pefpDo7jlRQgVR0ryczEEeRpD1gZP8DjD/6FLWDzzI0MIh21vnrl2lcOMXpK2dZWl1BkiRtnuF9g9QOPkvt4LMMDQyi27e8tkLjwimyD04gSXtbvkx1dhipoAKp6FrfXSA4gCTtYiP7HyB7/BhHH3kK9aeTH73N6SvvcfrKe0iSpDsz/ujTZN8+xoH996M7d/XGJ9Teb3D6yntI0p51Mx/jhdkuUgEFUpFNJyPsiytI0i41sv8BssePcfSRp9DucPXGJ8x8dIaZi2+zcONjJEnSrRu972EaT9Q4XDqENt/ZxXOMv/sKCzc+RpL2nM+YYrLXQCqgQCqy15KUu6ODJO0yw/sGqR18lvq3j6Hd6+RHbzNz8W26i3NIkqSvNrxvkNrBZ6l/+xjaei9/eILsgxNI0t6Sn6Q6O45UQIFUZK0kI6KOJO0itYPPkj1+jKGBQbQ3nL9+mcaFU8xcPIMkSfpzaanMzJMvcWD//Wj7XL3xCUfe+Snz1y4hSXtCnp9lYjZFKqBAKrJWkhFRR5J2gbRUpvH/1njs3ofQ3nT1xifMfHSGxoVTLK2uIElS0TWeqPHiwWfQznn5wxNkH5xAkna9nKtM9EaQCiiQiqyVZETUkaQ+NrxvkMYTNY4+8hQqhuW1FRoXTtG4cIql1RUkSSqa0fseZubJf+Gxex9CO+/89csc+Y+fsnDjYyRpV6v2AqmAAqnIWklGRB1J6lNHHvw+M0++xNDAICqe5bUVGhdO0bhwiqXVFSRJKoLxR5+m8cSLDA0Mov6xvLbC+LuvcPrKe0jSrlXtBVIBBVKRtZKMiDqS1GeG9w0yM/YvVB78HtLy2gqNC6doXDjF0uoKkiTtVY0narx48BnUv45feIva+w0kaVeq9gKpgAKpyFpJRkQdSeojaanMzJMvcWD//UhftLy2QuPCKbIPTiBJ0l4yvG+Q0z/4BYdLh1D/a1/5LeOdf2VpdQVJ2lWqvUAqoEAqslaSEVFHkvpE9vgx6t8+hvR1rt74hOzDE8xcPIMkSbvd6H0PM/Pkv/DYvQ+h3eP89csc+Y+fsnDjYyRp16j2AqmAAqnIWklGRB1J2mHD+wY5/YNfcLh0COlWnV08R/bBCbqLc0iStBuN3vcw3UqLoYFBtPssr62QtieYv3YJSdoVqr1AKqBAKrJWkhFRR5J20Oh9D3P6B7/gwP77kTbi5EdvU3u/wdLqCpIk7RZHHvw+M0++xNDAINq9ltdWSNsTzF+7hCT1vWovkAookIqslWRE1JGkHTL+6NM0nniRoYFBpDuxvLZC9sEJGhdOIUlSvxt/9GneGPs52huW11aovX+cmYtnkKS+Vu0FUgEFUpG1koyIOpK0A2oHn2X6iReRNtP565cZf/dfmb92CUmS+tH4o0/zxtjP0d7zfOdVZi6eQZL6VrUXSAUUSEXWSjIi6kjSNpt58iWOPvIU0lZ5+cMTZB+cQJKkfjL+6NO8MfZztHc933mVmYtnkKS+VO0FUgEFUpG1koyIOpK0jWaefImjjzyFtNXOX7/M+Lv/yvy1S0iStNOOPPh9/tcP/j+09x361VHmr11CkvpOtRdIBRRIRdZKMiLqSNI2mXnyJY4+8hTSdnr5wxNkH5xAkqSdMnrfw3QrLYYGBtHet7y2QtqeYP7aJSSpr1R7gVRAgVRkrSQjoo4kbYOZJ1/i6CNPIe2E89cvc+Q/fsrCjY+RJGk7jd73MN1Ki6GBQVQcy2srpO0J5q9dQpL6RrUXSAUUSEXWSjIi6kjSFpt58iWOPvIU0k5aXluh9v5xZi6eQZKk7TC8b5D5f/4lB/bfj4rn/PXLpO0qS6srSFJfqPYCqYACqchaSUZEHUnaQjNPvsTRR55C6hcnP3qb2vsNllZXkCRpK80/80seu/chVFxnF8+RtieQpL5Q7QVSAQVSkbWSjIg6krRFZp58iaOPPIXUb85fv8z4u//K/LVLSJK0FWaefImjjzyFdPzCW9TebyBJO67aC6QCCqQiayUZEXUkaQvUDj7L9BMvIvWr5bUVxt99hdNX3kOSpM00/ujTvDH2c6Q/er7zKjMXzyBJO6raC6QCCqQiayUZEXUkaZONP/o0b4z9HGk3OH7hLWrvN5AkaTOM3vcw3UqLoYFBpD9aXlshbU8wf+0SkrRjqr1AKqBAKrJWkhFRR5I20eh9D9OttBgaGETaLdpXfst4519ZWl1BkqSNGt43SLfyOo/d+xDSXzp//TKjb/0YSdox1V4gFVAgFVkryYioI0mbZHjfIAvP/YahgUGk3eb89csc+Y+fsnDjYyRJ2ojGEzVePPgM0lc5fuEtau83kKQdUe0FUgEFUpG1koyIOpK0SbqVFodLh5B2q+W1FdL2BPPXLiFJ0u1IS2U6lSbSNxlrT9JdnEOStl21F0gFFEhF1koyIupI0ibIHj9G/dvHkHa75bUVjvzHz+guziFJ0q0Y3jfIwnO/YWhgEOmbXL3xCaO/+jFLqytI0raq9gKpgAKpyFpJRkQdSbpDaalMp9JE2kue77zKzMUzSJL0TRpP1Hjx4DNIt+r4hbeovd9AkrZVtRdIBRRIRdZKMiLqSNIdGN43yPw//5ID++9H2mue77zKzMUzSJL0VdJSmU6liXS7Dv3qKPPXLiFJ26baC6QCCqQiayUZEXUk6Q40nqjx4sFnkPaq5zuvMnPxDJIkfZn5Z37JY/c+hHS7zi6eI21PIEnbptoLpAIKpCJrJRkRdSRpg9JSmU6libTXTb1/nMaFU0iS9EW1g88y/cSLSBv1fOdVZi6eQZK2RbUXSAUUSEXWSjIi6kjSBgzvG2T+n3/Jgf33IxXB8QtvUXu/gSRJnxveN8jCc79haGAQaaOW11YYefNHLK2uIElbrtoLpAIKpCJrJRkRdSRpA7LHj1H/9jGkInm+8yozF88gSVL2+DHq3z6GdKde/vAE2QcnkKQtV+0FUgEFUpG1koyIOpJ0m0b2P8CV536NVETPd15l5uIZJEnFNbL/Aa4892ukzbC8tsLImz9iaXUFSdpS1V4gFVAgFVkryYioI0m3qVtpcbh0CKmonu+8yszFM0iSimnmyZc4+shTSJvl5Q9PkH1wAknaUtVeIBVQIBVZK8mIqCNJtyEtlelUmkhF93znVWYunkGSVCwj+x/gynO/RtpMy2srjLz5I5ZWV5CkLVPtBVIBBVKRtZKMiDqSdBu6lRaHS4eQim55bYW0PcH8tUtIkopj5smXOPrIU0ib7eUPT5B9cAJJ2jLVXiAVUCAVWSvJiKgjSbcoLZXpVJpI+h/Layuk7Qnmr11CkrT3De8bZOG53zA0MIi02ZbXVhh580csra4gSVui2gukAgqkImslGRF1JOkWdSstDpcOIelPzl+/TNqusrS6giRpb8seP0b928eQtsrU+8dpXDiFJG2Jai+QCiiQiqyVZETUkaRbkJbKdCpNJP21s4vnSNsTSJL2toXnfsOB/fcjbZWrNz5h5M0fIUlbotoLpAIKpCJrJRkRdSTpFnQrLQ6XDiHpy5386G3G330FSdLeNP7o07wx9nOkrfbDd37G6SvvIUmbrtoLpAIKpCJrJRkRdSTpG4zsf4Arz/0aSV/v+c6rzFw8gyRp7zn9g19QefB7SFutfeW3HHnnp0jSpqv2AqmAAqnIWklGRB1J+gYzT77E0UeeQtI3G2tP0l2cQ5K0d4zsf4Arz/0aabv87b//I0urK0jSpqr2AqmAAqnIWklGRB1J+hrD+wZZeO43DA0MIumbLa+tkLYnmL92CUnS3lA7+CzTT7yItF2m3j9O48IpJGlTVXuBVECBVGStJCOijiR9jfFHn+aNsZ8j6dadv36ZtF1laXUFSdLut/Dcbziw/36k7XL++mVG3/oxkrSpqr1AKqBAKrJWkhFRR5K+xvwzv+Sxex9C0u05u3iOtD2BJGl3G73vYc7980mk7fbgm//Ewo2PkaRNU+0FUgEFUpG1koyIOpL0FUb2P8CV536NpI05+dHbjL/7CpKk3St7/Bj1bx9D2m5T7x+nceEUkrRpqr1AKqBAKrJWkhFRR5K+Qu3gs0w/8SKSNu75zqvMXDyDJGl3mn/mlzx270NI2+389cuMvvVjJGnTVHuBVECBVGStJCOijiR9hflnfslj9z6EpDsz1p6kuziHJGl3Gdn/AFee+zXSTvnbf/9HllZXkKRNUe0FUgEFUpG1koyIOpL0JUb2P8CV536NpDu3vLZC2p5g/tolJEm7x/ijT/PG2M+RdsoP3/kZp6+8hyRtimovkAookIqslWRE1JGkLzH+6NO8MfZzJG2O89cvk7arLK2uIEnaHWaefImjjzyFtFNOfvQ24+++giRtimovkAookIqslWRE1JGkL3H6B7+g8uD3kLR5zi6eI21PIEnaHRae+w0H9t+PtFOu3viEkTd/hCRtimovkAookIqslWRE1JGkL7F07H8zNDCIpM118qO3GX/3FSRJ/W1k/wNcee7XSDvtwTf/iYUbHyNJd6zaC6QCCqQiayUZEXUk6S+M3vcw5/75JJK2xtT7x2lcOIUkqX+NP/o0b4z9HGmn/fCdn3H6yntI0h2r9gKpgAKpyFpJRkQdSfoLtYPPMv3Ei0jaOj9852ecvvIekqT+1HiixosHn0HaaS9/eILsgxNI0h2r9gKpgAKpyFpJRkQdSfoLM0++xNFHnkLS1lleWyFtTzB/7RKSpP7TrbQ4XDqEtNPOLp4jbU8gSXes2gukAgqkImslGRF1JOkvzD/zSx679yEkba2rNz5h9Fc/Zml1BUlSf8l/8jukfrC8tsLwiX9Eku5YtRdIBRRIRdZKMiLqSNJfyH/yOyRtj/PXLzP61o+RJPWPkf0PcOW5XyP1i7/9939kaXUFSboj1V4gFVAgFVkryYioI0lfkJbKdCpN5E7nFAAAIABJREFUJG2fkx+9zfi7ryBJ6g9pqUyn0kTqF2PtSbqLc0jSHan2AqmAAqnIWklGRB1J+oLxR5/mjbGfI2l7Tb1/nMaFU0iSdl72+DHq3z6G1C+m3j9O48IpJOmOVHuBVECBVGStJCOijiR9Qfb4MerfPoak7ffDd37G6SvvIUnaWY0narx48BmkfvHyhyfIPjiBJN2Rai+QCiiQiqyVZETUkaQvOP2DX1B58HtI2n7Layuk7Qnmr11CkrRzupUWh0uHkPpF+8pvOfLOT5GkO1LtBVIBBVKRtZKMiDqS9AXdSovDpUNI2hlXb3zC6K9+zNLqCpKkndGttDhcOoTUL84uniNtTyBJd6TaC6QCCqQiayUZEXUk6QsWnvsNB/bfj6Sdc/76ZUbf+jGSpJ2xdOx/MzQwiNQvrt74hJE3f4Qk3ZFqL5AKKJCKrJVkRNSRpC/If/I7JO28kx+9zfi7ryBJ2n75T36H1G/i3/4BSboj1V4gFVAgFVkryYioI0lfkP/kd0jqD1PvH6dx4RSSpO2V/+R3SP0m/u0fkKQ7Uu0FUgEFUpG1koyIOpL0BflPfoek/vHDd37G6SvvIUnaHiP7H+DKc79G6jfxb/+AJN2Rai+QCiiQiqyVZETUkaR1aalMp9JEUv9YXlshbU8wf+0SkqStl5bKdCpNpH7z4Jv/xMKNj5GkDav2AqmAAqnIWklGRB1JWpeWynQqTST1l6s3PmH0Vz9maXUFSdLWSktlOpUmUr8Za0/SXZxDkjas2gukAgqkImslGRF1JGldWirTqTSR1H/OX7/M6Fs/RpK0tdJSmU6lidRvxtqTdBfnkKQNq/YCqYACqchaSUZEHUlal5bKdCpNJPWnkx+9zfi7ryBJ2jppqUyn0kTqN2PtSbqLc0jShlV7gVRAgVRkrSQjoo4krUtLZTqVJpL619T7x2lcOIUkaWukpTKdShOp34y1J+kuziFJG1btBVIBBVKRtZKMiDqStC4tlelUmkjqb893XmXm4hkkSZsvLZXpVJpI/WasPUl3cQ5J2rBqL5AKKJCKrJVkRNSRpHVpqUyn0kRSf1teWyFtTzB/7RKSpM2Vlsp0Kk2kfjPWnqS7OIckbVi1F0gFFEhF1koyIupI0rq0VKZTaSKp/y2vrTDy5o9YWl1BkrR50lKZTqWJ1G/G2pN0F+eQpA2r9gKpgAKpyFpJRkQdSVqXlsp0Kk0k7Q7nr18mbVdZWl1BkrQ50lKZTqWJ1G/G2pN0F+eQpA2r9gKpgAKpyFpJRkQdSVqXlsp0Kk0k7R4nP3qb8XdfQZK0OdJSmU6lidRvxtqTdBfnkKQNq/YCqYACqchaSUZEHUlal5bKdCpNJO0uL394guyDE0iS7lxaKtOpNJH6zVh7ku7iHJK0YdVeIBVQIBVZK8mIqCNJ69JSmU6liaTd5/nOq8xcPIMk6c6kpTKdShOp34y1J+kuziFJG1btBVIBBVKRtZKMiDqStC4tlelUmkjafZbXVkjbE8xfu4QkaePSUplOpYnUb8bak3QX55CkDav2AqmAAqnIWklGRB1JWpeWynQqTSTtTstrK4y8+SOWVleQJG1MWirTqTSR+s1Ye5Lu4hyStGHVXiAVUCAVWSvJiKgjSevSUplOpYmk3ev89cuk7SpLqytIkm5fWirTqTSR+s1Ye5Lu4hyStGHVXiAVUCAVWSvJiKgjSevSUplOpYmk3e3kR28z/u4rSJJuX1oq06k0kfrNWHuS7uIckrRh1V4gFVAgFVkryYioI0nr0lKZTqWJpN3v5Q9PkH1wAknS7UlLZTqVJlK/GWtP0l2cQ5I2rNoLpAIKpCJrJRkRdSRpXVoq06k0kbQ3PN95lZmLZ5Ak3bq0VKZTaSL1m7H2JN3FOSRpw6q9QCqgQCqyVpIRUUeS1qWlMp1KE0l7w/LaCml7gvlrl5Ak3Zq0VKZTaSL1m7H2JN3FOSRpw6q9QCqgQCqyVpIRUUeS1qWlMp1KE0l7x/LaCiNv/oil1RUkSd8sLZXpVJpI/WasPUl3cQ5J2rBqL5AKKJCKrJVkRNSRpHVpqUyn0kTS3nL++mXSdpWl1RUkSV8vLZXpVJpI/WasPUl3cQ5J2rBqL5AKKJCKrJVkRNSRpHVpqUyn0kTS3nPyo7cZf/cVJElfLy2V6VSaSP1mrD1Jd3EOSdqwai+QCiiQiqyVZETUkaR1aalMp9JE0t708ocnyD44gSTpq6WlMp1KE6nfjLUn6S7OIUkbVu0FUgEFUpG1koyIOpK0Li2V6VSaSNq7nu+8yszFM0iSvlxaKtOpNJH6zVh7ku7iHJK0YdVeIBVQIBVZK8mIqCNJ69JSmU6liaS97dCvjjJ/7RKSpL+Wlsp0Kk2kfjPWnqS7OIckbVi1F0gFFEhF1koyIupI0rq0VKZTaSJpb1teW2H0raMs3PgYSdKfS0tlOpUmUr8Za0/SXZxDkjas2gukAgqkImslGRF1JGldWirTqTSRtPedv36ZtF1laXUFSdKfpKUynUoTqd+MtSfpLs4hSRtW7QVSAQVSkbWSjIg6krQuLZXpVJpIKob2ld9y5J2fIkn6k7RUplNpIvWbsfYk3cU5JGnDqr1AKqBAKrJWkhFRR5LWpaUynUoTScVx/MJb1N5vIEn6H2mpTKfSROo3Y+1JuotzSNKGVXuBVECBVGStJCOijiStS0tlOpUmkorl+c6rzFw8gyQJ0lKZTqWJ1G/G2pN0F+eQpA2r9gKpgAKpyFpJRkQdSVqXlsp0Kk0kFc+hXx1l/tolJKno0lKZTqWJ1G/G2pN0F+eQpA2r9gKpgAKpyFpJRkQdSVqXlsp0Kk0kFc/y2gqjbx1l4cbHSFKRpaUynUoTqd+MtSfpLs4hSRtW7QVSAQVSkbWSjIg6krQuLZXpVJpIKqbz1y+Ttqssra4gSUWVlsp0Kk2kfjPWnqS7OIckbVi1F0gFFEhF1koyIupI0rq0VKZTaSKpuNpXfsuRd36KJBVVWirTqTSR+s1Ye5Lu4hyStGHVXiAVUCAVWSvJiKgjSevSUplOpYmkYjt+4S1q7zeQpCJKS2U6lSZSvxlrT9JdnEOSNqzaC6QCCqQiayUZEXUkaV1aKtOpNJGk5zuvMnPxDJJUNGmpTKfSROo3Y+1JuotzSNKGVXuBVECBVGStJCOijiStS0tlOpUmkvS5Q786yvy1S0hSkaSlMp1KE6nfjLUn6S7OIUkbVu0FUgEFUpG1koyIOpK0Li2V6VSaSNLnltdWGH3rKAs3PkaSiiItlelUmkj9Zqw9SXdxDknasGovkAookIqslWRE1JGkdWmpTKfSRJL+6Pz1y6TtKkurK0hSEaSlMp1KE6nfjLUn6S7OIUkbVu0FUgEFUpG1koyIOpK0Li2V6VSaSNIXta/8liPv/BRJKoK0VKZTaSL1m7H2JN3FOSRpw6q9QCqgQCqyVpIRUUeS1qWlMp1KE0n6S8cvvEXt/QaStNelpTKdShOp34y1J+kuziFJG1btBVIBBVKRtZKMiDqStC4tlelUmkjSl3m+8yozF88gSXtZWirTqTSR+s1Ye5Lu4hyStGHVXiAVUCAVWSvJiKgjSevSUplOpYkkfZWx9iTdxTkkaa9KS2U6lSZSvxlrT9JdnEOSNqzaC6QCCqQiayUZEXUkaV1aKtOpNJGkr7K8tkLanmD+2iUkaS9KS2U6lSZSvxlrT9JdnEOSNqzaC6QCCqQiayUZEXUkaV1aKtOpNJGkr3P++mXSdpWl1RUkaa9JS2U6lSZSvxlrT9JdnEOSNqzaC6QCCqQiayUZEXUkaV1aKtOpNJGkb3J28RxpewJJ2mvSUplOpYnUb8bak3QX55CkDav2AqmAAqnIWklGRB1JWpeWynQqTSTpVpz86G3G330FSdpL0lKZTqWJ1G/G2pN0F+eQpA2r9gKpgAKpyFpJRkQdSVqXlsp0Kk0k6VY933mVmYtnkKS9Ii2V6VSaSP1mrD1Jd3EOSdqwai+QCiiQiqyVZETUkaR1aalMp9JEkm7HWHuS7uIckrQXpKUynUoTqd+MtSfpLs4hSRtW7QVSAQVSkbWSjIg6krQuLZXpVJpI0u1YXlshbU8wf+0SkrTbpaUynUoTqd+MtSfpLs4hSRtW7QVSAQVSkbWSjIg6krQuLZXpVJpI0u06f/0yabvK0uoKkrSbpaUynUoTqd+MtSfpLs4hSRtW7QVSAQVSkbWSjIg6krQuLZXpVJpI0kacXTxH2p5AknaztFSmU2ki9Zux9iTdxTkkacOqvUAqoEAqslaSEVFH/z978A+yx3Xnffj7a+xGwQa72D3NOmCTVLFy2IWbJ7y7Z1KFpDhJINlmsSXSjQbiVAkkMBOQYLdaG87kqUykkCY27GYKCVc6kwRzFwkTyZWEBE6aSQoJJPw0UvWy7Lw863f/JWP9Gel8rgvAIjivHJMAYK0L1y/p1OWzAoAnVXBeOSYBW1MNjcZ5EgCsVu9NQIFMQMn6XSezVgCwCM4rxyQA+CRO53M6f+2iAOBJFJxXjknA1lRDo3GeBACr1XsTUCATULJ+18msFQAsgvPKMQkAPqlqaDTOkwDgSROcV45JwNZUQ6NxngQAq9V7E1AgE1CyftfJrBUALILzyjEJAD6pu/ePFIYzunLrhgDgSRKcV45JwNZUQ6NxngQAq9V7E1AgE1CyftfJrBUALILzyjEJAB6Eq7dvKgy17tw7EgA8KYLzyjEJ2JpqaDTOkwBgtXpvAgpkAkrW7zqZtQKARXBeOSYBwIPyi/m3CsMZAcCTIjivHJOAramGRuM8CQBWq/cmoEAmoGT9rpNZKwBYBOeVYxIAPEgXrl/SqctnBQBPguC8ckwCtqYaGo3zJABYrd6bgAKZgJL1u05mrQBgEZxXjkkA8KCdzud0/tpFAcDWBeeVYxKwNdXQaJwnAcBq9d4EFMgElKzfdTJrBQCL4LxyTAKAh+Fr731PP//wlwKALQvOK8ckYGuqodE4TwKA1eq9CSiQCShZv+tk1goAFsF55ZgEAA/D3ftHCsMZXbl1QwCwVcF55ZgEbE01NBrnSQCwWr03AQUyASXrd53MWgHAIjivHJMA4GH5/Ud/1Ml3X9Ode0cCgC0KzivHJGBrqqHROE8CgNXqvQkokAkoWb/rZNYKABbBeeWYBAAP09XbN3XyndcEAFsUnFeOScDWVEOjcZ4EAKvVexNQIBNQsn7XyawVACyC88oxCQAetgvXL+nU5bMCgK0JzivHJGBrqqHROE8CgNXqvQkokAkoWb/rZNYKABbBeeWYBACPwnfef0tvfvAzAcCWBOeVYxKwNdXQaJwnAcBq9d4EFMgElKzfdTJrBQCL4LxyTAKAR+Vr731PP//wlwKArQjOK8ckYGuqodE4TwKA1eq9CSiQCShZv+tk1goAFsF55ZgEAI/K3ftHCsMZXbl1QwCwBcF55ZgEbE01NBrnSQCwWr03AQUyASXrd53MWgHAIjivHJMA4FH6/Ud/1Ml3X9Ode0cCgMctOK8ck4CtqYZG4zwJAFar9yagQCagZP2uk1krAFgE55VjEgA8aldv39TJd14TADxuwXnlmARsTTU0GudJALBavTcBBTIBJet3ncxaAcAiOK8ckwDgcbhw/ZJOXT4rAHicgvPKMQnYmmpoNM6TAGC1em8CCmQCStbvOpm1AoBFcF45JgHA4/Kd99/Smx/8TADwuATnlWMSsDXV0GicJwHAavXeBBTIBJSs33UyawUAi+C8ckwCgMfpa+99Tz//8JcCgMchOK8ck4CtqYZG4zwJAFar9yagQCagZP2uk1krAFgE55VjEgA8TnfvHykMZ3Tl1g0BwKMWnFeOScDWVEOjcZ4EAKvVexNQIBNQsn7XyawVACyC88oxCQAet99/9EedfPc13bl3JAB4lILzyjEJ2JpqaDTOkwBgtXpvAgpkAkrW7zqZtQKARXBeOSYBwBZcvX1TJ995TQDwKAXnlWMSsDXV0GicJwHAavXeBBTIBJSs33UyawUAi+C8ckwCgK24cP2STl0+KwB4VILzyjEJ2JpqaDTOkwBgtXpvAgpkAkrW7zqZtQKARXBeOSYBwJZ85/239OYHPxMAPArBeeWYBGxNNTQa50kAsFq9NwEFMgEl63edzFoBwCI4rxyTAGBrTudzOn/togDgYQvOK8ckYGuqodE4TwKA1eq9CSiQCShZv+tk1goAFsF55ZgEAFtz9/6RwnBGV27dEAA8TMF55ZgEbE01NBrnSQCwWr03AQUyASXrd53MWgHAIjivHJMAYIvu3j/SSz/9uu7cOxIAPCzBeeWYBGxNNTQa50kAsFq9NwEFMgEl63edzFoBwCI4rxyTAGCrrt6+qTDUunPvSADwMATnlWMSsDXV0GicJwHAavXeBBTIBJSs33UyawUAi+C8ckwCgC27cP2STl0+KwB4GILzyjEJ2JpqaDTOkwBgtXpvAgpkAkrW7zqZtQKARXBeOSYBwNb98Ddvq/v12wKABy04rxyTgK2phkbjPAkAVqv3JqBAJqBk/a6TWSsAWATnlWMSADwJTudzOn/togDgQQrOK8ckYGuqodE4TwKA1eq9CSiQCShZv+tk1goAFsF55ZgEAE+Cu/ePFIYzunLrhgDgQQnOK8ckYGuqodE4TwKA1eq9CSiQCShZv+tk1goAFsF55ZgEAE+Ku/eP9NJPv647944EAA9CcF45JgFbUw2NxnkSAKxW701AgUxAyfpdJ7NWALAIzivHJAB4kly9fVNhqHXn3pEA4JMKzivHJGBrqqHROE8CgNXqvQkokAkoWb/rZNYKABbBeeWYBABPmgvXL+nU5bMCgE8qOK8ck4CtqYZG4zwJAFar9yagQCagZP2uk1krAFgE55VjEgA8iX74m7fV/fptAcAnEZxXjknA1lRDo3GeBACr1XsTUCATULJ+18msFQAsgvPKMQkAnlSn8zmdv3ZRALBWcF45JgFbUw2NxnkSAKxW701AgUxAyfpdJ7NWALAIzivHJAB4Ut29f6QwnNGVWzcEAGsE55VjErA11dBonCcBwGr13gQUyASUrN91MmsFAIvgvHJMAoAn2d37R3rpp1/XnXtHAoA/V3BeOSYBW1MNjcZ5EgCsVu9NQIFMQMn6XSezVgCwCM4rxyQAeNJdvX1TYah1596RAODPEZxXjknA1lRDo3GeBACr1XsTUCATULJ+18msFQAsgvPKMQkAngYXrl/SqctnBQB/juC8ckwCtqYaGo3zJABYrd6bgAKZgJL1u05mrQBgEZxXjkkA8LT44W/eVvfrtwUAf6rgvHJMAramGhqN8yQAWK3em4ACmYCS9btOZq0AYBGcV45JAPA0OZ3P6fy1iwKAP0VwXjkmAVtTDY3GeRIArFbvTUCBTEDJ+l0ns1YAsAjOK8ckAHjafP7d13Xl1g0BwP8mOK8ck4CtqYZG4zwJAFar9yagQCagZP2uk1krAFgE55VjEgA8be7eP9LJd17X7z76gwDgfxKcV45JwNZUQ6NxngQAq9V7E1AgE1CyftfJrBUALILzyjEJAJ5GV2/fVBhq3bl3JAD47wTnlWMSsDXV0GicJwHAavXeBBTIBJSs33UyawUAi+C8ckwCgKfV8OGv9NX3visA+O8E55VjErA11dBonCcBwGr13gQUyASUrN91MmsFAIvgvHJMAoCn2VsfvKM33n9TAPBfCc4rxyRga6qh0ThPAoDV6r0JKJAJKFm/62TWCgAWwXnlmAQAT7vT+ZzOX7soAPj/BeeVYxKwNdXQaJwnAcBq9d4EFMgElKzfdTJrBQCL4LxyTAKAEnz+3dd15dYNAcB/FJxXjknA1lRDo3GeBACr1XsTUCATULJ+18msFQAsgvPKMQkASnD3/pFOvvO6fvfRHwQA/09wXjkmAVtTDY3GeRIArFbvTUCBTEDJ+l0ns1YAsAjOK8ckACjF1ds3FYZad+4dCQD+TXBeOSYBW1MNjcZ5EgCsVu9NQIFMQMn6XSezVgCwCM4rxyQAKMnw4a/01fe+KwD4N8F55ZgEbE01NBrnSQCwWr03AQUyASXrd53MWgHAIjivHJMAoDRvffCO3nj/TQFAcF45JgFbUw2NxnkSAKxW701AgUxAyfpdJ7NWALAIzivHJAAo0el8TuevXRSAsgXnlWMSsDXV0GicJwHAavXeBBTIBJSs33UyawUAi+C8ckwCgFJ9/t3XdeXWDQEoV3BeOSYBW1MNjcZ5EgCsVu9NQIFMQMn6XSezVgCwCM4rxyQAKNXd+0c6+c7r+t1HfxCAMgXnlWMSsDXV0GicJwHAavXeBBTIBJSs33UyawUAi+C8ckwCgJJdvX1TYah1596RAJQnOK8ck4CtqYZG4zwJAFar9yagQCagZP2uk1krAFgE55VjEgCUbvjwV/rqe98VgPIE55VjErA11dBonCcBwGr13gQUyASUrN91MmsFAIvgvHJMAgBIb33wjt54/00BKEtwXjkmAVtTDY3GeRIArFbvTUCBTEDJ+l0ns1YAsAjOK8ckAMC/O53P6fy1iwJQjuC8ckwCtqYaGo3zJABYrd6bgAKZgJL1u05mrQBgEZxXjkkAgGPV0GicJwEoQ3BeOSYBW1MNjcZ5EgCsVu9NQIFMQMn6XSezVgCwCM4rxyQAwLG7948UhjO6cuuGADz9gvPKMQnYmmpoNM6TAGC1em8CCmQCStbvOpm1AoBFcF45JgEAPu7q7ZsKQ607944E4OkWnFeOScDWVEOjcZ4EAKvVexNQIBNQsn7XyawVACyC88oxCQDwn/1i/q3CcEYAnm7BeeWYBGxNNTQa50kAsFq9NwEFMgEl63edzFoBwCI4rxyTAAD/tQvXL+nU5bMC8PQKzivHJGBrqqHROE8CgNXqvQkokAkoWb/rZNYKABbBeeWYBAD4753O53T+2kUBeDoF55VjErA11dBonCcBwGr13gQUyASUrN91MmsFAIvgvHJMAgD8z6qh0ThPAvD0Cc4rxyRga6qh0ThPAoDV6r0JKJAJKFm/62TWCgAWwXnlmAQA+J/dvX+kMJzRlVs3BODpEpxXjknA1lRDo3GeBACr1XsTUCATULJ+18msFQAsgvPKMQkA8L+7evumwlDrzr0jAXh6BOeVYxKwNdXQaJwnAcBq9d4EFMgElKzfdTJrBQCL4LxyTAIA/Gl+Mf9WYTgjAE+P4LxyTAK2phoajfMkAFit3puAApmAkvW7TmatAGARnFeOSQCAP92F65d06vJZAXg6BOeVYxKwNdXQaJwnAcBq9d4EFMgElKzfdTJrBQCL4LxyTAIA/HlO53M6f+2iADz5gvPKMQnYmmpoNM6TAGC1em8CCmQCStbvOpm1AoBFcF45JgEA/nzV0GicJwF4sgXnlWMSsDXV0GicJwHAavXeBBTIBJSs33UyawUAi+C8ckwCAPz57t4/UhjO6MqtGwLw5ArOK8ckYGuqodE4TwKA1eq9CSiQCShZv+tk1goAFsF55ZgEAFjn6u2bCkOtO/eOBODJFJxXjknA1lRDo3GeBACr1XsTUCATULJ+18msFQAsgvPKMQkAsN4v5t8qDGcE4MkUnFeOScDWVEOjcZ4EAKvVexNQIBNQsn7XyawVACyC88oxCQDwyVy4fkmnLp8VgCdPcF45JgFbUw2NxnkSAKxW701AgUxAyfpdJ7NWALAIzivHJADAJ3c6n9P5axcF4MkSnFeOScDWVEOjcZ4EAKvVexNQIBNQsn7XyawVACyC88oxCQDwYFRDo3GeBODJEZxXjknA1lRDo3GeBACr1XsTUCATULJ+18msFQAsgvPKMQkA8GDcvX+kMJzRlVs3BODJEJxXjknA1lRDo3GeBACr1XsTUCATULJ+18msFQAsgvPKMQkA8OD8/qM/6uS7r+nOvSMB2L7gvHJMAramGhqN8yQAWK3em4ACmYCS9btOZq0AYBGcV45JAIAH6+rtmzr5zmsCsH3BeeWYBGxNNTQa50kAsFq9NwEFMgEl63edzFoBwCI4rxyTAAAP3oXrl3Tq8lkB2LbgvHJMAramGhqN8yQAWK3em4ACmYCS9btOZq0AYBGcV45JAICH4zvvv6U3P/iZAGxXcF45JgFbUw2NxnkSAKxW701AgUxAyfpdJ7NWALAIzivHJADAw/O1976nn3/4SwHYpuC8ckwCtqYaGo3zJABYrd6bgAKZgJL1u05mrQBgEZxXjkkAgIfn7v0jheGMrty6IQDbE5xXjknA1lRDo3GeBACr1XsTUCATULJ+18msFQAsgvPKMQkA8HD9/qM/6uS7r+nOvSMB2JbgvHJMAramGhqN8yQAWK3em4ACmYCS9btOZq0AYBGcV45JAICH7+rtmzr5zmsCsC3BeeWYBGxNNTQa50kAsFq9NwEFMgEl63edzFoBwCI4rxyTAACPxoXrl3Tq8lkB2I7gvHJMAramGhqN8yQAWK3em4ACmYCS9btOZq0AYBGcV45JAIBH5zvvv6U3P/iZAGxDcF45JgFbUw2NxnkSAKxW701AgUxAyfpdJ7NWALAIzivHJADAo/W1976nn3/4SwF4/ILzyjEJ2JpqaDTOkwBgtXpvAgpkAkrW7zqZtQKARXBeOSYBAB6tu/ePFIYzunLrhgA8XsF55ZgEbE01NBrnSQCwWr03AQUyASXrd53MWgHAIjivHJMAAI/e7z/6o06++5ru3DsSgMcnOK8ck4CtqYZG4zwJAFar9yagQCagZP2uk1krAFgE55VjEgDg8bh6+6ZOvvOaADw+wXnlmARsTTU0GudJALBavTcBBTIBJet3ncxaAcAiOK8ckwAAj8+F65d06vJZAXg8gvPKMQnYmmpoNM6TAGC1em8CCmQCStbvOpm1AoBFcF45JgEAHq/vvP+W3vzgZwLw6AXnlWMSsDXV0GicJwHAavXeBBTIBJSs33UyawUAi+C8ckwCADx+X3vve/r5h78UgEfuOQD4AAAgAElEQVQrOK8ck4CtqYZG4zwJAFar9yagQCagZP2uk1krAFgE55VjEgDg8bt7/0hhOKMrt24IwKMTnFeOScDWVEOjcZ4EAKvVexNQIBNQsn7XyawVACyC88oxCQCwDXfvH+mln35dd+4dCcCjEZxXjknA1lRDo3GeBACr1XsTUCATULJ+18msFQAsgvPKMQkAsB1Xb99UGGrduXckAA9fcF45JgFbUw2NxnkSAKxW701AgUxAyfpdJ7NWALAIzivHJADAtly4fkmnLp8VgIcvOK8ck4CtqYZG4zwJAFar9yagQCagZP2uk1krAFgE55VjEgBge374m7fV/fptAXi4gvPKMQnYmmpoNM6TAGC1em8CCmQCStbvOpm1AoBFcF45JgEAtul0Pqfz1y4KwMMTnFeOScDWVEOjcZ4EAKvVexNQIBNQsn7XyawVACyC88oxCQCwTXfvHykMZ3Tl1g0BeDiC88oxCdiaamg0zpMAYLV6bwIKZAJK1u86mbUCgEVwXjkmAQC26+79I73006/rzr0jAXjwgvPKMQnYmmpoNM6TAGC1em8CCmQCStbvOpm1AoBFcF45JgEAtu3q7ZsKQ607944E4MEKzivHJGBrqqHROE8CgNXqvQkokAkoWb/rZNYKABbBeeWYBGzN7z/6o/7qU38hAMcuXL+kU5fPCsCDFZxXjknA1lRDo3GeBACr1XsTUCATULJ+18msFQAsgvPKMQnYms+/+7rG2Ou5Z04IwLEf/uZtdb9+WwAenOC8ckwCtqYaGo3zJABYrd6bgAKZgJL1u05mrQBgEZxXjknA1tjhgb766b/Vv37pHwXg407nczp/7aIAPBjBeeWYBGxNNTQa50kAsFq9NwEFMgEl63edzFoBwCI4rxyTgK2xwwP9mzc+9/f65y98WwCO3b1/pDCc0ZVbNwTgkwvOK8ckYGuqodE4TwKA1eq9CSiQCShZv+tk1goAFsF55ZgEbI0dHuj/Of/FH+j1z3xZAI7dvX+kl376dd25dyQAn0xwXjkmAVtTDY3GeRIArFbvTUCBTEDJ+l0ns1YAsAjOK8ckYGvs8ED/0ZVv/kSvvvCyABy7evumwlDrzr0jAVgvOK8ck4CtqYZG4zwJAFar9yagQCagZP2uk1krAFgE55VjErA1dnig/+j5Z0/oyjd+or/61F8IwLEL1y/p1OWzArBecF45JgFbUw2NxnkSAKxW701AgUxAyfpdJ7NWALAIzivHJGBr7PBA/7+TL76iMfZ67pkTAnDsh795W92v3xaAdYLzyjEJ2JpqaDTOkwBgtXpvAgpkAkrW7zqZtQKARXBeOSYBW2OHB/qvfPXTf6t//dI/CsDHnc7ndP7aRQH48wXnlWMSsDXV0GicJwHAavXeBBTIBJSs33UyawUAi+C8ckwCtsYOD/TfeeNzf69//sK3BeDY3ftHCsMZXbl1QwD+PMF55ZgEbE01NBrnSQCwWr03AQUyASXrd53MWgHAIjivHJOArbHDA/1Pzn/xB3r9M18WgGN37x/p5Duv63cf/UEA/nTBeeWYBGxNNTQa50kAsFq9NwEFMgEl63edzFoBwCI4rxyTgK2xwwP9b6588yd69YWXBeDY1ds3FYZad+4dCcCfJjivHJOAramGRuM8CQBWq/cmoEAmoGT9rpNZKwBYBOeVYxKwNXZ4oP/N88+e0JVv/ER/9am/EIBjw4e/0lff+64A/GmC88oxCdiaamg0zpMAYLV6bwIKZAJK1u86mbUCgEVwXjkmAVtjhwf6U5x88RWNsddzz5wQgGNvffCO3nj/TQH43wXnlWMSsDXV0GicJwHAavXeBBTIBJSs33UyawUAi+C8ckwCtsYOD/SnCs4rxyQAH3c6n9P5axcF4H8WnFeOScDWVEOjcZ4EAKvVexNQIBNQsn7XyawVACyC88oxCdgaOzzQn+PUZ7+iH1ffF4CP+/y7r+vKrRsC8N8LzivHJGBrqqHROE8CgNXqvQkokAkoWb/rZNYKABbBeeWYBGyNHR7oz3X+iz/Q65/5sgAcu3v/SCffeV2/++gPAvBfC84rxyRga6qh0ThPAoDV6r0JKJAJKFm/62TWCgAWwXnlmARsjR0eaI0x9vo793kBOHb19k2Fodade0cC8J8F55VjErA11dBonCcBwGr13gQUyASUrN91MmsFAIvgvHJMArbGDg+0xvPPntAYf6RXX3hZAI4NH/5KX33vuwLwnwXnlWMSsDXV0GicJwHAavXeBBTIBJSs33UyawUAi+C8ckwCtsYOD7TWyRdf0Rh7PffMCQE49tYH7+iN998UgI8LzivHJGBrqqHROE8CgNXqvQkokAkoWb/rZNYKABbBeeWYBGyNHR7okwjOK8ckAB93Op/T+WsXBeBYcF45JgFbUw2NxnkSAKxW701AgUxAyfpdJ7NWALAIzivHJGBr7PBAn9Spz35FP66+LwAf9/l3X9eVWzcE4N8F55VjErA11dBonCcBwGr13gQUyASUrN91MmsFAIvgvHJMArbGDg/0IJz/4g/0+me+LADH7t4/0sl3XtfvPvqDAEjBeeWYBGxNNTQa50kAsFq9NwEFMgEl63edzFoBwCI4rxyTgK2xwwM9KGPs9Xfu8wJw7OrtmwpDrTv3jgSULjivHJOAramGRuM8CQBWq/cmoEAmoGT9rpNZKwBYBOeVYxKwNXZ4oAfl+WdPaIw/0qsvvCwAx4YPf6WvvvddAaULzivHJGBrqqHROE8CgNXqvQkokAkoWb/rZNYKABbBeeWYBGyNHR7oQTr54isaY6/nnjkhAMfe+uAdvfH+mwJKFpxXjknA1lRDo3GeBACr1XsTUCATULJ+18msFQAsgvPKMQnYGjs80IMWnFeOSQA+7nQ+p/PXLgooVXBeOSYBW1MNjcZ5EgCsVu9NQIFMQMn6XSezVgCwCM4rxyRga+zwQA/Dqc9+RT+uvi8AH/f5d1/XlVs3BJQoOK8ck4CtqYZG4zwJAFar9yagQCagZP2uk1krAFgE55VjErA1dnigh+X8F3+g1z/zZQE4dvf+kcJwRldu3RBQmuC8ckwCtqYaGo3zJABYrd6bgAKZgJL1u05mrQBgEZxXjknA1tjhgR6mMfb6O/d5ATh29fZNhaHWnXtHAkoSnFeOScDWVEOjcZ4EAKvVexNQIBNQsn7XyawVACyC88oxCdgaOzzQw/T8syc0xh/p1RdeFoBjv5h/qzCcEVCS4LxyTAK2phoajfMkAFit3puAApmAkvW7TmatAGARnFeOScDW2OGBHraTL76iMfZ67pkTAnDswvVLOnX5rIBSBOeVYxKwNdXQaJwnAcBq9d4EFMgElKzfdTJrBQCL4LxyTAK2xg4P9CicfPEV/fYbFwTg407nczp/7aKAEgTnlWMSsDXV0GicJwHAavXeBBTIBJSs33UyawUAi+C8ckwCtsYOD/SonPrsV/Tj6vsC8HHV0GicJwFPu+C8ckwCtqYaGo3zJABYrd6bgAKZgJL1u05mrQBgEZxXjknA1tjhgR6lN7/whr79uW8KwLG7948UhjO6cuuGgKdZcF45JgFbUw2NxnkSAKxW701AgUxAyfpdJ7NWALAIzivHJGBr7PBAj9rPv/RPip/+PwJw7OrtmwpDrTv3jgQ8rYLzyjEJ2JpqaDTOkwBgtXpvAgpkAkrW7zqZtQKARXBeOSYBW2OHB3rUnn/2hMb4I736wssCcOwX828VhjMCnlbBeeWYBGxNNTQa50kAsFq9NwEFMgEl63edzFoBwCI4rxyTgK2xwwM9Di996i915ZsX9NwzJwTg2IXrl3Tq8lkBT6PgvHJMAramGhqN8yQAWK3em4ACmYCS9btOZq0AYBGcV45JwNbY4YEel5MvvqLffuOCAHzc6XxO569dFPC0Cc4rxyRga6qh0ThPAoDV6r0JKJAJKFm/62TWCgAWwXnlmARsjR0e6HE69dmv6MfV9wXg46qh0ThPAp4mwXnlmARsTTU0GudJALBavTcBBTIBJet3ncxaAcAiOK8ck4CtscMDPW5vfuENfftz3xSAY3fvHykMZ3Tl1g0BT4vgvHJMAramGhqN8yQAWK3em4ACmYCS9btOZq0AYBGcV45JwNbY4YG24Odf+ifFT/8fATh29fZNhaHWnXtHAp4GwXnlmARsTTU0GudJALBavTcBBTIBJet3ncxaAcAiOK8ck4CtscMDbcHzz57QGH+kV194WQCO/WL+rcJwRsDTIDivHJOAramGRuM8CQBWq/cmoEAmoGT9rpNZKwBYBOeVYxKwNXZ4oK146VN/qSvfvKDnnjkhAMcuXL+kU5fPCnjSBeeVYxKwNdXQaJwnAcBq9d4EFMgElKzfdTJrBQCL4LxyTAK2xg4PtCUnX3xFv/3GBQH4uNP5nM5fuyjgSRacV45JwNZUQ6NxngQAq9V7E1AgE1CyftfJrBUALILzyjEJ2Bo7PNDWnPrsV/Tj6vsC8HHV0GicJwFPquC8ckwCtqYaGo3zJABYrd6bgAKZgJL1u05mrQBgEZxXjknA1tjhgbbozS+8oW9/7psCcOzu/SOF4Yyu3Loh4EkUnFeOScDWVEOjcZ4EAKvVexNQIBNQsn7XyawVACyC88oxCdgaOzzQVv38S/+k+On/IwDHfv/RH3Xy3dd0596RgCdNcF45JgFbUw2NxnkSAKxW701AgUxAyfpdJ7NWALAIzivHJGBr7PBAW/X8syc0xh/p1RdeFoBjV2/f1Ml3XhPwpAnOK8ckYGuqodE4TwKA1eq9CSiQCShZv+tk1goAFsF55ZgEbI0dHmjLXvrUX+rKNy/ouWdOCMCxC9cv6dTlswKeJMF55ZgEbE01NBrnSQCwWr03AQUyASXrd53MWgHAIjivHJOArbHDA23dyRdf0Rh7PffMCQE49p3339KbH/xMwJMiOK8ck4CtqYZG4zwJAFar9yagQCagZP2uk1krAFgE55VjErA1dnigJ8Gpz35FP66+LwAf97X3vqeff/hLAU+C4LxyTAK2phoajfMkAFit3puAApmAkvW7TmatAGARnFeOScDW2OGBnhTd33xL7V9/SwCO3b1/pDCc0ZVbNwRsXXBeOSYBW1MNjcZ5EgCsVu9NQIFMQMn6XSezVgCwCM4rxyRga+zwQE+S81/8gV7/zJcF4NjvP/qjTr77mu7cOxKwZcF55ZgEbE01NBrnSQCwWr03AQUyASXrd53MWgHAIjivHJOArbHDAz1Jnn/2hMb4I736wssCcOzq7Zs6+c5rArYsOK8ck4CtqYZG4zwJAFar9yagQCagZP2uk1krAFgE55VjErA1dnigJ83zz57Q7/7hX/TcMycE4NiF65d06vJZAVsVnFeOScDWVEOjcZ4EAKvVexNQIBNQsn7XyawVACyC88oxCdgaOzzQk+jki69ojL2ee+aEABz7zvtv6c0PfiZgi4LzyjEJ2JpqaDTOkwBgtXpvAgpkAkrW7zqZtQKARXBeOSYBW2OHB3pSnfrsV/Tj6vsC8HFfe+97+vmHvxSwNcF55ZgEbE01NBrnSQCwWr03AQUyASXrd53MWgHAIjivHJOArbHDAz3Jur/5ltq//pYAHLt7/0hhOKMrt24I2JLgvHJMAramGhqN8yQAWK3em4ACmYCS9btOZq0AYBGcV45JwNbY4YGedOe/+AO9/pkvC8Cx33/0R5189zXduXckYCuC88oxCdiaamg0zpMAYLV6bwIKZAJK1u86mbUCgEVwXjkmAVtjhwd60j3/7AmN8Ud69YWXBeDY1ds3dfKd1wRsRXBeOSYBW1MNjcZ5EgCsVu9NQIFMQMn6XSezVgCwCM4rxyRga+zwQE+D5589od/9w7/ouWdOCMCxC9cv6dTlswK2IDivHJOAramGRuM8CQBWq/cmoEAmoGT9rpNZKwBYBOeVYxKwNXZ4oKfFyRdf0Rh7PffMCQE49p3339KbH/xMwOMWnFeOScDWVEOjcZ4EAKvVexNQIBNQsn7XyawVACyC88oxCdgaOzzQ0+TUZ7+iH1ffF4CP+9p739PPP/ylgMcpOK8ck4CtqYZG4zwJAFar9yagQCagZP2uk1krAFgE55VjErA1dnigp033N99S+9ffEoBjd+8fKQxndOXWDQGPS3BeOSYBW1MNjcZ5EgCsVu9NQIFMQMn6XSezVgCwCM4rxyRga+zwQE+j81/8gV7/zJcF4Njd+0d66adf1517RwIeh+C8ckwCtqYaGo3zJABYrd6bgAKZgJL1u05mrQBgEZxXjknA1tjhgZ5Gzz97QmP8kV594WUBOHb19k2Fodade0cCHrXgvHJMAramGhqN8yQAWK3em4ACmYCS9btOZq0AYBGcV45JwNbY4YGeVs8/e0K/+4d/0XPPnBCAYxeuX9Kpy2cFPGrBeeWYBGxNNTQa50kAsFq9NwEFMgEl63edzFoBwCI4rxyTgK2xwwM9zU6++IrG2Ou5Z04IwLEf/uZtdb9+W8CjFJxXjknA1lRDo3GeBACr1XsTUCATULJ+18msFQAsgvPKMQnYGjs80NPu1Ge/oh9X3xeAjzudz+n8tYsCHpXgvHJMAramGhqN8yQAWK3em4ACmYCS9btOZq0AYBGcV45JwNbY4YFK8Mbn/l7//IVvC8Cxu/ePFIYzunLrhoBHITivHJOAramGRuM8CQBWq/cmoEAmoGT9rpNZKwBYBOeVYxKwNXZ4oFKc/+IP9PpnviwAx+7eP9JLP/267tw7EvCwBeeVYxKwNdXQaJwnAcBq9d4EFMgElKzfdTJrBQCL4LxyTAK2xg4PVJIr3/yJXn3hZQE4dvX2TYWh1p17RwIepuC8ckwCtqYaGo3zJABYrd6bgAKZgJL1u05mrQBgEZxXjknA1tjhgUry/LMndOUbP9FffeovBODYheuXdOryWQEPU3BeOSYBW1MNjcZ5EgCsVu9NQIFMQMn6XSezVgCwCM4rxyRga+zwQKU5+eIrGmOv5545IQDHfvibt9X9+m0BD0twXjkmAVtTDY3GeRIArFbvTUCBTEDJ+l0ns1YAsAjOK8ckYGvs8EAl+uqn/1b/+qV/FICPO53P6fy1iwIehuC8ckwCtqYaGo3zJABYrd6bgAKZgJL1u05mrQBgEZxXjknA1tjhgUr1xuf+Xv/8hW8LwLG7948UhjO6cuuGgActOK8ck4CtqYZG4zwJAFar9yagQCagZP2uk1krAFgE55VjErA1dnigkp3/4g/0+me+LADH7t4/0ks//bru3DsS8CAF55VjErA11dBonCcBwGr13gQUyASUrN91MmsFAIvgvHJMArbGDg9Uuivf/IlefeFlATh29fZNhaHWnXtHAh6U4LxyTAK2phoajfMkAFit3puAApmAkvW7TmatAGARnFeOScDW2OGBSvf8syd05Rs/0V996i8E4NiF65d06vJZAQ9KcF45JgFbUw2NxnkSAKxW701AgUxAyfpdJ7NWALAIzivHJGBr7PBAkE6++IrG2Ou5Z04IwLEf/uZtdb9+W8CDEJxXjknA1lRDo3GeBACr1XsTUCATULJ+18msFQAsgvPKMQnYGjs8EP7dVz/9t/rXL/2jAHzc6XxO569dFPBJBeeVYxKwNdXQaJwnAcBq9d4EFMgElKzfdTJrBQCL4LxyTAK2xg4PhGNvfO7v9c9f+LYAHLt7/0hhOKMrt24I+CSC88oxCdiaamg0zpMAYLV6bwIKZAJK1u86mbUCgEVwXjkmAVtjhwfCx53/4g/0+me+LADH7t4/0ks//bru3DsSsFZwXjkmAVtTDY3GeRIArFbvTUCBTEDJ+l0ns1YAsAjOK8ckYGvs8ED4z6588yd69YWXBeDY1ds3FYZad+4dCVgjOK8ck4CtqYZG4zwJAFar9yagQCagZP2uk1krAFgE55VjErA1dngg/GfPP3tCV77xE/3Vp/5CAI4NH/5KX33vuwLWCM4rxyRga6qh0ThPAoDV6r0JKJAJKFm/62TWCgAWwXnlmARsjR0eCP+1ky++ojH2eu6ZEwJw7K0P3tEb778p4M8VnFeOScDWVEOjcZ4EAKvVexNQIBNQsn7XyawVACyC88oxCdgaOzwQ/ntf/fTf6l+/9I8C8HGn8zmdv3ZRwJ8jOK8ck4CtqYZG4zwJAFar9yagQCagZP2uk1krAFgE55VjErA1/5c9+Am1o77/P/56b5LNlQSSRTubKiSYlbkOLRyOtP2MKzGLjy2YboqJuJsMaFctRDhTUGhXVZjJWUkS6aYRWmdhcOVn2iJn0TLeuFIS0G6mXSSQ4N0kqx9fvufL+d7vr390NMkn+TwfD1vOhX/v9LETOl+cFYC9nnznlHauXxXwZbksV/CNgNgUXaV+HAQAk5UrE5AgE5CydlbLbCEAWHNZruAbAbGx5Vz4zy48/apOPf6sAGzcurOr7Uun9PkXfxfwZbgsV/CNgNgUXaV+HAQAk5UrE5AgE5CydlbLbCEAWHNZruAbAbGx5Vz4cnrf6ofZkwKwceXGNbmu1M3buwL+E5flCr4REJuiq9SPgwBgsnJlAhJkAlLWzmqZLQQAay7LFXwjIDa2nAtfzsH9W+r9OR0/dEQANrrP/qzn3v+5gP/EZbmCbwTEpugq9eMgAJisXJmABJmAlLWzWmYLAcCay3IF3wiIjS3nwpe3ffioet/qwL4tAdh48+NLeuXDNwT8Oy7LFXwjIDZFV6kfBwHAZOXKBCTIBKSsndUyWwgA1lyWK/hGQGxsORe+GpflCr4RgL1eDK/rwifvCfhXXJYr+EZAbIquUj8OAoDJypUJSJAJSFk7q2W2EACsuSxX8I2A2NhyLnx1p4+d0PnirADs9eQ7p7Rz/aqAf8ZluYJvBMSm6Cr14yAAmKxcmYAEmYCUtbNaZgsBwJrLcgXfCIiNLefCNBeeflWnHn9WADZu3dnV9qVT+vyLvwv4v1yWK/hGQGyKrlI/DgKAycqVCUiQCUhZO6tlthAArLksV/CNgNjYci5M1/tWP8yeFICNKzeuyXWlbt7eFfC/uSxX8I2A2BRdpX4cBACTlSsTkCATkLJ2VstsIQBYc1mu4BsBsbHlXJju4P4t9f6cjh86IgAb3Wd/1nPv/1zA/+ayXME3AmJTdJX6cRAATFauTECCTEDK2lkts4UAYM1luYJvBMTGlnPh69k+fFS9b3Vg35YAbLz58SW98uEbAv6Hy3IF3wiITdFV6sdBADBZuTIBCTIBKWtntcwWAoA1l+UKvhEQG1vOha/PZbmCbwRgrxfD67rwyXsC/ovLcgXfCIhN0VXqx0EAMFm5MgEJMgEpa2e1zBYCgDWX5Qq+ERAbW86Fb8bpYyd0vjgrAHs9+c4p7Vy/KsBluYJvBMSm6Cr14yAAmKxcmYAEmYCUtbNaZgsBwJrLcgXfCIiNLefCN+fC06/q1OPPCsDGrTu72r50Sp9/8XchbS7LFXwjIDZFV6kfBwHAZOXKBCTIBKSsndUyWwgA1lyWK/hGQGxsORe+Wb1v9cPsSQHYuHLjmlxX6ubtXSFdLssVfCMgNkVXqR8HAcBk5coEJMgEpKyd1TJbCADWXJYr+EZAbGw5F75ZB/dvqffndPzQEQHY+OP4kVx3RkiXy3IF3wiITdFV6sdBADBZuTIBCTIBKWtntcwWAoA1l+UKvhEQG1vOhW/e9uGj6n2rA/u2BGDj4qeXdfqD14Q0uSxX8I2A2BRdpX4cBACTlSsTkCATkLJ2VstsIQBYc1mu4BsBsbHlXLg7XJYr+EYA9noxvK4Ln7wnpMdluYJvBMSm6Cr14yAAmKxcmYAEmYCUtbNaZgsBwJrLcgXfCIiNLefC3XP62AmdL84KwF5FV6kfByEtLssVfCMgNkVXqR8HAcBk5coEJMgEpKyd1TJbCADWXJYr+EZAbGw5F+6uN556RS8/cVIANm7d2ZXrzmjn+lUhHS7LFXwjIDZFV6kfBwHAZOXKBCTIBKSsndUyWwgA1lyWK/hGQGxsORfuvnef+bX8Y98XgI0rN67JdaVu3t4V0uCyXME3AmJTdJX6cRAATFauTECCTEDK2lkts4UAYM1luYJvBMTGlnPh7ju4f0u9P6fjh44IwMYfx4/kujNCGlyWK/hGQGyKrlI/DgKAycqVCUiQCUhZO6tlthAArLksV/CNgNjYci7cG48+8m3tnLyoA/u2BGDj4qeXdfqD14SHn8tyBd8IiE3RVerHQQAwWbkyAQkyASlrZ7XMFgKANZflCr4REBtbzoV7Z/vwUX30/EUB2OvF8LoufPKe8HBzWa7gGwGxKbpK/TgIACYrVyYgQSYgZe2sltlCALDmslzBNwJiY8u5cG+dPnZC54uzArBX0VXqx0F4eLksV/CNgNgUXaV+HAQAk5UrE5AgE5CydlbLbCEAWHNZruAbAbGx5Vy499546hW9/MRJAdi4dWdXrjujnetXhYeTy3IF3wiITdFV6sdBADBZuTIBCTIBKWtntcwWAoA1l+UKvhEQG1vOhfvj3Wd+Lf/Y9wVg48qNa3JdqZu3d4WHj8tyBd8IiE3RVerHQQAwWbkyAQkyASlrZ7XMFgKANZflCr4REBtbzoX74+D+LfX+nI4fOiIAG38cP5LrzggPH5flCr4REJuiq9SPgwBgsnJlAhJkAlLWzmqZLQQAay7LFXwjIDa2nAv3z6OPfFs7Jy/qwL4tAdi4+Ollnf7gNeHh4rJcwTcCYlN0lfpxEABMVq5MQIJMQMraWS2zhQBgzWW5gm8ExMaWc+H+2j58VB89f1EA9noxvK4Ln7wnPDxcliv4RkBsiq5SPw4CgMnKlQlIkAlIWTurZbYQAKy5LFfwjYDY2HIu3H+nj53Q+eKsAOxVdJX6cRAeDi7LFXwjIDZFV6kfBwHAZOXKBCTIBKSsndUyWwgA1lyWK/hGQGxsORfi8MZTr+jlJ04KwMatO7ty3RntXL8qPPhcliv4RkBsiq5SP01eV3MAACAASURBVA4CgMnKlQlIkAlIWTurZbYQAKy5LFfwjYDY2HIuxOPdZ34t/9j3BWDjyo1rcl2pm7d3hQeby3IF3wiITdFV6sdBADBZuTIBCTIBKWtntcwWAoA1l+UKvhEQG1vOhXgc3L+l3p/T8UNHBGDjyo1r2r70gvBgc1mu4BsBsSm6Sv04CAAmK1cmIEEmIGXtrJbZQgCw5rJcwTcCYmPLuRCXRx/5tnZOXtSBfVsCsHHx08s6/cFrwoPLZbmCbwTEpugq9eMgAJisXJmABJmAlLWzWmYLAcCay3IF3wiIjS3nQny2Dx/VR89fFIC9fvbhm3rj498JDyaX5Qq+ERCboqvUj4MAYLJyZQISZAJS1s5qmS0EAGsuyxV8IyA2tpwLcTp97ITOF2cFYK8fvf8LvfvZn4QHj8tyBd8IiE3RVerHQQAwWbkyAQkyASlrZ7XMFgKANZflCr4REBtbzoV41d97SYvvviQAG7fu7Mp1Z7Rz/arwYHFZruAbAbEpukr9OAgAJitXJiBBJiBl7ayW2UIAsOayXME3AmJjy7kQtwtPv6pTjz8rABt/++If2n7nBd28vSs8OFyWK/hGQGyKrlI/DgKAycqVCUiQCUhZO6tlthAArLksV/CNgNjYci7E7eD+LfX+nI4fOiIAG1duXNP2pReEB4fLcgXfCIhN0VXqx0EAMFm5MgEJMgEpa2e1zBYCgDWX5Qq+ERAbW86F+B3cv6XPf/p7Hdi3JQAbFz+9rNMfvCY8GFyWK/hGQGyKrlI/DgKAycqVCUiQCUhZO6tlthAArLksV/CNgNjYci48GLYPH1XvWx3YtyUAGz/78E298fHvhPi5LFfwjYDYFF2lfhwEAJOVKxOQIBOQsnZWy2whAFhzWa7gGwGxseVceHCcPnZC54uzArDXj97/hd797E9C3FyWK/hGQGyKrlI/DgKAycqVCUiQCUhZO6tlthAArLksV/CNgNjYci48WOrvvaTFd18SgI1bd3blujPauX5ViJfLcgXfCIhN0VXqx0EAMFm5MgEJMgEpa2e1zBYCgDWX5Qq+ERAbW86FB8+Fp1/VqcefFYCNv33xD22/84Ju3t4V4uSyXME3AmJTdJX6cRAATFauTECCTEDK2lkts4UAYM1luYJvBMTGlnPhwXNw/5Z6f07HDx0RgI0rN65p+9ILQpxcliv4RkBsiq5SPw4CgMnKlQlIkAlIWTurZbYQAKy5LFfwjYDY2HIuPJgO7t/S5z/9vQ7s2xKAjYufXtbpD14T4uOyXME3AmJTdJX6cRAATFauTECCTEDK2lkts4UAYM1luYJvBMTGlnPhwbV9+Kh63+rAvi0B2PjZh2/qjY9/J8TFZbmCbwTEpugq9eMgAJisXJmABJmAlLWzWmYLAcCay3IF3wiIjS3nwoPt9LETOl+cFYC9fvT+L/TuZ38S4uGyXME3AmJTdJX6cRAATFauTECCTEDK2lkts4UAYM1luYJvBMTGlnPhwVd/7yUtvvuSAGzcurMr153RzvWrQhxcliv4RkBsiq5SPw4CgMnKlQlIkAlIWTurZbYQAKy5LFfwjYDY2HIuPBwuPP2qTj3+rABs/O2Lf2j7nRd08/aucP+5LFfwjYDYFF2lfhwEAJOVKxOQIBOQsnZWy2whAFhzWa7gGwGxseVceDgc3L+l3p/T8UNHBGDjyo1rcl2pm7d3hfvLZbmCbwTEpugq9eMgAJisXJmABJmAlLWzWmYLAcCay3IF3wiIjS3nwsPj4P4tff7T3+vAvi0B2Lj46WWd/uA14f5yWa7gGwGxKbpK/TgIACYrVyYgQSYgZe2sltlCALDmslzBNwJiY8u58HDZPnxUvW91YN+WAGz88q9vqf7LW8L947JcwTcCYlN0lfpxEABMVq5MQIJMQMraWS2zhQBgzWW5gm8ExMaWc+Hhc/rYCZ0vzgrAXi+G13Xhk/eE+8NluYJvBMSm6Cr14yAAmKxcmYAEmYCUtbNaZgsBwJrLcgXfCIiNLefCw+mVJ36i3zz1sgBs3LqzK9ed0c71q8K957JcwTcCYlN0lfpxEABMVq5MQIJMQMraWS2zhQBgzWW5gm8ExMaWc+HhdeHpV3Xq8WcFYOPWnV09+tsf6+btXeHeclmu4BsBsSm6Sv04CAAmK1cmIEEmIGXtrJbZQgCw5rJcwTcCYmPLufBw2zn5to4fOiIAG1duXJPrSt28vSvcOy7LFXwjIDZFV6kfBwHAZOXKBCTIBKSsndUyWwgA1lyWK/hGQGxsORcebgf3b2nn+bf1nUe+JQAbFz+9rNMfvCbcOy7LFXwjIDZFV6kfBwHAZOXKBCTIBKSsndUyWwgA1lyWK/hGQGxsORceftuHj6r3rQ7s2xKAjV/+9S3Vf3lLuDdcliv4RkBsiq5SPw4CgMnKlQlIkAlIWTurZbYQAKy5LFfwjYDY2HIupOG5x36gPzzzKwHY68Xwui588p5w97ksV/CNgNgUXaV+HAQAk5UrE5AgE5CydlbLbCEAWHNZruAbAbGx5VxIxytP/ES/eeplAdi4dWdXrjujnetXhbvLZbmCbwTEpugq9eMgAJisXJmABJmAlLWzWmYLAcCay3IF3wiIjS3nQlouPP2qTj3+rABs3Lqzq0d/+2PdvL0r3D0uyxV8IyA2RVepHwcBwGTlygQkyASkrJ3VMlsIANZcliv4RkBsbDkX0rNz8m0dP3READau3Lgm15W6eXtXuDtcliv4RkBsiq5SPw4CgMnKlQlIkAlIWTurZbYQAKy5LFfwjYDY2HIupOfg/i3tPP+2vvPItwRg4+Knl3X6g9eEu8NluYJvBMSm6Cr14yAAmKxcmYAEmYCUtbNaZgsBwJrLcgXfCIiNLedCmrYPH1XvWx3YtyUAG7/861uq//KW8M1zWa7gGwGxKbpK/TgIACYrVyYgQSYgZe2sltlCALDmslzBNwJiY8u5kK7nHvuB/vDMrwRgrxfD67rwyXvCN8tluYJvBMSm6Cr14yAAmKxcmYAEmYCUtbNaZgsBwJrLcgXfCIiNLedC2l554if6zVMvC8DGrTu7ct0Z7Vy/KnxzXJYr+EZAbIquUj8OAoDJypUJSJAJSFk7q2W2EACsuSxX8I2A2NhyLuDC06/q1OPPCsDGrTu7evS3P9bN27vCN8NluYJvBMSm6Cr14yAAmKxcmYAEmYCUtbNaZgsBwJrLcgXfCIiNLecC/svOybd1/NARAdi4cuOaXFfq5u1d4etzWa7gGwGxKbpK/TgIACYrVyYgQSYgZe2sltlCALDmslzBNwJiY8u5gP9ycP+Wdp5/W9955FsCsNF99mc99/7Pha/PZbmCbwTEpugq9eMgAJisXJmABJmAlLWzWmYLAcCay3IF3wiIjS3nAv7H9uGj6n2rA/u2BGDjzY8v6ZUP3xC+HpflCr4REJuiq9SPgwBgsnJlAhJkAlLWzmqZLQQAay7LFXwjIDa2nAv435577Af6wzO/EoC9Xgyv68In7wnTuSxX8I2A2BRdpX4cBACTlSsTkCATkLJ2VstsIQBYc1mu4BsBsbHlXMD/dfrYCZ0vzgrAXk++c0o7168K07gsV/CNgNgUXaV+HAQAk5UrE5AgE5CydlbLbCEAWHNZruAbAbGx5VzAP3Ph6Vd16vFnBWDj1p1dbV86pc+/+Lvw1bksV/CNgNgUXaV+HAQAk5UrE5AgE5CydlbLbCEAWHNZruAbAbGx5VzAv9L7Vj/MnhSAjSs3rsl1pW7e3hW+GpflCr4REJuiq9SPgwBgsnJlAhJkAlLWzmqZLQQAay7LFXwjIDa2nAv4Vw7u31Lvz+n4oSMCsNF99mc99/7Pha/GZbmCbwTEpugq9eMgAJisXJmABJmAlLWzWmYLAcCay3IF3wiIjS3nAv6d7cNH1ftWB/ZtCcDGmx9f0isfviF8eS7LFXwjIDZFV6kfBwHAZOXKBCTIBKSsndUyWwgA1lyWK/hGQGxsORfwn7gsV/CNAOz1YnhdFz55T/hyXJYr+EZAbIquUj8OAoDJypUJSJAJSFk7q2W2EACsuSxX8I2A2NhyLuDLOH3shM4XZwVgryffOaWd61eF/8xluYJvBMSm6Cr14yAAmKxcmYAEmYCUtbNaZgsBwJrLcgXfCIiNLecCvqwLT7+qU48/KwAbt+7savvSKX3+xd+Ff89luYJvBMSm6Cr14yAAmKxcmYAEmYCUtbNaZgsBwJrLcgXfCIiNLecCvoret/ph9qQAbFy5cU2uK3Xz9q7wr7ksV/CNgNgUXaV+HAQAk5UrE5AgE5CydlbLbCEAWHNZruAbAbGx5VzAV3Fw/5Z6f07HDx0RgI3usz/rufd/LvxrLssVfCMgNkVXqR8HAcBk5coEJMgEpKyd1TJbCADWXJYr+EZAbGw5F/BVbR8+qt63OrBvSwA23vz4kl758A3hn3NZruAbAbEpukr9OAgAJitXJiBBJiBl7ayW2UIAsOayXME3AmJjy7mAKVyWK/hGAPZ6MbyuC5+8J/z/XJYr+EZAbIquUj8OAoDJypUJSJAJSFk7q2W2EACsuSxX8I2A2NhyLmCq08dO6HxxVgD2evKdU9q5flXYy2W5gm8ExKboKvXjIACYrFyZgASZgJS1s1pmCwHAmstyBd8IiI0t5wK+jgtPv6pTjz8rABu37uxq+9Ipff7F34UNl+UKvhEQm6Kr1I+DAGCycmUCEmQCUtbOapktBABrLssVfCMgNracC/i6et/qh9mTArBx5cY1ua7Uzdu7wn9zWa7gGwGxKbpK/TgIACYrVyYgQSYgZe2sltlCALDmslzBNwJiY8u5gK/r4P4t9f6cjh86IgAbfxw/kuvOCP/NZbmCbwTEpugq9eMgAJisXJmABJmAlLWzWmYLAcCay3IF3wiIjS3nAr4J24ePqvetDuzbEoCNi59e1ukPXhMkl+UKvhEQm6Kr1I+DAGCycmUCEmQCUtbOapktBABrLssVfCMgNracC/imuCxX8I0A7PVieF0XPnlPqXNZruAbAbEpukr9OAgAJitXJiBBJiBl7ayW2UIAsOayXME3AmJjy7mAb9LpYyd0vjgrAHsVXaV+HJQyl+UKvhEQm6Kr1I+DAGCycmUCEmQCUtbOapktBABrLssVfCMgNracC/imvfHUK3r5iZMCsHHrzq5cd0Y7168qVS7LFXwjIDZFV6kfBwHAZOXKBCTIBKSsndUyWwgA1lyWK/hGQGxsORdwN7z7zK/lH/u+AGxcuXFNrit18/auUuSyXME3AmJTdJX6cRAATFauTECCTEDK2lkts4UAYM1luYJvBMTGlnMBd8PB/Vvq/TkdP3READb+OH4k151RilyWK/hGQGyKrlI/DgKAycqVCUiQCUhZO6tlthAArLksV/CNgNjYci7gbnn0kW9r5+RFHdi3JQAbFz+9rNMfvKbUuCxX8I2A2BRdpX4cBACTlSsTkCATkLJ2VstsIQBYc1mu4BsBsbHlXMDdtH34qD56/qIA7PVieF0XPnlPKXFZruAbAbEpukr9OAgAJitXJiBBJiBl7ayW2UIAsOayXME3AmJjy7mAu+30sRM6X5wVgL2KrlI/DkqFy3IF3wiITdFV6sdBADBZuTIBCTIBKWtntcwWAoA1l+UKvhEQG1vOBdwLbzz1il5+4qQAbNy6syvXndHO9atKgctyBd8IiE3RVerHQQAwWbkyAQkyASlrZ7XMFgKANZflCr4REBtbzgXcK+8+82v5x74vABtXblyT60rdvL2rh53LcgXfCIhN0VXqx0EAMFm5MgEJMgEpa2e1zBYCgDWX5Qq+ERAbW84F3CsH92+p9+d0/NARAdj44/iRXHdGDzuX5Qq+ERCboqvUj4MAYLJyZQISZAJS1s5qmS0EAGsuyxV8IyA2tpwLuJcefeTb2jl5UQf2bQnAxsVPL+v0B6/pYeayXME3AmJTdJX6cRAATFauTECCTEDK2lkts4UAYM1luYJvBMTGlnMB99r24aP66PmLArDXi+F1XfjkPT2sXJYr+EZAbIquUj8OAoDJypUJSJAJSFk7q2W2EACsuSxX8I2A2NhyLuB+OH3shM4XZwVgr6Kr1I+DHkYuyxV8IyA2RVepHwcBwGTlygQkyASkrJ3VMlsIANZcliv4RkBsbDkXcL+88dQrevmJkwKwcevOrlx3RjvXr+ph47JcwTcCYlN0lfpxEABMVq5MQIJMQMraWS2zhQBgzWW5gm8ExMaWcwH307vP/Fr+se8LwMaVG9fkulI3b+/qYeKyXME3AmJTdJX6cRAATFauTECCTEDK2lkts4UAYM1luYJvBMTGlnMB99PB/Vvq/TkdP3READb+OH4k153Rw8RluYJvBMSm6Cr14yAAmKxcmYAEmYCUtbNaZgsBwJrLcgXfCIiNLecC7rdHH/m2dk5e1IF9WwKwcfHTyzr9wWt6WLgsV/CNgNgUXaV+HAQAk5UrE5AgE5CydlbLbCEAWHNZruAbAbGx5VxADLYPH9VHz18UgL1+9uGbeuPj3+lh4LJcwTcCYlN0lfpxEABMVq5MQIJMQMraWS2zhQBgzWW5gm8ExMaWcwGxOH3shM4XZwVgrx+9/wu9+9mf9KBzWa7gGwGxKbpK/TgIACYrVyYgQSYgZe2sltlCALDmslzBNwJiY8u5gJi88dQrevmJkwKwcevOrlx3RjvXr+pB5rJcwTcCYlN0lfpxEABMVq5MQIJMQMraWS2zhQBgzWW5gm8ExMaWcwGxufD0qzr1+LMCsPG3L/6h7Xde0M3bu3pQuSxX8I2A2BRdpX4cBACTlSsTkCATkLJ2VstsIQBYc1mu4BsBsbHlXEBsDu7fUu/P6fihIwKwceXGNW1fekEPKpflCr4REJuiq9SPgwBgsnJlAhJkAlLWzmqZLQQAay7LFXwjIDa2nAuI0cH9W/r8p7/XgX1bArBx8dPLOv3Ba3oQuSxX8I2A2BRdpX4cBACTlSsTkCATkLJ2VstsIQBYc1mu4BsBsbHlXECstg8fVe9bHdi3JQAbP/vwTb3x8e/0oHFZruAbAbEpukr9OAgAJitXJiBBJiBl7ayW2UIAsOayXME3AmJjy7mAmJ0+dkLni7MCsNeP3v+F3v3sT3qQuCxX8I2A2BRdpX4cBACTlSsTkCATkLJ2VstsIQBYc1mu4BsBsbHlXEDs6u+9pMV3XxKAjVt3duW6M9q5flUPCpflCr4REJuiq9SPgwBgsnJlAhJkAlLWzmqZLQQAay7LFXwjIDa2nAt4EFx4+lWdevxZAdj42xf/0PY7L+jm7V09CFyWK/hGQGyKrlI/DgKAycqVCUiQCUhZO6tlthAArLksV/CNgNjYci7gQXBw/5Z6f07HDx0RgI0rN65p+9ILehC4LFfwjYDYFF2lfhwEAJOVKxOQIBOQsnZWy2whAFhzWa7gGwGxseVcwIPi4P4tff7T3+vAvi0B2Lj46WWd/uA1xc5luYJvBMSm6Cr14yAAmKxcmYAEmYCUtbNaZgsBwJrLcgXfCIiNLecCHiTbh4+q960O7NsSgI2fffim3vj4d4qZy3IF3wiITdFV6sdBADBZuTIBCTIBKWtntcwWAoA1l+UKvhEQG1vOBTxoTh87ofPFWQHY60fv/0LvfvYnxcpluYJvBMSm6Cr14yAAmKxcmYAEmYCUtbNaZgsBwJrLcgXfCIiNLecCHkT1917S4rsvCcDGrTu7ct0Z7Vy/qhi5LFfwjYDYFF2lfhwEAJOVKxOQIBOQsnZWy2whAFhzWa7gGwGxseVcwIPqwtOv6tTjzwrAxt+++Ie233lBN2/vKjYuyxV8IyA2RVepHwcBwGTlygQkyASkrJ3VMlsIANZcliv4RkBsbDkX8KA6uH9LvT+n44eOCMDGlRvXtH3pBcXGZbmCbwTEpugq9eMgAJisXJmABJmAlLWzWmYLAcCay3IF3wiIjS3nAh5kB/dv6fOf/l4H9m0JwMbFTy/r9AevKSYuyxV8IyA2RVepHwcBwGTlygQkyASkrJ3VMlsIANZcliv4RkBsbDkX8KDbPnxUvW91YN+WAGz88q9vqf7LW4qFy3IF3wiITdFV6sdBADBZuTIBCTIBKWtntcwWAoA1l+UKvhEQG1vOBTwMTh87ofPFWQHY68Xwui588p5i4LJcwTcCYlN0lfpxEABMVq5MQIJMQMraWS2zhQBgzWW5gm8ExMaWcwEPi/p7L2nx3ZcEYOPWnV257ox2rl/V/eayXME3AmJTdJX6cRAATFauTECCTEDK2lkts4UAYM1luYJvBMTGlnMBD5MLT7+qU48/KwAbt+7s6tHf/lg3b+/qfnJZruAbAbEpukr9OAgAJitXJiBBJiBl7ayW2UIAsOayXME3AmJjy7mAh83Oybd1/NARAdi4cuOaXFfq5u1d3S8uyxV8IyA2RVepHwcBwGTlygQkyASkrJ3VMlsIANZcliv4RkBsbDkX8LA5uH9LO8+/re888i0B2Lj46WWd/uA13S8uyxV8IyA2RVepHwcBwGTlygQkyASkrJ3VMlsIANZcliv4RkBsbDkX8DDaPnxUvW91YN+WAGz88q9vqf7LW7ofXJYr+EZAbIquUj8OAoDJypUJSJAJSFk7q2W2EACsuSxX8I2A2NhyLuBh9dxjP9AfnvmVAOz1YnhdFz55T/eay3IF3wiITdFV6sdBADBZuTIBCTIBKWtntcwWAoA1l+UKvhEQG1vOBTzMXnniJ/rNUy8LwMatO7ty3RntXL+qe8lluYJvBMSm6Cr14yAAmKxcmYAEmYCUtbNaZgsBwJrLcgXfCIiNLecCHnYXnn5Vpx5/VgA2bt3Z1aO//bFu3t7VveKyXME3AmJTdJX6cRAATFauTECCTEDK2lkts4UAYM1luYJvBMTGlnMBKdg5+baOHzoiABtXblyT60rdvL2re8FluYJvBMSm6Cr14yAAmKxcmYAEmYCUtbNaZgsBwJrLcgXfCIiNLecCUnBw/5Z2nn9b33nkWwKwcfHTyzr9wWu6F1yWK/hGQGyKrlI/DgKAycqVCUiQCUhZO6tlthAArLksV/CNgNjYci4gFduHj6r3rQ7s2xKAjV/+9S3Vf3lLd5vLcgXfCIhN0VXqx0EAMFm5MgEJMgEpa2e1zBYCgDWX5Qq+ERAbW84FpOS5x36gPzzzKwHY68Xwui588p7uJpflCr4REJuiq9SPgwBgsnJlAhJkAlLWzmqZLQQAay7LFXwjIDa2nAtIzStP/ES/eeplAdi4dWdXrjujnetXdbe4LFfwjYDYFF2lfhwEAJOVKxOQIBOQsnZWy2whAFhzWa7gGwGxseVcQIouPP2qTj3+rABs3Lqzq0d/+2PdvL2ru8FluYJvBMSm6Cr14yAAmKxcmYAEmYCUtbNaZgsBwJrLcgXfCIiNLecCUrVz8m0dP3READau3Lgm15W6eXtX3zSX5Qq+ERCboqvUj4MAYLJyZQISZAJS1s5qmS0EAGsuyxV8IyA2tpwLSNXB/Vvaef5tfeeRbwnAxsVPL+v0B6/pm+ayXME3AmJTdJX6cRAATFauTECCTEDK2lkts4UAYM1luYJvBMTGlnMBKds+fFS9b3Vg35YAbLz58SW98uEb+ia5LFfwjYDYFF2lfhwEAJOVKxOQIBOQsnZWy2whAFhzWa7gGwGxseVcQOqee+wH+sMzvxKAvV4Mr+vCJ+/pm+KyXME3AmJTdJX6cRAATFauTECCTEDK2lkts4UAYM1luYJvBMTGlnMBkF554if6zVMvC8BeT75zSjvXr+qb4LJcwTcCYlN0lfpxEABMVq5MQIJMQMraWS2zhQBgzWW5gm8ExMaWcwH4bxeeflWnHn9WADZu3dnV9qVT+vyLv+vrclmu4BsBsSm6Sv04CAAmK1cmIEEmIGXtrJbZQgCw5rJcwTcCYmPLuQBs9L7VD7MnBWDjyo1rcl2pm7d39XW4LFfwjYDYFF2lfhwEAJOVKxOQIBOQsnZWy2whAFhzWa7gGwGxseVcADYO7t9S78/p+KEjArDRffZnPff+z/V1uCxX8I2A2BRdpX4cBACTlSsTkCATkLJ2VstsIQBYc1mu4BsBsbHlXAD22j58VL1vdWDflgBsvPnxJb3y4RuaymW5gm8ExKboKvXjIACYrFyZgASZgJS1s1pmCwHAmstyBd8IiI0t5wLw/3NZruAbAdjrxfC6LnzynqZwWa7gGwGxKbpK/TgIACYrVyYgQSYgZe2sltlCALDmslzBNwJiY8u5APxzp4+d0PnirADs9eQ7p7Rz/aq+KpflCr4REJuiq9SPgwBgsnJlAhJkAlLWzmqZLQQAay7LFXwjIDa2nAvAv3bh6Vd16vFnBWDj1p1dbV86pc+/+Lu+CpflCr4REJuiq9SPgwBgsnJlAhJkAlLWzmqZLQQAay7LFXwjIDa2nAvAv9f7Vj/MnhSAjSs3rsl1pW7e3tWX5bJcwTcCYlN0lfpxEABMVq5MQIJMQMraWS2zhQBgzWW5gm8ExMaWcwH49w7u31Lvz+n4oSMCsNF99mc99/7P9WW5LFfwjYDYFF2lfhwEAJOVKxOQIBOQsnZWy2whAFhzWa7gGwGxseVcAP6z7cNH1ftWB/ZtCcDGmx9f0isfvqEvw2W5gm8ExKboKvXjIACYrFyZgASZgJS1s1pmCwHAmstyBd8IiI0t5wLw5bgsV/CNAOz1YnhdFz55T/+Jy3IF3wiITdFV6sdBADBZuTIBCTIBKWtntcwWAoA1l+UKvhEQG1vOBeDLO33shM4XZwVgryffOaWd61f177gsV/CNgNgUXaV+HAQAk5UrE5AgE5CydlbLbCEAWHNZruAbAbGx5VwAvpoLT7+qU48/KwAbt+7savvSKX3+xd/1r7gsV/CNgNgUXaV+HAQAk5UrE5AgE5CydlbLbCEAWHNZruAbAbGx5VwAvrret/ph9qQAbFy5cU2uK3Xz9q7+/QqrJAAAIABJREFUGZflCr4REJuiq9SPgwBgsnJlAhJkAlLWzmqZLQQAay7LFXwjIDa2nAvAV3dw/5Z6f07HDx0RgI3usz/rufd/rn/GZbmCbwTEpugq9eMgAJisXJmABJmAlLWzWmYLAcCay3IF3wiIjS3nAjDN9uGj6n2rA/u2BGDj4qeXdfqD1/R/uSxX8I2A2BRdpX4cBACTlSsTkCATkLJ2VstsIQBYc1mu4BsBsbHlXACmc1mu4BsB2OvF8LoufPKe/jeX5Qq+ERCboqvUj4MAYLJyZQISZAJS1s5qmS0EAGsuyxV8IyA2tpwLwNdz+tgJnS/OCsBeRVepHwf9D5flCr4REJuiq9SPgwBgsnJlAhJkAlLWzmqZLQQAay7LFXwjIDa2nAvA13fh6Vd16vFnBWDj1p1due6Mdq5f1X9xWa7gGwGxKbpK/TgIACYrVyYgQSYgZe2sltlCALDmslzBNwJiY8u5AHwz3n3m1/KPfV8ANq7cuCbXlbp5e1cuyxV8IyA2RVepHwcBwGTlygQkyASkrJ3VMlsIANZcliv4RkBsbDkXgG/Gwf1b6v05HT90RAA2/jh+JNedkctyBd8IiE3RVerHQQAwWbkyAQkyASlrZ7XMFgKANZflCr4REBtbzgXgm/PoI9/WzsmLOrBvSwA2Ln56WRc+uazgGwGxKbpK/TgIACYrVyYgQSYgZe2sltlCALDmslzBNwJiY8u5AHyztg8f1UfPXxSAvS5+elmnHn9WQGyKrlI/DgKAycqVCUiQCUhZO6tlthAArLksV/CNgNjYci4A37zTx07ofHFWAID4FV2lfhwEAJOVKxOQIBOQsnZWy2whAFhzWa7gGwGxseVcAO6ON556RS8/cVIAgLgVXaV+HAQAk5UrE5AgE5CydlbLbCEAWHNZruAbAbGx5VwA7p53n/m1/GPfFwAgXkVXqR8HAcBk5coEJMgEpKyd1TJbCADWXJYr+EZAbGw5F4C75+D+LfX+nI4fOiIAQJyKrlI/DgKAycqVCUiQCUhZO6tlthAArLksV/CNgNjYci4Ad9ejj3xbOycv6sC+LQEA4lN0lfpxEABMVq5MQIJMQMraWS2zhQBgzWW5gm8ExMaWcwG4+7YPH9VHz18UACA+RVepHwcBwGTlygQkyASkrJ3VMlsIANZcliv4RkBsbDkXgHvj9LETOl+cFQAgLkVXqR8HAcBk5coEJMgEpKyd1TJbCADWXJYr+EZAbGw5F4B7542nXtHLT5wUACAeRVepHwcBwGTlygQkyASkrJ3VMlsIANZcliv4RkBsbDkXgHvr3Wd+Lf/Y9wUAiEPRVerHQQAwWbkyAQkyASlrZ7XMFgKANZflCr4REBtbzgXg3jq4f0u9P6fjh44IAHD/FV2lfhwEAJOVKxOQIBOQsnZWy2whAFhzWa7gGwGxseVcAO69Rx/5tnZOXtSBfVsCANxfRVepHwcBwGTlygQkyASkrJ3VMlsIANZcliv4RkBsbDkXgPtj+/BRffT8RQEA7q+iq9SPgwBgsnJlAhJkAlLWzmqZLQQAay7LFXwjIDa2nAvA/XP62An9P/bgJ7aP+s/z/Ou9u7Iv38he2QeoORBLtpxT7JTIqrqyhHIOrYxzqDQ/kVyin/0bz6UrkeLf6ddS0qpCw0+CE0aqSp2iOIgLoIb4AIvmQH2Bpau1IMfkRBSkhIvhEDREsbQi0ojd0dRPTdPwI7j8p+zP8/G4NnNJAIDdM7NyQf31VQHApiW1CXCQCXBZEWQySwUAjcjzVcW5gK6xMhSA3bV0bFEXD58RAGB3zKxcUH99VQCwaUltAhxkAlxWBJnMUgFAI/J8VXEuoGusDAVg9y2fuKy5yVkBAHbezMoF9ddXBQCbltQmwEEmwGVFkMksFQA0Is9XFecCusbKUAB23/BgT/34iqZGxgUA2FkzKxfUX18VAGxaUpsAB5kAlxVBJrNUANCIPF9VnAvoGitDAeiG4cGe7p17W0MDPQEAds7MygX111cFAJuW1CbAQSbAZUWQySwVADQiz1cV5wK6xspQALpjenRC/bjQ0EBPAICdMbNyQf31VQHApiW1CXCQCXBZEWQySwUAjcjzVcW5gK6xMhSAbpk/dErXZi4JALAzZlYuqL++KgDYtKQ2AQ4yAS4rgkxmqQCgEXm+qjgX0DVWhgLQPdnRBaVPLwgAsP1mVi6ov74qANi0pDYBDjIBLiuCTGapAKAReb6qOBfQNVaGAtBNyycua25yVgCA7TWzckH99VUBwKYltQlwkAlwWRFkMksFAI3I81XFuYCusTIUgG4aHuypH1/R1Mi4AADbZ2blgvrrqwKATUtqE+AgE+CyIshklgoAGpHnq4pzAV1jZSgA3TU82NO9c29raKAnAMD2mFm5oP76qgBg05LaBDjIBLisCDKZpQKARuT5quJcQNdYGQpAt02PTqgfFxoa6AkAsPVmVi6ov74qANi0pDYBDjIBLiuCTGapAKAReb6qOBfQNVaGAtB984dO6drMJQEAtt7MygX111cFAJuW1CbAQSbAZUWQySwVADQiz1cV5wK6xspQAPaG7OiC0qcXBADYWjMrF9RfXxUAbFpSmwAHmQCXFUEms1QA0Ig8X1WcC+gaK0MB2DuWT1zW3OSsAABbZ2blgvrrqwKATUtqE+AgE+CyIshklgoAGpHnq4pzAV1jZSgAe8fwYE/9+IqmRsYFANgaMysX1F9fFQBsWlKbAAeZAJcVQSazVADQiDxfVZwL6BorQwHYW4YHe7p37m0NDfQEAGhvZuWC+uurAoBNS2oT4CAT4LIiyGSWCgAakeerinMBXWNlKAB7z/TohPpxoaGBngAA7cysXFB/fVUAsGlJbQIcZAJcVgSZzFIBQCPyfFVxLqBrrAwFYG+aP3RK12YuCQDQzszKBfXXVwUAm5bUJsBBJsBlRZDJLBUANCLPVxXnArrGylAA9q7s6ILSpxcEANi8mZUL6q+vCgA2LalNgINMgMuKIJNZKgBoRJ6vKs4FdI2VoQDsbcsnLmtuclYAgM2ZWbmg/vqqAGDTktoEOMgEuKwIMpmlAoBG5Pmq4lxA11gZCsDet3bmNU2NjAsA8NvNrFxQf31VALBpSW0CHGQCXFYEmcxSAUAj8nxVcS6ga6wMBWDvGx7sae351/TUgScEAPhtZlYuqL++KgDYtKQ2AQ4yAS4rgkxmqQCgEXm+qjgX0DVWhgKwP0yPTqgfFxoa6AkA8PhmVi6ov74qANi0pDYBDjIBLiuCTGapAKAReb6qOBfQNVaGArB/nB47rndOviQAwOObWbmg/vqqAGDTktoEOMgEuKwIMpmlAoBG5Pmq4lxA11gZCsD+snj4rF45dlEAgMczs3JB/fVVAcCmJbUJcJAJcFkRZDJLBQCNyPNVxbmArrEyFID9Z/nEZc1NzgoA8OtmVi6ov74qANi0pDYBDjIBLiuCTGapAKAReb6qOBfQNVaGArA/rZ15TVMj4wIA/HUzKxfUX18VAGxaUpsAB5kAlxVBJrNUANCIPF9VnAvoGitDAdifhgd7Wnv+NT114AkBAH7ZzMoF9ddXBQCbltQmwEEmwGVFkMksFQA0Is9XFecCusbKUAD2r+nRCfXjQkMDPQEAft7MygX111cFAJuW1CbAQSbAZUWQySwVADQiz1cV5wK6xspQAPa302PH9c7JlwQA+HkzKxfUX18VAGxaUpsAB5kAlxVBJrNUANCIPF9VnAvoGitDAdj/Fg+f1SvHLgoA8O8deWtOa/fvCAA2LalNgINMgMuKIJNZKgBoRJ6vKs4FdI2VoQC4YfnEZc1NzgoA8G9ZGQoAWklqE+AgE+CyIshklgoAGpHnq4pzAV1jZSgA7lg785qmRsYFAPhXVoYCgFaS2gQ4yAS4rAgymaUCgEbk+ariXEDXWBkKgDuGB3tae/41PXXgCQEA/icrQwFAK0ltAhxkAlxWBJnMUgFAI/J8VXEuoGusDAXALdOjE+rHhYYGegIASFaGAoBWktoEOMgEuKwIMpmlAoBG5Pmq4lxA11gZCoB7To8d1zsnXxIAQLIyFAC0ktQmwEEmwGVFkMksFQA0Is9XFecCusbKUADctHj4rF45dlEA4DorQwFAK0ltAhxkAlxWBJnMUgFAI/J8VXEuoGusDAXAXcsnLmtuclYA4DIrQwFAK0ltAhxkAlxWBJnMUgFAI/J8VXEuoGusDAXAbWtnXtPUyLgAwFVWhgKAVpLaBDjIBLisCDKZpQKARuT5quJcQNdYGQqA24YHe+rHVzQ1Mi4AcJGVoQCglaQ2AQ4yAS4rgkxmqQCgEXm+qjgX0DVWhgKA6dEJ9eNCQwM9AYBrrAwFAK0ktQlwkAlwWRFkMksFAI3I81XFuYCusTIUAPwPkeerinMBgGusDAUArSS1CXCQCXBZEWQySwUAjcjzVcW5gK6xMhQA/MX8oVO6NnNJAOASK0MBQCtJbQIcZAJcVgSZzFIBQCPyfFVxLqBrrAwFAD+2fOKy5iZnBQCusDIUALSS1CbAQSbAZUWQySwVADQiz1cV5wK6xspQAPBT/bjQs94RAYALrAwFAK0ktQlwkAlwWRFkMksFAI3I81XFuYCusTIUAPzU8GBP/fiKpkbGBQD7nZWhAKCVpDYBDjIBLiuCTGapAKAReb6qOBfQNVaGAoCfMz06oX5caGigJwDYz6wMBQCtJLUJcJAJcFkRZDJLBQCNyPNVxbmArrEyFAD8ksjzVcW5AGA/szIUALSS1CbAQSbAZUWQySwVADQiz1cV5wK6xspQAPDXzB86pWszlwQA+5WVoQCglaQ2AQ4yAS4rgkxmqQCgEXm+qjgX0DVWhgKAX7N84rLmJmcFAPuRlaEAoJWkNgEOMgEuK4JMZqkAoBF5vqo4F9A1VoYCgMfRjws96x0RAOw3VoYCgFaS2gQ4yAS4rAgymaUCgEbk+ariXEDXWBkKAB7H8GBP/fiKpkbGBQD7iZWhAKCVpDYBDjIBLiuCTGapAKAReb6qOBfQNVaGAoDHNT06oX5caGigJwDYL6wMBQCtJLUJcJAJcFkRZDJLBQCNyPNVxbmArrEyFAD8FpHnq4pzAcB+YWUoAGglqU2Ag0yAy4ogk1kqAGhEnq8qzgV0jZWhAOC3mj90StdmLgkA9gMrQwFAK0ltAhxkAlxWBJnMUgFAI/J8VXEuoGusDAUAm7F84rLmJmcFAHudlaEAoJWkNgEOMgEuK4JMZqkAoBF5vqo4F9A1VoYCgM3qx4We9Y4IAPYyK0MBQCtJbQIcZAJcVgSZzFIBQCPyfFVxLqBrrAwFAJs1PNhTP76iqZFxAcBeZWUoAGglqU2Ag0yAy4ogk1kqAGhEnq8qzgV0jZWhAKCNgwee1NqZ6xoa6AkA9iIrQwFAK0ltAhxkAlxWBJnMUgFAI/J8VXEuoGusDAUAbU2PTujm89cFAHuRlaEAoJWkNgEOMgEuK4JMZqkAoBF5vqo4F9A1VoYCgK0wf+iUrs1cEgDsNVaGAoBWktoEOMgEuKwIMpmlAoBG5Pmq4lxA11gZCgC2ytKxRV08fEYAsJdYGQoAWklqE+AgE+CyIshklgoAGpHnq4pzAV1jZSgA2Eo3Tr6seOwZAcBeYWUoAGglqU2Ag0yAy4ogk1kqAGhEnq8qzgV0jZWhAGArDQ/21I+vaGpkXACwF1gZCgBaSWoT4CAT4LIiyGSWCgAakeerinMBXWNlKADYagcPPKm1M9c1NNATAHSdlaEAoJWkNgEOMgEuK4JMZqkAoBF5vqo4F9A1VoYCgO0wPTqhm89fFwB0nZWhAKCVpDYBDjIBLiuCTGapAKAReb6qOBfQNVaGAoDtMn/olK7NXBIAdJmVoQCglaQ2AQ4yAS4rgkxmqQCgEXm+qjgX0DVWhgKA7bR0bFEXD58RAHSVlaEAoJWkNgEOMgEuK4JMZqkAoBF5vqo4F9A1VoYCgO124+TLiseeEQB0kZWhAKCVpDYBDjIBLiuCTGapAKAReb6qOBfQNVaGAoDtNjzYUz++oqmRcQFA11gZCgBaSWoT4CAT4LIiyGSWCgAakeerinMBXWNlKADYCQcPPKm1M9c1NNATAHSJlaEAoJWkNgEOMgEuK4JMZqkAoBF5vqo4F9A1VoYCgJ0yPTqhm89fFwB0iZWhAKCVpDYBDjIBLiuCTGapAKAReb6qOBfQNVaGAoCdNH/olK7NXBIAdIWVoQCglaQ2AQ4yAS4rgkxmqQCgEXm+qjgX0DVWhgKAnbZ0bFEXD58RAHSBlaEAoJWkNgEOMgEuK4JMZqkAoBF5vqo4F9A1VoYCgN1w4+TLiseeEQDsNitDAUArSW0CHGQCXFYEmcxSAUAj8nxVcS6ga6wMBQC7YXiwp358RVMj4wKA3WRlKABoJalNgINMgMuKIJNZKgBoRJ6vKs4FdI2VoQBgtwwP9nTv3NsaGugJAHaLlaEAoJWkNgEOMgEuK4JMZqkAoBF5vqo4F9A1VoYCgN00PTqhflxoaKAnANgNVoYCgFaS2gQ4yAS4rAgymaUCgEbk+ariXEDXWBkKAHbb/KFTujZzSQCwG6wMBQCtJLUJcJAJcFkRZDJLBQCNyPNVxbmArrEyFAB0QXZ0QenTCwKAnWZlKABoJalNgINMgMuKIJNZKgBoRJ6vKs4FdI2VoQCgK5ZPXNbc5KwAYCdZGQoAWklqE+AgE+CyIshklgoAGpHnq4pzAV1jZSgA6IrhwZ768RVNjYwLAHaKlaEAoJWkNgEOMgEuK4JMZqkAoBF5vqo4F9A1VoYCgC4ZHuzp3rm3NTTQEwDsBCtDAUArSW0CHGQCXFYEmcxSAUAj8nxVcS6ga6wMBQBdMz06oX5caGigJwDYblaGAoBWktoEOMgEuKwIMpmlAoBG5Pmq4lxA11gZCgC6aP7QKV2buSQA2G5WhgKAVpLaBDjIBLisCDKZpQKARuT5quJcQNdYGQoAuio7uqD06QUBwHayMhQAtJLUJsBBJsBlRZDJLBUANCLPVxXnArrGylAA0GXLJy5rbnJWALBdrAwFAK0ktQlwkAlwWRFkMksFAI3I81XFuYCusTIUAHTZ8GBP/fiKpkbGBQDbwcpQANBKUpsAB5kAlxVBJrNUANCIPF9VnAvoGitDAUDXDQ/2dO/c2xoa6AkAtpqVoQCglaQ2AQ4yAS4rgkxmqQCgEXm+qjgX0DVWhgKAvWB6dEL9uNDQQE8AsJWsDAUArSS1CXCQCXBZEWQySwUAjcjzVcW5gK6xMhQA7BXzh07p2swlAcBWsjIUALSS1CbAQSbAZUWQySwVADQiz1cV5wK6xspQALCXZEcXlD69IADYKlaGAoBWktoEOMgEuKwIMpmlAoBG5Pmq4lxA11gZCgD2muUTlzU3OSsA2ApWhgKAVpLaBDjIBLisCDKZpQKARuT5quJcQNdYGQoA9prhwZ768RVNjYwLANqyMhQAtJLUJsBBJsBlRZDJLBUANCLPVxXnArrGylAAsBcND/a09vxreurAEwKANqwMBQCtJLUJcJAJcFkRZDJLBQCNyPNVxbmArrEyFADsVdOjE+rHhYYGegKAzbIyFAC0ktQmwEEmwGVFkMksFQA0Is9XFecCusbKUACwl50eO653Tr4kANgsK0MBQCtJbQIcZAJcVgSZzFIBQCPyfFVxLqBrrAwFAHvd4uGzeuXYRQHAZlgZCgBaSWoT4CAT4LIiyGSWCgAakeerinMBXWNlKADYD5ZPXNbc5KwA4LeyMhQAtJLUJsBBJsBlRZDJLBUANCLPVxXnArrGylAAsF+snXlNUyPjAoDfwspQANBKUpsAB5kAlxVBJrNUANCIPF9VnAvoGitDAcB+MTzY09rzr+mpA08IAB6XlaEAoJWkNgEOMgEuK4JMZqkAoBF5vqo4F9A1VoYCgP1kenRC/bjQ0EBPAPA4rAwFAK0ktQlwkAlwWRFkMksFAI3I81XFuYCusTIUAOw3p8eO652TLwkAHoeVoQCglaQ2AQ4yAS4rgkxmqQCgEXm+qjgX0DVWhgKA/Wjx8Fm9cuyiAODXWBkKAFpJahPgIBPgsiLIZJYKABqR56uKcwFdY2UoANivlk9c1tzkrADgr7EyFAC0ktQmwEEmwGVFkMksFQA0Is9XFecCusbKUACwn62deU1TI+MCgF9iZSgAaCWpTYCDTIDLiiCTWSoAaESeryrOBXSNlaEAYD8bHuxp7fnX9NSBJwQAP8fKUADQSlKbAAeZAJcVQSazVADQiDxfVZwL6BorQwHAfjc9OqF+XGhooCcA+CkrQwFAK0ltAhxkAlxWBJnMUgFAI/J8VXEuoGusDAUALjg9dlzvnHxJAPBTVoYCgFaS2gQ4yAS4rAgymaUCgEbk+ariXEDXWBkKAFyxePisXjl2UQDwY1aGAoBWktoEOMgEuKwIMpmlAoBG5Pmq4lxA11gZCgBcsnzisuYmZwUAf2FlKABoJalNgINMgMuKIJNZKgBoRJ6vKs4FdI2VoQDANWtnXtPUyLgA4H+wMhQAtJLUJsBBJsBlRZDJLBUANCLPVxXnArrGylAA4JrhwZ768RVNjYwLAKwMBQCtJLUJcJAJcFkRZDJLBQCNyPNVxbmArrEyFAC4aHp0Qv240NBATwDcZmUoAGglqU2Ag0yAy4ogk1kqAGhEnq8qzgV0jZWhAMBVkeerinMBcJuVoQCglaQ2AQ4yAS4rgkxmqQCgEXm+qjgX0DVWhgIAl80fOqVrM5cEwF1WhgKAVpLaBDjIBLisCDKZpQKARuT5quJcQNdYGQoAXLd84rLmJmcFwE1WhgKAVpLaBDjIBLisCDKZpQKARuT5quJcQNdYGQoAIPXjQs96RwTAPVaGAoBWktoEOMgEuKwIMpmlAoBG5Pmq4lxA11gZCgAgDQ/21I+vaGpkXADcYmUoAGglqU2Ag0yAy4ogk1kqAGhEnq8qzgV0jZWhAAD/0/TohPpxoaGBngC4w8pQANBKUpsAB5kAlxVBJrNUANCIPF9VnAvoGitDAQD+VeT5quJcANxhZSgAaCWpTYCDTIDLiiCTWSoAaESeryrOBXSNlaEAAP/W/KFTujZzSQDcYGUoAGglqU2Ag0yAy4ogk1kqAGhEnq8qzgV0jZWhAAD/3vKJy5qbnBWA/c/KUADQSlKbAAeZAJcVQSazVADQiDxfVZwL6BorQwEAfl4/LvSsd0QA9jcrQwFAK0ltAhxkAlxWBJnMUgFAI/J8VXEuoGusDAUA+HnDgz314yuaGhkXgP3LylAA0EpSmwAHmQCXFUEms1QA0Ig8X1WcC+gaK0MBAH7Z9OiE+nGhoYGeAOxPVoYCgFaS2gQ4yAS4rAgymaUCgEbk+ariXEDXWBkKAPDXRZ6vKs4FYH+yMhQAtJLUJsBBJsBlRZDJLBUANCLPVxXnArrGylAAgF83f+iUrs1cEoD9x8pQANBKUpsAB5kAlxVBJrNUANCIPF9VnAvoGitDAQAez/KJy5qbnBWA/cXKUADQSlKbAAeZAJcVQSazVADQiDxfVZwL6BorQwEAHl8/LvSsd0QA9g8rQwFAK0ltAhxkAlxWBJnMUgFAI/J8VXEuoGusDAUAeHzDgz314yuaGhkXgP3BylAA0EpSmwAHmQCXFUEms1QA0Ig8X1WcC+gaK0MBAH6bgwee1NqZ6xoa6AnA3mdlKABoJalNgINMgMuKIJNZKgBoRJ6vKs4FdI2VoQAAv9306IRuPn9dAPY+K0MBQCtJbQIcZAJcVgSZzFIBQCPyfFVxLqBrrAwFANic+UOndG3mkgDsbVaGAoBWktoEOMgEuKwIMpmlAoBG5Pmq4lxA11gZCgCweUvHFnXx8BkB2LusDAUArSS1CXCQCXBZEWQySwUAjcjzVcW5gK6xMhQAoJ0bJ19WPPaMAOxNVoYCgFaS2gQ4yAS4rAgymaUCgEbk+ariXEDXWBkKANDO8GBP/fiKpkbGBWDvsTIUALSS1CbAQSbAZUWQySwVADQiz1cV5wK6xspQAID2Dh54UmtnrmtooCcAe4uVoQCglaQ2AQ4yAS4rgkxmqQCgEXm+qjgX0DVWhgIAbI3p0QndfP66AOwtVoYCgFaS2gQ4yAS4rAgymaUCgEbk+ariXEDXWBkKALB15g+d0rWZSwKwd1gZCgBaSWoT4CAT4LIiyGSWCgAakeerinMBXWNlKADA1lo6tqiLh88IwN5gZSgAaCWpTYCDTIDLiiCTWSoAaESeryrOBXSNlaEAAFvvxsmXFY89IwDdZ2UoAGglqU2Ag0yAy4ogk1kqAGhEnq8qzgV0jZWhAABbb3iwp358RVMj4wLQbVaGAoBWktoEOMgEuKwIMpmlAoBG5Pmq4lxA11gZCgCwPQ4eeFJrZ65raKAnAN1lZSgAaCWpTYCDTIDLiiCTWSoAaESeryrOBXSNlaEAANtnenRCN5+/LgDdZWUoAGglqU2Ag0yAy4ogk1kqAGhEnq8qzgV0jZWhAADba/7QKV2buSQA3WRlKABoJalNgINMgMuKIJNZKgBoRJ6vKs4FdI2VoQAA22/p2KIuHj4jAN1jZSgAaCWpTYCDTIDLiiCTWSoAaESeryrOBXSNlaEAADvjxsmXFY89IwDdYmUoAGglqU2Ag0yAy4ogk1kqAGhEnq8qzgV0jZWhAAA7Y3iwp358RVMj4wLQHVaGAoBWktoEOMgEuKwIMpmlAoBG5Pmq4lxA11gZCgCwcw4eeFJrZ65raKAnAN1gZSgAaCWpTYCDTIDLiiCTWSoAaAwP9vTf/tN/FdA1VoYCAOys6dEJ9eNCQwM9AdhdDx5taPjq3woAWklqE+AgE+CyIshklgoAfuSHv/9nAV3y4fpNRSvnBQDYefOHTunazCUB2F0frt9UtHJeANBKUpsAB5kAlxVBJrNUAPAjP/z9Pwvokg/XbypaOS8AwO7Iji4ofXpBAHbPh+s3Fa2cFwC0ktT5mpi2AAAgAElEQVQmwEEmwGVFkMksFQD8SD8u9Kx3REBXrNz9WKff/5MAALtn+cRlzU3OCsDuePXWm1r8ZEkA0EpSmwAHmQCXFUEms1QA8CP9uNCz3hEBXfHCZ1eVfXpVAIDdMzzYUz++oqmRcQHYeS98dlXZp1cFAK0ktQlwkAlwWRFkMksFAD+ydGxRFw+fEdAVf/zkVS3dekMAgN01PNjTvXNva2igJwA76+/e/wfduPuRAKCVpDYBDjIBLiuCTGapAOBHsqMLSp9eENAVMysX1F9fFQBg902PTqgfFxoa6AnAzjny1pzW7t8RALSS1CbAQSbAZUWQySwVAPxI5Pmq4lxAV4y9/jvde/i1AADdMH/olK7NXBKAnWNlKABoLalNgINMgMuKIJNZKgD4kYMHntTdc/8koCusDAUA6Jbs6ILSpxcEYPt9/u2Xmn7z9wKA1pLaBDjIBLisCDKZpQKAn/jh7/9ZQBd8uH5T0cp5AQC6Z/nEZc1NzgrA9rp++z3Nf/CiAKC1pDYBDjIBLiuCTGapAOAn+nGhZ70jAnbbq7fe1OInSwIAdM/wYE/9+IqmRsYFYPv88ZNXtXTrDQFAa0ltAhxkAlxWBJnMUgHATywdW9TFw2cE7LY/VH/W8hfvCgDQTcODPd0797aGBnoCsD2OvDWntft3BACtJbUJcJAJcFkRZDJLBQA/cXrsuN45+ZKA3Tb2+u907+HXAgB01/TohPpxoaGBngBsrQePNjR89W8FAFsiqU2Ag0yAy4ogk1kqAPiJgwee1N1z/yRgNz14tKHhq38rAED3zR86pWszlwRga63c/Vin3/+TAGBLJLUJcJAJcFkRZDJLBQA/4965t/XUgScE7JaVux/r9Pt/EgBgb8iOLih9ekEAts4fP3lVS7feEABsiaQ2AQ4yAS4rgkxmqQDgZyyfuKy5yVkBu+UP1Z+1/MW7AgDsHcsnLmtuclYAtsbY67/TvYdfCwC2RFKbAAeZAJcVQSazVADwM06PHdc7J18SsFvGXv+d7j38WgCAvWN4sKd+fEVTI+MC0M5XD7/RwdefEwBsmaQ2AQ4yAS4rgkxmqQDgZwwP9vTf/tN/FbAbvnr4jQ6+/pwAAHvP8GBP9869raGBngBs3qu33tTiJ0sCgC2T1CbAQSbAZUWQySwVAPyCGydfVjz2jICd9uqtN7X4yZIAAHvT9OiE+nGhoYGeAGzOkbfmtHb/jgBgyyS1CXCQCXBZEWQySwUAv2Dx8Fm9cuyigJ125K05rd2/IwDA3nV67LjeOfmSAPx2Xz38Rgdff04AsKWS2gQ4yAS4rAgymaUCgF9w8MCTunvunwTspK8efqODrz8nAMDet3j4rF45dlEAfps/fvKqlm69IQDYUkltAhxkAlxWBJnMUgHAX3Hj5MuKx54RsFNevfWmFj9ZEgBgf1g+cVlzk7MC8PjGXv+d7j38WgCwpZLaBDjIBLisCDKZpQKAv2L+0Cldm7kkYKcceWtOa/fvCACwf6ydeU1TI+MC8OtW7n6s0+//SQCw5ZLaBDjIBLisCDKZpQKAv2J4sKd7597W0EBPwHb7/NsvNf3m7wUA2F+GB3tae/41PXXgCQH462ZWLqi/vioA2HJJbQIcZAJcVgSZzFIBwK9YPnFZc5OzArbbH6o/a/mLdwUA2H+mRyfUjwsNDfQE4Od99fAbHXz9OQHAtkhqE+AgE+CyIshklgoAfsX06IRuPn9dwHZ68GhDB19/Tt99vyEAwP50euy43jn5kgD8vD9Uf9byF+8KALZFUpsAB5kAlxVBJrNUAPAY+nGhZ70jArbL9dvvaf6DFwUA2N+yowtKn14QgH/rq4ff6ODrzwkAtk1SmwAHmQCXFUEms1QA8BjmD53StZlLArbL2Ou/072HXwsAsP8tn7isuclZAfhXL3x2VdmnVwUA2yapTYCDTIDLiiCTWSoAeEz3zr2tpw48IWCrrdz9WKff/5MAAO5YO/OapkbGBUB68GhDB19/Tt99vyEA2DZJbQIcZAJcVgSZzFIBwGOaP3RK12YuCdhqMysX1F9fFQDAHcODPfXjK5oaGRfguj9Uf9byF+8KALZVUpsAB5kAlxVBJrNUAPAb3Dv3tp468ISArfLh+k1FK+cFAHDP8GBPa8+/pqcOPCHAVV89/EYHX39OALDtktoEOMgEuKwIMpmlAoDfYP7QKV2buSRgq8ysXFB/fVUAADdNj06oHxcaGugJcNHfvf8PunH3IwHAtktqE+AgE+CyIshklgoAfqN7597WUweeENDWh+s3Fa2cFwDAbdOjE+rHhYYGegJc8uH6TUUr5wUAOyKpTYCDTIDLiiCTWSoA+I3mD53StZlLAto68tac1u7fEQAA06MT6seFhgZ6Alwx9vrvdO/h1wKAHZHUJsBBJsBlRZDJLBUAbMLamdc0NTIuYLOu335P8x+8KAAA/mJ6dEL9uNDQQE/AfvfCZ1eVfXpVALBjktoEOMgEuKwIMpmlAoBNiDxfVZwL2IwHjzZ08PXn9N33GwIA4MemRyfUjwsNDfQE7Feff/ulpt/8vQBgRyW1CXCQCXBZEWQySwUAm7R84rLmJmcF/FZ//ORVLd16QwAA/Jzp0Qn140JDAz0B+9GRt+a0dv+OAGBHJbUJcJAJcFkRZDJLBQCbNDzY071zb2tooCfgcX3+7ZeafvP3AgDgr5kendCNky/rqQNPCNhPXvjsqrJPrwoAdlxSmwAHmQCXFUEms1QA0ML8oVO6NnNJwOM68tac1u7fEQAAv2Z4sKd+fEVTI+MC9oMP128qWjkvANgVSW0CHGQCXFYEmcxSAUBL/bjQs94RAb/mhc+uKvv0qgAAeFzDgz314yuaGhkXsJc9eLSh6TfndO/h1wKAXZHUJsBBJsBlRZDJLBUAtDQ82NO9c29raKAn4Jd8/u2Xmn7z9wIAYDOWT1zW3OSsgL1qZuWC+uurAoBdk9QmwEEmwGVFkMksFQBsgdNjx/XOyZcE/JIjb81p7f4dAQCwWdnRBaVPLwjYa1747KqyT68KAHZVUpsAB5kAlxVBJrNUALBFlk9c1tzkrICf+uMnr2rp1hsCAKCt+UOntHTsooYGegL2guu339P8By8KAHZdUpsAB5kAlxVBJrNUALBFhgd76sdXNDUyLuAvVu5+rNPv/0kAAGyV6dEJ3Tj5sp468ISALvv82y8VrST67vsNAcCuS2oT4CAT4LIiyGSWCgC20PTohPpxoaGBnoDPv/1S0Uqi777fEAAAW2l4sKcbJ1/Ws94RAV30+bdfKlpJ9N33GwKATkhqE+AgE+CyIshklgoAttjpseN65+RLgtsePNpQtHJea/fvCACA7ZIdXVD69IKALnnwaEPRynmt3b8jAOiMpDYBDjIBLiuCTGapAGAbLB4+q1eOXRTc9Xfv/4Nu3P1IAABst8jzdeM/vqShgZ6A3fbg0YailfNau39HANApSW0CHGQCXFYEmcxSAcA2WT5xWXOTs4J7/lD9WctfvCsAAHbK8GBPyzP/qHjsGQG75cGjDUUr57V2/44AoHOS2gQ4yAS4rAgymaUCgG3Ujws96x0R3HH99nua/+BFAQCwGxYPn1V2dEFDAz0BO+nBow1FK+e1dv+OAKCTktoEOMgEuKwIMpmlAoBtNDzYUz++oqmRcWH/u377Pc1/8KIAANhNBw88qRv/8WVNjYwL2AkPHm0oWjmvtft3BACdldQmwEEmwGVFkMksFQBss+HBnvrxFU2NjAv71/Xb72n+gxcFAEBXZEcXlD69IGA7PXi0oWjlvNbu3xEAdFpSmwAHmQCXFUEms1QAsAOGB3vqx1c0NTIu7D/Xb7+n+Q9eFAAAXXPwwJNaPnFZz3pHBGy1z7/9UtFKou++3xAAdF5SmwAHmQCXFUEms1QAsEOGB3vqx1c0NTIu7B/Xb7+n+Q9eFAAAXbZ4+KyyowsaGugJ2Aofrt/U6ff/pO++3xAA7AlJbQIcZAJcVgSZzFIBwA4aHuypH1/R1Mi4sPddv/2e5j94UQAA7AXDgz0tHVvU3OSsgDau335P8x+8KADYU5LaBDjIBLisCDKZpQKAHTY82FM/vqKpkXFh77p++z3Nf/CiAADYayLP19L/uaipkXEBv9Ufqj9r+Yt3BQB7TlKbAAeZAJcVQSazVACwS5ZPXNbc5Kyw97zw2VVln14VAAB72fyhU1o6dlFDAz0Bv+arh9/o9Pt/0tr9OwKAPSmpTYCDTIDLiiCTWSoA2EXZ0QWlTy8Ie8cfqj9r+Yt3BQDAfjA82NPi4bNaPHxWQwM9AT9n5e7Hmq/+i777fkMAsGcltQlwkAlwWRFkMksFALts/tApLR27qKGBntBdDx5tKFo5r7X7dwQAwH4zPNjT0rFFzU3OCviLB482lH16VUu33hAA7HlJbQIcZAJcVgSZzFIBQAdMj07oxsmX9dSBJ4Tu+fzbLxWtJPru+w0BALCfHTzwpLKjC5qbnBXc9uH6Tc1/8KLuPfxaALAvJLUJcJAJcFkRZDJLBQAdMTzY0/LMPyoee0bojldvvanFT5YEAIBLDh54UtnRBc1NzgpuefBoQ9mnV7V06w0BwL6S1CbAQSbAZUWQySwVAHTM4uGzyo4uaGigJ+yeB482dPr/+gf111cFAICrDh54UtnRBZ0eO66hgZ6wv63c/ViLnyzp3sOvBQD7TlKbAAeZAJcVQSazVADQQdOjE1o+8Y+aGhkXdt7K3Y81X/0Xfff9hgAAgDQ82NPi4bNaPHxWQwM9YX/56uE3mv/gRfXXVwUA+1ZSmwAHmQCXFUEms1QA0GHZ0QWlTy8IO+PBow3Nf/Cibtz9SAAA4OfNHzqlxcNnNTUyLuxtDx5taOnWG8o+vSoA2PeS2gQ4yAS4rAgymaUCgI47eOBJLZ+4rGe9I8L2uX77PS1+sqTvvt8QAAD4dZHna/7QrOYmZ4W954XPrmrp1hv67vsNAYATktoEOMgEuKwIMpmlAoA94vTYcS0dW9RTB54Qts7n336pxf97Sf31VQEAgN9ueLCn+clTWjx8Vk8deELotuu331P26VXde/i1AMApSW0CHGQCXFYEmcxSAcAeMjzY0+Lhs1o8fFZDAz1h8756+I2yz65q+Yt3BQAAtsb06IQWD5/V6bHjGhroCd3w4NGGlm69oeUv3tO9h18LANzzwwMl/zIswEEmwGVFkMksFQDsQcODPWVP/2ddPHxG+G0ePNrQ0q03tHTrDX33/YYAAMD2mD90SqcPHlc89oywO756+I2Wb7+rpVtv6LvvNwQAzvrhhw91/l8iAQ4yAS678n+clv7XdwQAe9jBA08qO7qg02PHNTTQE37Zg0cbWrr1hpZuvaHvvt8QAADYGcODPZ0ee1anDx5XPPaMsP0+XL+p5dvvafmLdwUA+P/98MOHOv8vkQAHmQCXFUenZf/bTQHAPjA82NPi4bNaPHxWQwM94V999fAbZZ9d1Y27H+q77zcEAAB2z/BgT5Hn6/TYcZ0eO66hgZ6wNb56+I1u3P1IS7fe0L2HXwsA8CM//PCCzv9LJsBBJsB1V/7mBwHAPjN/6JQWD5/V1Mi4XLZy92Mt335XN+5+JAAA0E3ToxM6PXZcp8ee1dTIuPDbPHi0oRt3P9KNux/pxt2PBAD4Jf/975T8PzcEOMgEuK74mxsyxQKAfWh6dELzk6c0f2hWQwM9ueCrh99o+fa7Wv7iPd17+LUAAMDeMTzYU+T5ijxf0X/wNTUyLvx7Xz38Rv31Vd24+5Fu3P1IAIDH8P3/+7/rj2vfCXCQCXBd/jeL+l/0igBgnzs9dlynx47r9NhxDQ30tJ989fAb3bj7kZZvv6u1+3cEAAD2h+HBniLPV+T5mh6d0LPeEbnqw/WbunH3I/XXV7V2/47w/7EHN7ux3/edoD9fEuChAHtIIFp0PAtygHZmqUoACaUV2etZSHdwmK0oQlVXoNIV1F+gqG3z3IF0B2RvVJAAp7SNF00u2umFA5ATA+IhhvxNHOfNtl7OC1/q5XkegJfRvs0Hk15gSVVg2Y3723lS/zMAS6T35i+z93//P9n9P/8mb/3Ff808Ov3N3+WL//k/cvKbX2X6218HAFgOu7/4m/Te/GV6b/4y2z//y+z84q+ziE5/83c5+c2vcvK//i4nv/lVAHgNtxnmw6+6wJKqAMlR/yRVOwFYQptPfpbdX/xNdn/xN+m9+cvs/OKvM2sur3+X6W9/nZPf/Con/+vvcvKbXwUA4N/03vxltn/+l+m9+cv0/uKvsvnkZ9n5xV9nHlxe/y7T3/4609/+OtN//HWmv/37TH/76wBwh563/yvDyVlgSVWA5Ki/l6r/HgD+Re/NX6b35l9l++f/Jbu/+JtsPvl53vqL/5qHcPqbv8vF899l+o9/n+lvf53pb3+ds3/6hwAAvKzNJz9L7y/+Ktv/x19m++f/JZtrP0/vzV/m93pv/jIbaz/LQzj/p/+ds3/6h1w8/12m//j3Ofun/52z//cfMv3Hv8/F898FgHvU8mX2v3o/sMQqwB8cvXuWylYA+EGbT36W3l/8VX5v88nP0nvzl3kd09/+OhfPf5ffO/nNrwIA8Bh6b/4ym2s/z7/pvfnLbD75WV7W9Le/zsXz3+XfnPzmVwHgkd20/5aDyUlgiVWAPzjq76XqvwcAAAAAmH+tnWZ/shtYchXgPxy9e5bKVgAAAACA+XbT/lsOJieBJVcB/sNRfy9V/z0AAAAAwPxq+TL7X70fIBXgjx31T1K1EwAAAABgDrXLPE8vw8lZgFSAPzbub+dJpkltBAAAAACYL7cZ5sOvugD/ogL8uc/eHWQl4wAAAAAA86O10+xPdgP8uwrw/Y7e/SKV9wIAAAAAzIF2medX2xlOLwL8uwrw/ca9zTxZP0nqrQAAAAAAs639f3+d/W+mAf5IBfhh495m1t6YprIVAAAAAGA2tfa32Z8cB/gzFeDHHb3dS62eJLURAAAAAGC2tPa32Z8cB/heFeCnjfvbeZIvknorAAAAAMBsaO1vsz85DvCDKsCLGfc2s/bGcSrvBQAAAAB4RO0y7WY3+99MA/yoCvByPnt3kJU2SmojAAAAAMDDavky19/tZTi9CPCTKsDLG/e3s1ZdKu8FAAAAALh/Lee5bXs5mJwEeGEV4NUd9nezmi6ptwIAAAAA3IN2mdsa5cOvugAvrQK8vqP+XipdUhsBAAAAAO5Ie5bnV4MMpxcBXkkFuBvj3mbW3hil8lEAAAAAgFfX2mlyM8j+N9MAr6UC3K1xfztrOU7VTgAAAACAF9dynroZ5IOvvwhwJyrA/Tjs72aljlPZCgAAAADwI9plWrrsT0YB7lQFuF+fvTvIShsltREAAAAA4E+0Z3meUYaTswB3rgLcv3FvM0/Wu6SeBgAAAABIWjvNbUY5mJwEuDcV4OEcvd1LVrtU7QQAAAAAllK7TMsg+5PjAPeuAjy8z995P221S2UrAAAAALAsWvsk11ddhtOLAA+iAjyOcW8za+uDVAZJbQQAAAAAFlXLl7lugwwnZwEeVAV4XOP+dp5klNTTAAAAAMBCad/mJoMcTE4CPIoKMBsO+7tZyShVOwEAAACAudYuc1ujfPhVF+BRVYDZctTfS6VLaiMAAAAAMG9aPs31d6MMpxcBHl0FmD3j3mbW1gep+jgAAAAAMA9aO8119jKcnAWYGRVgdo3721mrLpX3AgAAAACzqOU8t20vB5OTADOnAsy+w/5uVtMl9VYAAAAAYCa0y7R02Z+MAsysCjA/Pnt3kJU2SmojAAAAAPBo2rM8vxpkOL0IMNMqwHwZ9zaz9sYolY8CAAAAAA+ptdPkZpD9b6YB5kIFmE/j/nbWcpyqnQAAAADAfWo5T90M8sHXXwSYKxVgvh32d7NSx6lsBQAAAADuVLtMS5frqy7D6UWAuVMBFsNRf5TKIKmNAAAAAMBra8/yPKMMJ2cB5lYFWBzj3maerHdJPQ0AAAAAvJL2bW4yyMHkJMDcqwCL5+jtXrLapWonAAAAAPBC2mVaBtmfHAdYGBVgcR3195IapbIVAAAAAPghrX2S66suw+lFgIVSARbbuLeZtfVBKoOkNgIAAAAA/6bly1y3QYaTswALqQIsh3F/O08ySuppAAAAAFhuLee5bXs5mJwEWGgVYLkc9nezmi6ptwIAAADAkmmXua1RPvyqC7AUKsByOurvpdIltREAAAAAFl/Lp7n+bpTh9CLA0qgAy2vc28za+iBVHwcAAACAxdTaaa6zl+HkLMDSqQCM+9tZqy6V9wIAAADAYmg5T90M8sHXXwRYWhWAf3PY381KHaeyFQAAAADmVLtMS5f9ySjA0qsA/KnP3h1kpY2S2ggAAAAAc6Q9y/OrQYbTiwD8swrA9xn3NrP2xiiVjwIAAADAbGvtNLkZZP+baQD+kwrAjzl6u5esdqnaCQAAAACzpeU8aaPsT44D8D0qAC/i83feT1vtUtkKAAAAAI+sXaaly/VVl+H0IgA/oALwMo76o1QGSW0EAAAAgIfX8mWu2yDDyVkAfkIF4GWNe5t5st4l9TQAAAAAPJD2bW4yyMHkJAAvqALwqg77u1nJKFU7AQAAAOCetMu0DLI/OQ7AS6oAvK6j/l5So1S2AgAAAMDdae2TXF91GU4vAvAKKgB3YdzbzNr6IJVBUhsBAAAA4NW1dprr7GU4OQvAa6gA3KVxfztr1aXyXgAAAAB4OS3nuW17OZicBOAOVADuw2F/N6vpknorAAAAAPyEdpnbGuXDr7oA3KEKwH066u+l0iW1EQAAAAD+XMunuf5ulOH0IgB3rAJw38a9zaytD1L1cQAAAAD4g9ZOk5tB9r+ZBuCeVAAeyri/nbUcp2onAAAAAMuq5Tx1M8gHX38RgHtWAXhoh/3drNRxKlsBAAAAWBrtMi1d9iejADyQCsBj+ezdQVbaKKmNAAAAACy09izPrwYZTi8C8IAqAI9p3NvMk/UuqacBAAAAWDStneY2oxxMTgLwCCoAs+Do7V6y2qVqJwAAAADzruU8aaPsT44D8IgqALPk83feT1vtUtkKAAAAwDxq7ZNcX3UZTi8C8MgqALPoqD9KZZDURgAAAADmQcuXuW6DDCdnAZgRFYBZNe5v50lGST0NAAAAwMxq3+YmgxxMTgIwYyoAs+6wv5uVjFK1EwAAAICZ0S7TMsj+5DgAM6oCMC+O+ntJjVLZCgAAAMBjavk019+NMpxeBGCGVQDmybi3mbX1Qao+DgAAAMBDa+0019nLcHIWgDlQAZhH4/521qpL5b0AAAAA3LeW89y2vRxMTgIwRyoA8+ywv5vVdEm9FQAAAIA71y5zW6N8+FUXgDlUAVgER/29VLqkNgIAAABwJ9qzPL8aZDi9CMCcqgAsinFvM2tvjFL5KAAAAACvqrXT5GaQ/W+mAZhzFYBFM+5vZy3HqdoJAAAAwItqOU/dDPLB118EYEFUABbVYX83K3WcylYAAAAAflC7TEuX66suw+lFABZIBWDRHfVHqQyS2ggAAADAH2nP8jyjDCdnAVhAFYBlMO5t5sl6l9TTAAAAALR2mtuMcjA5CcACqwAsk6O3e8lql6qdAAAAAEuoXaZlkP3JcQCWQAVgGX3+zvtpq10qWwEAAACWQ2uf5Pqqy3B6EYAlUQFYVuPeZtbWB6kMktoIAAAAsJhavsx1G2Q4OQvAkqkALLtxfztPMkrqaQAAAIAF0r7NTQY5mJwEYElVAPiDw/5uVjJK1U4AAACAOdYuc1ujfPhVF4AlVwHgjx3191LpktoIAAAAMF9aPs31d6MMpxcBIBUA/ty4t5m19UGqPg4AAAAw+1o7zXX2MpycBYB/VwHgh43721mrLpX3AgAAAMyelvPctr0cTE4CwJ+pAPDTDvu7WU2X1FsBAAAAZkC7TEuX/ckoAPygCgAv7rN3B1lpo6Q2AgAAADyS9izPrwYZTi8CwI+qAPByxr3NrL0xSuWjAAAAAA+ntdPkZpD9b6YB4IVUAHg14/521nKcqp0AAAAA96flPGmj7E+OA8BLqQDwej5/5/201S6VrQAAAAB3qF2mpcv1VZfh9CIAvLQKAHfjqD9KZZDURgAAAIDX1J7leUYZTs4CwCurAHB3xr3NPFnvknoaAAAA4BW0b3OTQQ4mJwHgtVUAuHtHb/eS1S5VOwEAAABeQLtMyyD7k+MAcGcqANyfo/5eUqNUtgIAAAB8v9Y+yfVVl+H0IgDcqQoA92vc28za+iCVQVIbAQAAAP6g5ctct0GGk7MAcC8qADyMcX87TzJK6mkAAABgmbWc57bt5WByEgDuVQWAh3XY381quqTeCgAAACyVdpnbGuXDr7oA8CAqADyOo/5eKl1SGwEAAIBF1/Jprr8bZTi9CAAPpgLA4xn3NrO2PkjVxwEAAIBF1NpprrOX4eQsADy4CgCPb9zfzlqOU7UTAAAAWAQt56mbQT74+osA8GgqAMyOw/5uVuo4la0AAADAXGqXaemyPxkFgEdXAWD2fPbuICttlNRGAAAAYG60Z3l+NchwehEAZkIFgNk07m1m7Y1RKh8FAAAAZllrp7nNKAeTkwAwUyoAzLajt3vJapeqnQAAAMAsaTlP2ij7k+MAMJMqAMyHz995P221S2UrAAAA8KjaZVq6XF91GU4vAsDMqgAwX476o1QGSW0EAAAAHlrLl7lugwwnZwFg5lUAmD/j3maerHdJPQ0AAAA8iPZtbjLIweQkAMyNCgDz67C/m5WMUrUTAAAAuBftMi2D7E+OA8DcqQAw/476e0mNUtkKAAAA3JXWPsn1VZfh9CIAzKUKAIth3NvM2voglUFSGwEAAIBX1dpprrOX4eQsAMy1CgCLZdzfzlp1qbwXAAAAeBkt57ltezmYnASAhVABYDEd9nezmi6ptwIAAAA/ql3mtkb58KsuACyUCgCL7ai/l0qX1EYAAADgT7V8muvvRhlOL+/DFXoAACAASURBVALAwqkAsPjGvc2svTFK5aMAAADA77V2mtwMsv/NNAAsrAoAy2Pc385ajlO1EwAAAJZTy3nqZpAPvv4iACy8CgDL57C/m5U6TmUrAAAALIl2mZYu+5NRAFgaFQCW12fvDrLSRkltBAAAgAXWnuV5RhlOzgLAUqkAsNzGvc08We+SehoAAAAWS2unuc0oB5OTALCUKgDwe0dv95LVLlU7AQAAYL61nCdtlP3JcQBYahUA+M8+f+f9tNUula0AAAAwf1r7JNdXXYbTiwCw9CoA8H2O+qNUBkltBAAAgNnX8mWu2yDDyVkA4F9VAOCHjPvbeZJRUk8DAADAjGrf5iaDHExOAgB/ogIAP+Wwv5uVjFK1EwAAAGZEu0zLIPuT4wDAD6gAwIs66u8lNUplKwAAADyelk9z/d0ow+lFAOBHVADgZYx7m1lbH6Tq4wAAAPCwWjvNdfYynJwFAF5ABQBexbi/nbXqUnkvAAAA3K+W89y2vRxMTgIAL6ECAK/jsL+b1XRJvRUAAADuWLtMS5f9ySgA8AoqAHAXPnt3kJU2SmojAAAA3IH2LM+vBhlOLwIAr6gCAHdl3NvM2hujVD4KAAAAr6a10+RmkP1vpgGA11QBgLs27m9nLcep2gkAAAAvpuU8dTPIB19/EQC4IxUAuC+H/d2s1HEqWwEAAOAHtMu0dLm+6jKcXgQA7lAFAO7bUX+UyiCpjQAAAPCftGd5nlGGk7MAwD2oAMBDGPc282S9S+ppAAAAll1rp7nNKAeTkwDAPaoAwEM6eruXrHap2gkAAMDSaZdpGWR/chwAeAAVAHgMn7/zftpql8pWAAAAlkFrn+T6qstwehEAeCAVAHgs495m1tYHqQyS2ggAAMAiavky122Q4eQsAPDAKgDw2Mb97TzJKKmnAQAAWBjt29xkkIPJSQDgkVQAYFYc9nezklGqdgIAADC32mVua5QPv+oCAI+sAgCz5qi/l0qX1EYAAADmScunuf5ulOH0IgAwAyoAMIvGvc2srQ9S9XEAAABmXWunuc5ehpOzAMAMqQDALBv3t7NWXSrvBQAAYNa0nKduBvng6y8CADOoAgDz4LC/m5U6TmUrAAAAj65dpqXL/mQUAJhhFQCYJ5+9O8hKGyW1EQAAgEfRnuX51SDD6UUAYMZVAGDejHubWXtjlMpHAQAAeCitnSY3g+x/Mw0AzIkKAMyrcX87azlO1U4AAADuS8t50kbZnxwHAOZMBQDm3efvvJ+22qWyFQAAgDvTLtPS5fqqy3B6EQCYQxUAWBRH/VEqg6Q2AgAA8FraszzPKMPJWQBgjlUAYJGMe5t5st4l9TQAAAAvrX2bmwxyMDkJACyACgAsoqO3e8lql6qdAAAA/KR2mZZB9ifHAYAFUgGARXbU30tqlMpWAAAAvk9rn+T6qstwehEAWDAVAFh0495m1tYHqQyS2ggAAMDvtXyZ6zbIcHIWAFhQFQBYFuP+dtaqS+W9AAAAy6vlPLdtLweTkwDAgqsAwLI57O9mNV1SbwUAAFgi7TK3NcqHX3UBgCVRAYBlddTfS6VLaiMAAMBia/k019+NMpxeBACWSAUAltm4t5m19UGqPg4AALB4WjtNbgbZ/2YaAFhCFQAgGfe3s5bjVO0EAACYfy3nqZtBPvj6iwDAEqsAAP/hsL+blTpOZSsAAMAcapdp6bI/GQUASAUA+HOfvTvIShsltREAAGBOtGd5fjXIcHoRAOBfVACA7zfubWbtjVEqHwUAAJhdrZ3mNqMcTE4CAPyRCgDw447e7iWrXap2AgAAzI6W86SNsj85DgDwvSoAwIv5/J3301a7VLYCAAA8onaZli7XV12G04sAAD+oAgC8nKP+KJVBUhsBAAAeVsuXuW6DDCdnAQB+UgUAeHnj3maerHdJPQ0AAPAA2re5ySAHk5MAAC+sAgC8usP+blYyStVOAACAe9Au0zLI/uQ4AMBLqwAAr++ov5fUKJWtAAAAd6O1T3J91WU4vQgA8EoqAMDdGPc2s7Y+SNXHAQAAXl1rp7nOXoaTswAAr6UCANytcX87a9Wl8l4AAIAX13Ke27aXg8lJAIA7UQEA7sdhfzer6ZJ6KwAAwI9ol7mtUT78qgsAcKcqAMD9OurvpdIltREAAOBPtGd5fjXIcHoRAODOVQCA+zfubWbtjVEqHwUAAEhaO01uBtn/ZhoA4N5UAICHM+5vZy3HqdoJAAAso5bz1M0gH3z9RQCAe1cBAB7eYX83K3WcylYAAGAptMu0dNmfjAIAPJgKAPB4Pnt3kJU2SmojAACwsNqzPM8ow8lZAIAHVQEAHte4t5kn611STwMAAIuktdPcZpSDyUkAgEdRAQBmw9HbvWS1S9VOAABgnrWcJ22U/clxAIBHVQEAZsvn77yfttqlshUAAJg3rX2S66suw+lFAIBHVwEAZtNRf5TKIKmNAADArGv5MtdtkOHkLADAzKgAALNr3N/Ok4ySehoAAJhJ7dvcZJCDyUkAgJlTAQBm32F/NysZpWonAAAwE9plbmuUD7/qAgDMrAoAMD+O+nupdEltBAAAHkvLp7n+bpTh9CIAwEyrAADzZdzbzNr6IFUfBwAAHlJrp7nOXoaTswAAc6ECAMyncX87a9Wl8l4AAOA+tZzntu3lYHISAGCuVACA+XbY381quqTeCgAA3Kl2mZYu+5NRAIC5VAEAFsNn7w6y0kZJbQQAAF5be5bnV4MMpxcBAOZWBQBYHOPeZtbeGKXyUQAA4FW0dprcDLL/zTQAwNyrAACLZ9zfzlqOU7UTAAB4ES3nqZtBPvj6iwAAC6MCACyuw/5uVuo4la0AAMD3apdp6XJ91WU4vQgAsFAqAMDiO+qPUhkktREAAPh37VmeZ5Th5CwAwEKqAADLYdzbzJP1LqmnAQBgubV2mtuMcjA5CQCw0CoAwHI5eruXrHap2gkAAEumXaZlkP3JcQCApVABAJbT5++8n7bapbIVAAAWX2uf5Pqqy3B6EQBgaVQAgOU17m1mbX2QyiCpjQAAsHhavsx1G2Q4OQsAsHQqAADj/naeZJTU0wAAsBhaznPb9nIwOQkAsLQqAAD/5rC/m9V0Sb0VAADmVLvMbY3y4VddAIClVwEA+FNH/b1UuqQ2AgDA/Gj5NNffjTKcXgQA4J9VAAC+z7i3mbX1Qao+DgAAs62101xnL8PJWQAA/pMKAMCPGfe3s1ZdKu8FAIDZ0nKeuhnkg6+/CADA96gAALyIw/5uVuo4la0AAPDI2mVauuxPRgEA+BEVAICX8dm7g6y0UVIbAQDgEbRneX41yHB6EQCAn1ABAHhZ495m1t4YpfJRAAB4GK2dJjeD7H8zDQDAC6oAALyqcX87azlO1U4AALgfLedJG2V/chwAgJdUAQB4XZ+/837aapfKVgAAuCPtMi1drq+6DKcXAQB4BRUAgLty1B+lMkhqIwAAvIb2LM8zynByFgCA11ABALhL495mnqx3ST0NAAAvqX2bmwxyMDkJAMAdqAAA3IfD/m5WMkrVTgAA+AntMi2D7E+OAwBwhyoAAPfpqL+X1CiVrQAA8Oda+yTXV12G04sAANyxCgDAfRv3NrO2PkhlkNRGAABIWjvNdfYynJwFAOCeVAAAHsq4v5216lJ5LwAAy6rlPLdtLweTkwAA3LMKAMBDO+zvZjVdUm8FAGBptMvc1igfftUFAOCBVAAAHstRfy+VLqmNAAAsspZPc/3dKMPpRQAAHlAFAOAxjXubWVsfpOrjAAAsmtZOk5tB9r+ZBgDgEVQAAGbBuL+dtRynaicAAPOu5Tx1M8gHX38RAIBHVAEAmCWH/d2s1HEqWwEAmDvtMi1d9iejAADMgAoAwCz67N1BVtooqY0AAMyF9izPrwYZTi8CADAjKgAAs2rc28zaG6NUPgoAwKxq7TS3GeVgchIAgBlTAQCYdUdv95LVLlU7AQCYFS3nSRtlf3IcAIAZVQEAmBefv/N+2mqXylYAAB5Nu0xLl+urLsPpRQAAZlgFAGDeHPVHqQyS2ggAwENq+TLXbZDh5CwAAHOgAgAwj8b97TzJKKmnAQC4d+3b3GSQg8lJAADmSAUAYJ4d9nezklGqdgIAcOfaZVoG2Z8cBwBgDlUAABbBUX8vqVEqWwEAuAstn+b6u1GG04sAAMypCgDAohj3NrO2PkjVxwEAeFWtneY6exlOzgIAMOcqAACLZtzfzlp1qbwXAIAX1XKe27aXg8lJAAAWRAUAYFEd9nezmi6ptwIA8IPaZW5rlA+/6gIAsGAqAACL7qi/l0qX1EYAAP5Ie5bnV4MMpxcBAFhAFQCAZTDubWbtjVEqHwUAoLXT5GaQ/W+mAQBYYBUAgGUy7m9nLcep2gkAsHxazlM3g3zw9RcBAFgCFQCAZXTY381KHaeyFQBgCbTLtHTZn4wCALBEKgAAy+yzdwdZaaOkNgIALKj2LM8zynByFgCAJVMBAFh2495mnqx3ST0NALA4WjvNbUY5mJwEAGBJVQAA+IOjt3vJapeqnQAAc6xdpmWQ/clxAACWXAUAgD/2+Tvvp612qWwFAJgvrX2S66suw+lFAABIBQCAPzfubWZtfZDKIKmNAACzreXLXLdBhpOzAADw7yoAAPywcX87TzJK6mkAgBnUvs1NBjmYnAQAgD9TAQDgpx32d7OSUap2AgDMgHaZ2xrlw6+6AADwgyoAALy4o/5eKl1SGwEAHkfLp7n+bpTh9CIAAPyoCgAAL2fc28za+iBVHwcAeDitneY6exlOzgIAwAupAADwasb97axVl8p7AQDuT8t5btteDiYnAQDgpVQAAHg9h/3drKZL6q0AAHeoXaaly/5kFAAAXkkFAIC78dm7g6y0UVIbAQBeU3uW51eDDKcXAQDglVUAALg7495m1t4YpfJRAICX19ppcjPI/jfTAADw2ioAANy9cX87azlO1U4AgJ/Wcp66GeSDr78IAAB3pgIAwP057O9mpY5T2QoA8D3aZVq6XF91GU4vAgDAnaoAAHD/jvqjVAZJbQQA+FftWZ5nlOHkLAAA3IsKAAAPY9zbzJP1LqmnAYCl1r7NTQY5mJwEAIB7VQEA4GEdvd1LVrtU7QQAlkq7TMsg+5PjAADwICoAADyOo/5eUqNUtgIAi661T3J91WU4vQgAAA+mAgDA4xn3NrO2PkhlkNRGAGDRtHyZ6zbIcHIWAAAeXAUAgMc37m/nSUZJPQ0ALIKW89y2vRxMTgIAwKOpAAAwOw77u1lNl9RbAYC51C5zW6N8+FUXAAAeXQUAgNlz1N9LpUtqIwAwL1o+zfV3owynFwEAYCZUAACYTePeZtbWB6n6OAAwy1o7zXX2MpycBQCAmVIBAGC2jfvbWasulfcCALOk5Tx1M8gHX38RAABmUgUAgPlw2N/NSh2nshUAeFTtMi1d9iejAAAw0yoAAMyXz94dZKWNktoIADy49izPrwYZTi8CAMDMqwAAMH/Gvc2svTFK5aMAwENo7TS5GWT/m2kAAJgbFQAA5tfR271ktUvVTgDgPrScJ22U/clxAACYOxUAAObf5++8n7bapbIVALgT7TItXa6vugynFwEAYC5VAABYHEf9USqDpDYCAK+q5ctct0GGk7MAADDXKgAALJZxbzNP1rukngYAXkr7NjcZ5GByEgAAFkIFAIDFdNjfzUpGqdoJAPyodpmWQfYnxwEAYKFUAABYbEf9vaRGqWwFAP5Ua5/k+qrLcHoRAAAWTgUAgMU37m1mbX2QyiCpjQBAa6e5zl6Gk7MAALCwKgAALI9xfztr1aXyXgBYTi3nuW17OZicBACAhVcBAGD5HPZ3s5ouqbcCwJJol7mtUT78qgsAAEujAgDA8jrq76XSJbURABZXy6e5/m6U4fQiAAAslQoAAMtt3NvM2vogVR8HgMXS2mlyM8j+N9MAALCUKgAA8Hvj/nbWcpyqnQAw31rOUzeDfPD1FwEAYKlVAADgPzvs72aljlPZCgBzpl2mpcv+ZBQAAPhnFQAA+D6fvTvIShsltREA5kB7lucZZTg5CwAA/KsKAAD8kHFvM0/Wu6SeBoDZ1NppbjPKweQkAADwJyoAAPBTjt7uJatdqnYCwGxoOU/aKPuT4wAAwA+oAADAi/r8nffTVrtUtgLA42ntk1xfdRlOLwIAAD+iAgAAL+uoP0plkNRGAHg4LV/mug0ynJwFAABeQAUAAF7FuL+dJxkl9TQA3LP2bW4yyMHkJAAA8BIqAADwOg77u1nJKFU7AeCOtcu0DLI/OQ4AALyCCgAA3IWj/l5So1S2AsDra/k019+NMpxeBAAAXlEFAADuyri3mbX1Qao+DgCvprXTXGcvw8lZAADgNVUAAOCujfvbWasulfcCwItpOc9t28vB5CQAAHBHKgAAcF8O+7tZTZfUWwHgB7TL3NYoH37VBQAA7lgFAADu21F/L5UuqY0A8J+0Z3l+NchwehEAALgHFQAAeAjj3mbW3hil8lEAll1rp8nNIPvfTAMAAPeoAgAAD2nc385ajlO1E4Bl03Keuhnkg6+/CAAAPIAKAAA8hsP+blbqOJWtACy8dpmWLtdXXYbTiwAAwAOpAADAYzrqj1IZJLURgIXUnuV5RhlOzgIAAA+sAgAAj23c28yT9S6ppwFYFK2d5jajHExOAgAAj6QCAACz4ujtXrLapWonAHOrXaZlkP3JcQAA4JFVAABg1nz+zvtpq10qWwGYJ619kuurLsPpRQAAYAZUAABgFo17m1lbH6QySGojALOs5ctct0GGk7MAAMAMqQAAwCwb97fzJKOkngZg5rRvc5NBDiYnAQCAGVQBAIB5cNjfzUpGqdoJwKNrl7mtUT78qgsAAMywCgAAzJOj/l4qXVIbAXgMLZ/m+rtRhtOLAADAjKsAAMC8Gfc2s7Y+SNXHAXgorZ3mOnsZTs4CAABzogIAAPNq3N/OWnWpvBeA+9Jyntu2l4PJSQAAYM5UAABg3h32d7OaLqm3AnBn2mVauuxPRgEAgDlVAQCARfHZu4OstFFSGwF4Le1Znl8NMpxeBAAA5lgFAAAWybi3mbU3Rql8FICX1dppcjPI/jfTAADAAqgAAMAiGve3s5bjVO0E4Ke0nCdtlP3JcQAAYIFUAABgkX3+zvtpq10qWwH4M+0yLV2ur7oMpxcB+P/bg5+kuMt9D8CfL1QRHMEOYAcy0WpHsAPdQRiLlL9ege0Kui3EMdlB3AEZ2aUT3AHsAEYS7iXvPXWq7p/jtXJMAqT77ed5AKAzFQAAWAWno0kqQ1JbAfin9iKvM8l4fhkAAOhUBQAAVsV0bzvPNmdJPQ+wwtrvuc+Q4/l5AACgcxUAAFg1p5/tJeuzVO0HWCHtJi1DjuZnAQCAFVEBAIBVdTo6TGqSyk6AvrX2fe5uZxlfXAcAAFZIBQAAVtl0bzsbm0MqQ1JbAfrS8nPu2pDx/DIAALCCKgAAQDId7eZZJkk9D7D8Wq7yph3meH4eAABYYRUAAOB/nYwOsp5ZUp8GWELtJm9qkm9+mQUAAEgFAAD4/05Hh6nMktoKsBxafsjdH5OML64DAAD8UwUAAPhr073tbGwOqfouwOJq7VXucpjx/DIAAMC/qAAAAG83He1mI2ep2g+wOFquUvdDvv71ZQAAgL9UAQAA/p6T0UHW6iyVnQAfUbtJyyxH80kAAIC3qgAAAO/mxy+GrLVJUlsBnlh7kde3Q8YX1wEAAP6tCgAA8O6me9vZ+GSSyrcBHl9rr/ImkxzPzwMAAPxtFQAA4P2dfraXrM9StR/g4bVcJW2So/lZAACAd1YBAAA+3E+ff5W2PktlJ8ADaDdpmeXudpbxxXUAAID3UgEAAB7O6WiSypDUVoD30/Jz7tqQ8fwyAADAB6kAAAAPa7q3nWebs6SeB3gH7ffcZ8jx/DwAAMCDqAAAAI/jZHSQtUxStR/gLdpNWoYczc8CAAA8qAoAAPC4TkeHSU1S2Qnwr1r7Pne3s4wvrgMAADy4CgAA8Pime9vZ2BxSGZLaCqy61l7lLocZzy8DAAA8mgoAAPB0pqPdbNQslS8Dq6jlKm/aYY7n5wEAAB5dBQAAeHono4OsZ5bUp4GV0G7ypib55pdZAACAJ1MBAAA+ntPRYSqzpLYC3Wov8vp2yPjiOgAAwJOqAAAAH9d0bzsbn0xS+TbQk9ZeJfdDjn67CAAA8FFUAACAxTAd7WYjZ6naDyyzlqvU/ZCvf30ZAADgo6oAAACL5WR0kLU6S2UnsFTaTVpmOZpPAgAALIQKAACwmH78YshamyS1FVh47UVeZ5Lx/DIAAMDCqAAAAItruredZ5uzpJ4HFlFrr/ImkxzPzwMAACycCgAAsPhOP9tL1mep2g8sgparpE1yND8LAACwsCoAAMDy+Onzr9LWZ6nsBD6W1r7P3e0s44vrAAAAC60CAAAsn9PRJJUhqa3AU2n5OXdtyHh+GQAAYClUAACA5TQd7eZZJkk9Dzyq9nvuM+R4fh4AAGCpVAAAgOV2MjrIWiap2g88qHaTliFH87MAAABLqQIAAPThdHSY1CSVncCHavkhd39MMr64DgAAsLQqAABAP6Z729nYHFL1XeB9tPYqdznMeH4ZAABg6VUAAID+TEe72ahZKl8G/o6Wq7xphzmenwcAAOhGBQAA6NfJ6CDrmSX1aeAvtZu0zHI0nwQAAOhOBQAA6N+PXwxZa5OktgL/o73I69sh44vrAAAAXaoAAACrYbq3nY1PJql8G1Zba6+S+yFHv10EAADoWgUAAFgt09FuNnKWqv2wWlquUvdDvv71ZQAAgJVQAQAAVtPJ6CBrdZbKTuhcu0nLLHe3s4wvrgMAAKyMCgAAsNpOR5NUhqS2Qofai7zOJOP5ZQAAgJVTAQAAmO5t59nmLKnnoQ+tvcqbTHI8Pw8AALCyKgAAAP/t9LO9ZH2Wqv2wpNpNWoYczc8CAACsvAoAAMCf/fT5V2nrs1R2wvJo7fvc3c4yvrgOAADAP1QAAAD+ynRvOxubQypDUlthcbX8nLs2ZDy/DAAAwP9RAQAAeJvpaDfPMknqeVgw7ffcZ8jx/DwAAAB/oQIAAPB3nIwOspZJqvbDR9Zu8qYm+eaXWQAAAN6iAgAA8C5OR4epzJLaCk+v5Yfc/THJ+OI6AAAA/0YFAADgXU33trOxOaTqu/A0WnuVuxxmPL8MAADA31QBAAB4X9PRbjZqlsqX4XG0XKXuh3z968sAAAC8owoAAMCHOhkdZK3OUtkJD6TdpGWWo/kkAAAA76kCAADwUH78YshamyS1FT5Ae5HXt0PGF9cBAAD4ABUAAICHNN3bzsYnk1S+De+mtVfJ/ZCj3y4CAADwACoAAACPYTrazUbOUrUf3q7lKmmTHM3PAgAA8IAqAAAAj+mnz79KW5+lshP+pN2kZZa721nGF9cBAAB4YBUAAICncDqapDIktRX+ob3I60wynl8GAADgkVQAAACeynRvO882Z0k9z8pqv+c+Q47n5wEAAHhkFQAAgKd2+tlesj5L1X5WRrtJy5Cj+VkAAACeSAUAAOBjOR0dJjVJZSc9a+373N3OMr64DgAAwBOqAAAAfEzTve1sbA6pDEltpSctP+euDRnPLwMAAPARVAAAABbBdLSbjZql8mWWXctV3rTDHM/PAwAA8BFVAAAAFsnJ6CDrmSX1aZZOu8mbmuSbX2YBAABYABUAAIBFdDo6TGWW1FaWQcsPuftjkvHFdQAAABZEBQAAYFFN97azsTmk6rssqtZeJfdDjn67CAAAwIKpAAAALLrpaDcbOUvVfhZFy1XqfsjXv74MAADAgqoAAAAsi5PRQdbqLJWdfDTtJi2zHM0nAQAAWHAVAACAZfPjF0PW2iSprTyp9iKvb4eML64DAACwBCoAAADLaLq3nY3NIZUhqa08qvYirzPJeH4ZAACAJVIBAABYdqejw6S+SuXLPJj2e97UWf6jvcx4fhkAAIAlVAEAAOjJyeggazlIcpDUbio7+bfaTVoukrpI2kXucp7x/DIAAABLrgIAALAKTkYH+bP/zGXG88sAAAB0qgIAAAAAAECXKgAAAAAAAHSpAgAAAAAAQJcqAAAAAAAAdKkCAAAAAABAlyoAAAAAAAB0qQIAAAAAAECXKgAAAAAAAHSpAgAAAAAAQJcqAAAAAAAAdKkCAAAAAABAlyoAAAAAAAB0qQIAAAAAAECXKgAAAAAAAHSpAgAAAAAAQJcqAAAAAAAAdKkCAAAAAABAlyoAAAAAAAB0qQIAAAAAAECXKgAAAAAAAHSpAgAAAAAAQJcqAAAAAAAAdKkCAAAAAABAlyoAAAAAAAB0qQIAAAAAAECXKgAAAAAAAHSpAgAAAAAAQJcqAAAAAAAAdKkCAAAAAABAlyoAAAAAAAB0qQIAAAAAAECXKgAAAAAAAHSpAgAAAAAAQJcqAAAAAAAAdKkCAAAAAABAlyoAAAAAAAB0qQIAAAAAAECXKgAAAAAAAHSpAgAAAAAAQJcqAAAAAAAAdKkCAAAAAABAlyoAAAAAAAB0qQIAAAAAAECXKgAAAAAAAHSpAgAAAAAAQJcqAAAAAAAAdKkCAAAAAABAlyoAAAAAAAB0qQIAAAAAAECXKgAAAAAAAHSpAgAAAAAAQJcqAAAAAAAAdKkCAAAAAABAlyoAAAAAAAB0qQIAAAAAAECXKgAAAAAAAHSpAgAAAAAAQJcqAAAAAAAAdKkCAAAAAABAlyoAAAAAAAB0qQIAAAAAAECXKgAAAAAAAHSpAgAAAAAAQJcqAAAAAAAAdKkCAAAAAABAlyoAAAAAAAB0qQIAAAAAAECXKgAAAAAAAHSpAgAAAAAAQJcqAAAAAAAAdKkCAAAAAABAlyoAAAAAAAB0qQIAAAAAAECXKgAAAAAAAHSpAgAAAAAAQJcqAAAAAAAAdKkCAAAAAABAlyoAAAAAAAB0qQIAAAAAAECXKgAAAAAAgQdBEwAAAJFJREFUAHSpAgAAAAAAQJcqAAAAAAAAdKkCAAAAAABAlyoAAAAAAAB0qQIAAAAAAECXKgAAAAAAAHSpAgAAAAAAQJcqAAAAAAAAdKkCAAAAAABAlyoAAAAAAAB0qQIAAAAAAECXKgAAAAAAAHSpAgAAAAAAQJcqAAAAAAAAdKkCAAAAAABAlyoAAAAAAAB06b8Apleyjm56Q0AAAAAASUVORK5CYIIgICAgICAgICAgICAgICAgICAgICAgICAgICAgICAgICAgICAgICAgICAgICAgICAgICAgICAgICAgICAgICAgICAgICAgICAgICAgICAgICAgICAgICAgICAgICAgICAgICAgICAgICAgICAgICAgICAgICAgICAgICAgICAgICAgICAgICAgICAgICAgICAgICAgICAgICAgICAgICAgICAgICAgICAgICAgICAgICAgICAgICAgICAgICAgICAgICAgICAgICAgICAgICAgICAgICAgICAgICAgICAgICAgICAgICAgICAgICAgICAgICAgICAgICAgICAgICAgICAgICAgICAgICAgICAgICAgICAgICAgICAgICAgICAgICAgICAgICAgICAgICAgICAgICAgICAgICAgICAgICAgICAgICAgICAgICAgICAgICAgICAgICAgICAgICAgICAgICAgICAgICAgICAgICAgICAgICAgICAgICAgICAgICAgICAgICAgICAgICAgICAgICAgICAgICAgICAgICAgICAgICAgICAgICAgICAgICAgICAgICAgICAgICAgICAgICAgICAgICAgICAgICAgICAgICAgICAgICAgICAgICAgICAgICAgICAgICAgICAgICAgICAgICAgICAgICAgICAgICAgICAgICAgICAgICAgICAgICAgICAgICAgICAgICAgICAgICAgICAgICAgICAgICAgICAgICAgICAgICAgICAgICAgICAgICAgICAgICAgICAgICAgICAgICAgICAgICAgICAgICAgICAgICAgICAgICAgICAgICAgICAgICAgICAgICAgICAgICAgICAgICAgICAgICAgICAgICAgICAgICAgICAgICAgICAgICAgICAgICAgICAgICAgICAgICAgICAgICAgICAgICAgICAgICAgICAgICAgICAgICAgICAgICAgICAgICAgICAgICAgICAgICAgICAgICAgICAgICAgICAgICAgICAgICAgICAgICAgICAgICAgICAgICAgICAgICAgICAgICAgICAgICAgICAgICAgICAgICAgICAgICAgICAgICAgICAgICAgICAgICAgICAgICAgICAgICAgICAgICAgICAgICAgICAgICAgICAgICAgICAgICAgICAgICAgICAgICAgICAgICAgICAgICAgICAgICAgICAgICAgICAgICAgICAgICAgICAgICAgICAgICAgICAgICAgICAgICAgICAgICAgICAgICAgICAgICAgICAgICAgICAgICAgICAgICAgICAgICAgICAgICAgICAgICAgICAgICAgICAgICAgICAgICAgICAgICAgICAgICAgICAgICAgICAgICAgICAgICAgICAgICAgICAgICAgICAgICAgICAgICAgICAgICAgICAgICAgICAgICAgICAgICAgICAgICAgICAgICAgICAgICAgICAgICAgICAgICAgICAgICAgICAgICAgICAgICAgICAgICAgICAgICAgICAgICAgICAgICAgICAgICAgICAgICAgICAgICAgICAgICAgICAgICAgICAgICAgICAgICAgICAgICAgICAgICAgICAgICAgICAgICAgICAgICAgICAgICAgICAgICAgICAgICAgICAgICAgICAgICAgICAgICAgICAgICAgICAgICAgICAgICAgICAgICAgICAgICAgICAgICAgICAgICAgICAgICAgICAgICAgICAgICAgICAgICAgICAgICAgICAgICAgICAgICAgICAgICAgICAgICAgICAgICAgICAgICAgICAgICAgICAgICAgICAgICAgICAgICAgICAgICAgICAgICAgICAgICAgICAgICAgICAgICAgICAgICAgICAgICAgICAgICAgICAgICAgICAgICAgICAgICAgICAgICAgICAgICAgICAgICAgICAgICAgICAgICAgICAgICAgICAgICAgICAgICAgICAgICAgICAgICAgICAgICAgICAgICAgICAgICAgICAgICAgICAgICAgICAgICAgICAgICAgICAgICAgICAgICAgICAgICAgICAgICAgICAgICAgICAgICAgICAgICAgICAgICAgICAgICAgICAgICAgICAgICAgICAgICAgICAgICAgICAgICAgICAgICAgICAgICAgICAgICAgICAgICAgICAgICAgICAgICAgICAgICAgICAgICAgICAgICAgICAgICAgICAgICAgICAgICAgICAgICAgICAgICAgICAgICAgICAgICAgICAgICAgICAgICAgICAgICAgICAgICAgICAgICAgICAgICAgICAgICAgICAgICAgICAgICAgICAgICAgICAgICAgICAgICAgICAgICAgICAgICAgICAgICAgICAgICAgICAgICAgICAgICAgICAgICAgICAgICAgICAgICAgICAgICAgICAgICAgICAgICAgICAgICAgICAgICAgICAgICAgICAgICAgICAgICAgICAgICAgICAgICAgICAgICAgICAgICAgICAgICAgICAgICAgICAgICAgICAgICAgICAgICAgICAgICAgICAgICAgICAgICAgICAgICAgICAgICAgICAgICAgICAgICAgICAgICAgICAgICAgICAgICAgICAgICAgICAgICAgICAgICAgICAgICAgICAgICAgICAgICAgICAgICAgICAgICAgICAgICAgICAgICAgICAgICAgICAgICAgICAgICAgICAgICAgICAgICAgICAgICAgICAgICAgICAgICAgICAgICAgICAgICAgICAgICAgICAgICAgICAgICAgICAgICAgICAgICAgICAgICAgICAgICAgICAgICAgICAgICAgICAgICAgICAgICAgICAgICAgICAgICAgICAgICAgICAgICAgICAgICAgICAgICAgICAgICAgICAgICAgICAgICAgICAgICAgICAgICAgICAgICAgICAgICAgICAgICAgICAgICAgICAgICAgICAgICAgICAgICAgICAgICAgICAgICAgICAgICAgICAgICAgICAgICAgICAgICAgICAgICAgICAgICAgICAgICAgICAgICAgICAgICAgICAgICAgICAgICAgICAgICAgICAgICAgICAgICAgICAgICAgICAgICAgICAgICAgICAgICAgICAgICAgICAgICAgICAgICAgICAgICAgICAgICAgICAgICAgICAgICAgICAgICAgICAgICAgICAgICAgICAgICAgICAgICAgICAgICAgICAgICAgICAgICAgICAgICAgICAgICAgICAgICAgICAgICAgICAgICAgICAgICAgICAgICAgICAgICAgICAgICAgICAgICAgICAgICAgICAgICAgICAgICAgICAgICAgICAgICAgICAgICAgICAgICAgICAgICAgICAgICAgICAgICAgICAgICAgICAgICAgICAgICAgICAgICAgICAgICAgICAgICAgICAgICAgICAgICAgICAgICAgICAgICAgICAgICAgICAgICAgICAgICAgICAgICAgICAgICAgICAgICAgICAgICAgICAgICAgICAgICAgICAgICAgICAgICAgICAgICAgICAgICAgICAgICAgICAgICAgICAgICAgICAgICAgICAgICAgICAgICAgICAgICAgICAgICAgICAgICAgICAgICAgICAgICAgICAgICAgICAgICAgICAgICAgICAgICAgICAgICAgICAgICAgICAgICAgICAgICAgICAgICAgICAgICAgICAgICAgICAgICAgICAgICAgICAgICAgICAgICAgICAgICAgICAgICAgICAgICAgICAgICAgICAgICAgICAgICAgICAgICAgICAgICAgICAgICAgICAgICAgICAgICAgICAgICAgICAgICAgICAgICAgICAgICAgICAgICAgICAgICAgICAgICAgICAgICAgICAgICAgICAgICAgICAgICAgICAgICAgICAgICAgICAgICAgICAgICAgICAgICAgICAgICAgICAgICAgICAgICAgICAgICAgICAgICAgICAgICAgICAgICAgICAgICAgICAgICAgICAgICAgICAgICAgICAgICAgICAgICAgICAgICAgICAgICAgICAgICAgICAgICAgICAgICAgICAgICAgICAgICAgICAgICAgICAgICAgICAgICAgICAgICAgICAgICAgICAgICAgICAgICAgICAgICAgICAgICAgICAgICAgICAgICAgICAgICAgICAgICAgICAgICAgICAgICAgICAgICAgICAgICAgICAgICAgICAgICAgICAgICAgICAgICAgICAgICAgICAgICAgICAgICAgICAgICAgICAgICAgICAgICAgICAgICAgICAgICAgICAgICAgICAgICAgICAgICAgICAgICAgICAgICAgICAgICAgICAgICAgICAgICAgICAgICAgICAgICAgICAgICAgICAgICAgICAgICAgICAgICAgICAgICAgICAgICAgICAgICAgICAgICAgICAgICAgICAgICAgICAgICAgICAgICAgICAgICAgICAgICAgICAgICAgICAgICAgICAgICAgICAgICAgICAgICAgICAgICAgICAgICAgICAgICAgICAgICAgICAgICAgICAgICAgICAgICAgICAgICAgICAgICAgICAgICAgICAgICAgICAgICAgICAgICAgICAgICAgICAgICAgICAgICAgICAgICAgICAgICAgICAgICAgICAgICAgICAgICAgICAgICAgICAgICAgICAgICAgICAgICAgICAgICAgICAgICAgICAgICAgICAgICAgICAgICAgICAgICAgICAgICAgICAgICAgICAgICAgICAgICAgICAgICAgICAgICAgICAgICAgICAgICAgICAgICAgICAgICAgICAgICAgICAgICAgICAgICAgICAgICAgICAgICAgICAgICAgICAgICAgICAgICAgICAgICAgICAgICAgICAgICAgICAgICAgICAgICAgICAgICAgICAgICAgICAgICAgICAgICAgICAgICAgICAgICAgICAgICAgICAgICAgICAgICAgICAgICAgICAgICAgICAgICAgICAgICAgICAgICAgICAgICAgICAgICAgICAgICAgICAgICAgICAgICAgICAgICAgICAgICAgICAgICAgICAgICAgICAgICAgICAgICAgICAgICAgICAgICAgICAgICAgICAgICAgICAgICAgICAgICAgICAgICAgICAgICAgICAgICAgICAgICAgICAgICAgICAgICAgICAgICAgICAgICAgICAgICAgICAgICAgICAgICAgICAgICAgICAgICAgICAgICAgICAgICAgICAgICAgICAgICAgICAgICAgICAgICAgICAgICAgICAgICAgICAgICAgICAgICAgICAgICAgICAgICAgICAgICAgICAgICAgICAgICAgICAgICAgICAgICAgICAgICAgICAgICAgICAgICAgICAgICAgICAgICAgICAgICAgICAgICAgICAgICAgICAgICAgICAgICAgICAgICAgICAgICAgICAgICAgICAgICAgICAgICAgICAgICAgICAgICAgICAgICAgICAgICAgICAgICAgICAgICAgICAgICAgICAgICAgICAgICAgICAgICAgICAgICAgICAgICAgICAgICAgICAgICAgICAgICAgICAgICAgICAgICAgICAgICAgICAgICAgICAgICAgICAgICAgICAgICAgICAgICAgICAgICAgICAgICAgICAgICAgICAgICAgICAgICAgICAgICAgICAgICAgICAgICAgICAgICAgICAgICAgICAgICAgICAgICAgICAgICAgICAgICAgICAgICAgICAgICAgICAgICAgICAgICAgICAgICAgICAgICAgICAgICAgICAgICAgICAgICAgICAgICAgICAgICAgICAgICAgICAgICAgICAgICAgICAgICAgICAgICAgICAgICAgICAgICAgICAgICAgICAgICAgICAgICAgICAgICAgICAgICAgICAgICAgICAgICAgICAgICAgICAgICAgICAgICAgICAgICAgICAgICAgICAgICAgICAgICAgICAgICAgICAgICAgICAgICAgICAgICAgICAgICAgICAgICAgICAgICAgICAgICAgICAgICAgICAgICAgICAgICAgICAgICAgICAgICAgICAgICAgICAgICAgICAgICAgICAgICAgICAgICAgICAgICAgICAgICAgICAgICAgICAgICAgICAgICAgICAgICAgICAgICAgICAgICAgICAgICAgICAgICAgICAgICAgICAgICAgICAgICAgICAgICAgICAgICAgICAgICAgICAgICAgICAgICAgICAgICAgICAgICAgICAgICAgICAgICAgICAgICAgICAgICAgICAgICAgICAgICAgICAgICAgICAgICAgICAgICAgICAgICAgICAgICAgICAgICAgICAgICAgICAgICAgICAgICAgICAgICAgICAgICAgICAgICAgICAgICAgICAgICAgICAgICAgICAgICAgICAgICAgICAgICAgICAgICAgICAgICAgICAgICAgICAgICAgICAgICAgICAgICAgICAgICAgICAgICAgICAgICAgICAgICAgICAgICAgICAgICAgICAgICAgICAgICAgICAgICAgICAgICAgICAgICAgICAgICAgICAgICAgICAgICAgICAgICAgICAgICAgICAgICAgICAgICAgICAgICAgICAgICAgICAgICAgICAgICAgICAgICAgICAgICAgICAgICAgICAgICAgICAgICAgICAgICAgICAgICAgICAgICAgICAgICAgICAgICAgICAgICAgICAgICAgICAgICAgICAgICAgICAgICAgICAgICAgICAgICAgICAgICAgICAgICAgICAgICAgICAgICAgICAgICAgICAgICAgICAgICAgICAgICAgICAgICAgICAgICAgICAgICAgICAgICAgICAgICAgICAgICAgICAgICAgICAgICAgICAgICAgICAgICAgICAgICAgICAgICAgICAgICAgICAgICAgICAgICAgICAgICAgICAgICAgICAgICAgICAgICAgICAgICAgICAgICAgICAgICAgICAgICAgICAgICAgICAgICAgICAgICAgICAgICAgICAgICAgICAgICAgICAgICAgICAgICAgICAgICAgICAgICAgICAgICAgICAgICAgICAgICAgICAgICAgICAgICAgICAgICAgICAgICAgICAgICAgICAgICAgICAgICAgICAgICAgICAgICAgICAgICAgICAgICAgICAgICAgICAgICAgICAgICAgICAgICAgICAgICAgICAgICAgICAgICAgICAgICAgICAgICAgICAgICAgICAgICAgICAgICAgICAgICAgICAgICAgICAgICAgICAgICAgICAgICAgICAgICAgICAgICAgICAgICAgICAgICAgICAgICAgICAgICAgICAgICAgICAgICAgICAgICAgICAgICAgICAgICAgICAgICAgICAgICAgICAgICAgICAgICAgICAgICAgICAgICAgICAgICAgICAgICAgICAgICAgICAgICAgICAgICAgICAgICAgICAgICAgICAgICAgICAgICAgICAgICAgICAgICAgICAgICAgICAgICAgICAgICAgICAgICAgICAgICAgICAgICAgICAgICAgICAgICAgICAgICAgICAgICAgICAgICAgICAgICAgICAgICAgICAgICAgICAgICAgICAgICAgICAgICAgICAgICAgICAgICAgICAgICAgICAgICAgICAgICAgICAgICAgICAgICAgICAgICAgICAgICAgICAgICAgICAgICAgICAgICAgICAgICAgICAgICAgICAgICAgICAgICAgICAgICAgICAgICAgICAgICAgICAgICAgICAgICAgICAgICAgICAgICAgICAgICAgICAgICAgICAgICAgICAgICAgICAgICAgICAgICAgICAgICAgICAgICAgICAgICAgICAgICAgICAgICAgICAgICAgICAgICAgICAgICAgICAgICAgICAgICAgICAgICAgICAgICAgICAgICAgICAgICAgICAgICAgICAgICAgICAgICAgICAgICAgICAgICAgICAgICAgICAgICAgICAgICAgICAgICAgICAgICAgICAgICAgICAgICAgICAgICAgICAgICAgICAgICAgICAgICAgICAgICAgICAgICAgICAgICAgICAgICAgICAgICAgICAgICAgICAgICAgICAgICAgICAgICAgICAgICAgICAgICAgICAgICAgICAgICAgICAgICAgICAgICAgICAgICAgICAgICAgICAgICAgICAgICAgICAgICAgICAgICAgICAgICAgICAgICAgICAgICAgICAgICAgICAgICAgICAgICAgICAgICAgICAgICAgICAgICAgICAgICAgICAgICAgICAgICAgICAgICAgICAgICAgICAgICAgICAgICAgICAgICAgICAgICAgICAgICAgICAgICAgICAgICAgICAgICAgICAgICAgICAgICAgICAgICAgICAgICAgICAgICAgICAgICAgICAgICAgICAgICAgICAgICAgICAgICAgICAgICAgICAgICAgICAgICAgICAgICAgICAgICAgICAgICAgICAgICAgICAgICAgICAgICAgICAgICAgICAgICAgICAgICAgICAgICAgICAgICAgICAgICAgICAgICAgICAgICAgICAgICAgICAgICAgICAgICAgICAgICAgICAgICAgICAgICAgICAgICAgICAgICAgICAgICAgICAgICAgICAgICAgICAgICAgICAgICAgICAgICAgICAgICAgICAgICAgICAgICAgICAgICAgICAgICAgICAgICAgICAgICAgICAgICAgICAgICAgICAgICAgICAgICAgICAgICAgICAgICAgICAgICAgICAgICAgICAgICAgICAgICAgICAgICAgICAgICAgICAgICAgICAgICAgICAgICAgICAgICAgICAgICAgICAgICAgICAgICAgICAgICAgICAgICAgICAgICAgICAgICAgICAgICAgICAgICAgICAgICAgICAgICAgICAgICAgICAgICAgICAgICAgICAgICAgICAgICAgICAgICAgICAgICAgICAgICAgICAgICAgICAgICAgICAgICAgICAgICAgICAgICAgICAgICAgICAgICAgICAgICAgICAgICAgICAgICAgICAgICAgICAgICAgICAgICAgICAgICAgICAgICAgICAgICAgICAgICAgICAgICAgICAgICAgICAgICAgICAgICAgICAgICAgICAgICAgICAgICAgICAgICAgICAgICAgICAgICAgICAgICAgICAgICAgICAgICAgICAgICAgICAgICAgICAgICAgICAgICAgICAgICAgICAgICAgICAgICAgICAgICAgICAgICAgICAgICAgICAgICAgICAgICAgICAgICAgICAgICAgICAgICAgICAgICAgICAgICAgICAgICAgICAgICAgICAgICAgICAgICAgICAgICAgICAgICAgICAgICAgICAgICAgICAgICAgICAgICAgICAgICAgICAgICAgICAgICAgICAgICAgICAgICAgICAgICAgICAgICAgICAgICAgICAgICAgICAgICAgICAgICAgICAgICAgICAgICAgICAgICAgICAgICAgICAgICAgICAgICAgICAgICAgICAgICAgICAgICAgICAgICAgICAgICAgICAgICAgICAgICAgICAgICAgICAgICAgICAgICAgICAgICAgICAgICAgICAgICAgICAgICAgICAgICAgICAgICAgICAgICAgICAgICAgICAgICAgICAgICAgICAgICAgICAgICAgICAgICAgICAgICAgICAgICAgICAgICAgICAgICAgICAgICAgICAgICAgICAgICAgICAgICAgICAgICAgICAgICAgICAgICAgICAgICAgICAgICAgICAgICAgICAgICAgICAgICAgICAgICAgICAgICAgICAgICAgICAgICAgICAgICAgICAgICAgICAgICAgICAgICAgICAgICAgICAgICAgICAgICAgICAgICAgICAgICAgICAgICAgICAgICAgICAgICAgICAgICAgICAgICAgICAgICAgICAgICAgICAgICAgICAgICAgICAgICAgICAgICAgICAgICAgICAgICAgICAgICAgICAgICAgICAgICAgICAgICAgICAgICAgICAgICAgICAgICAgICAgICAgICAgICAgICAgICAgICAgICAgICAgICAgICAgICAgICAgICAgICAgICAgICAgICAgICAgICAgICAgICAgICAgICAgICAgICAgICAgICAgICAgICAgICAgICAgICAgICAgICAgICAgICAgICAgICAgICAgICAgICAgICAgICAgICAgICAgICAgICAgICAgICAgICAgICAgICAgICAgICAgICAgICAgICAgICAgICAgICAgICAgICAgICAgICAgICAgICAgICAgICAgICAgICAgICAgICAgICAgICAgICAgICAgICAgICAgICAgICAgICAgICAgICAgICAgICAgICAgICAgICAgICAgICAgICAgICAgICAgICAgICAgICAgICAgICAgICAgICAgICAgICAgICAgICAgICAgICAgICAgICAgICAgICAgICAgICAgICAgICAgICAgICAgICAgICAgICAgICAgICAgICAgICAgICAgICAgICAgICAgICAgICAgICAgICAgICAgICAgICAgICAgICAgICAgICAgICAgICAgICAgICAgICAgICAgICAgICAgICAgICAgICAgICAgICAgICAgICAgICAgICAgICAgICAgICAgICAgICAgICAgICAgICAgICAgICAgICAgICAgICAgICAgICAgICAgICAgICAgICAgICAgICAgICAgICAgICAgICAgICAgICAgICAgICAgICAgICAgICAgICAgICAgICAgICAgICAgICAgICAgICAgICAgICAgICAgICAgICAgICAgICAgICAgICAgICAgICAgICAgICAgICAgICAgICAgICAgICAgICAgICAgICAgICAgICAgICAgICAgICAgICAgICAgICAgICAgICAgICAgICAgICAgICAgICAgICAgICAgICAgICAgICAgICAgICAgICAgICAgICAgICAgICAgICAgICAgICAgICAgICAgICAgICAgICAgICAgICAgICAgICAgICAgICAgICAgICAgICAgICAgICAgICAgICAgICAgICAgICAgICAgICAgICAgICAgICAgICAgICAgICAgICAgICAgICAgICAgICAgICAgICAgICAgICAgICAgICAgICAgICAgICAgICAgICAgICAgICAgICAgICAgICAgICAgICAgICAgICAgICAgICAgICAgICAgICAgICAgICAgICAgICAgICAgICAgICAgICAgICAgICAgICAgICAgICAgICAgICAgICAgICAgICAgICAgICAgICAgICAgICAgICAgICAgICAgICAgICAgICAgICAgICAgICAgICAgICAgICAgICAgICAgICAgICAgICAgICAgICAgICAgICAgICAgICAgICAgICAgICAgICAgICAgICAgICAgICAgICAgICAgICAgICAgICAgICAgICAgICAgICAgICAgICAgICAgICAgICAgICAgICAgICAgICAgICAgICAgICAgICAgICAgICAgICAgICAgICAgICAgICAgICAgICAgICAgICAgICAgICAgICAgICAgICAgICAgICAgICAgICAgICAgICAgICAgICAgICAgICAgICAgICAgICAgICAgICAgICAgICAgICAgICAgICAgICAgICAgICAgICAgICAgICAgICAgICAgICAgICAgICAgICAgICAgICAgICAgICAgICAgICAgICAgICAgICAgICAgICAgICAgICAgICAgICAgICAgICAgICAgICAgICAgICAgICAgICAgICAgICAgICAgICAgICAgICAgICAgICAgICAgICAgICAgICAgICAgICAgICAgICAgICAgICAgICAgICAgICAgICAgICAgICAgICAgICAgICAgICAgICAgICAgICAgICAgICAgICAgICAgICAgICAgICAgICAgICAgICAgICAgICAgICAgICAgICAgICAgICAgICAgICAgICAgICAgICAgICAgICAgICAgICAgICAgICAgICAgICAgICAgICAgICAgICAgICAgICAgICAgICAgICAgICAgICAgICAgICAgICAgICAgICAgICAgICAgICAgICAgICAgICAgICAgICAgICAgICAgICAgICAgICAgICAgICAgICAgICAgICAgICAgICAgICAgICAgICAgICAgICAgICAgICAgICAgICAgICAgICAgICAgICAgICAgICAgICAgICAgICAgICAgICAgICAgICAgICAgICAgICAgICAgICAgICAgICAgICAgICAgICAgICAgICAgICAgICAgICAgICAgICAgICAgICAgICAgICAgICAgICAgICAgICAgICAgICAgICAgICAgICAgICAgICAgICAgICAgICAgICAgICAgICAgICAgICAgICAgICAgICAgICAgICAgICAgICAgICAgICAgICAgICAgICAgICAgICAgICAgICAgICAgICAgICAgICAgICAgICAgICAgICAgICAgICAgICAgICAgICAgICAgICAgICAgICAgICAgICAgICAgICAgICAgICAgICAgICAgICAgICAgICAgICAgICAgICAgICAgICAgICAgICAgICAgICAgICAgICAgICAgICAgICAgICAgICAgICAgICAgICAgICAgICAgICAgICAgICAgICAgICAgICAgICAgICAgICAgICAgICAgICAgICAgICAgICAgICAgICAgICAgICAgICAgICAgICAgICAgICAgICAgICAgICAgICAgICAgICAgICAgICAgICAgICAgICAgICAgICAgICAgICAgICAgICAgICAgICAgICAgICAgICAgICAgICAgICAgICAgICAgICAgICAgICAgICAgICAgICAgICAgICAgICAgICAgICAgICAgICAgICAgICAgICAgICAgICAgICAgICAgICAgICAgICAgICAgICAgICAgICAgICAgICAgICAgICAgICAgICAgICAgICAgICAgICAgICAgICAgICAgICAgICAgICAgICAgICAgICAgICAgICAgICAgICAgICAgICAgICAgICAgICAgICAgICAgICAgICAgICAgICAgICAgICAgICAgICAgICAgICAgICAgICAgICAgICAgICAgICAgICAgICAgICAgICAgICAgICAgICAgICAgICAgICAgICAgICAgICAgICAgICAgICAgICAgICAgICAgICAgICAgICAgICAgICAgICAgICAgICAgICAgICAgICAgICAgICAgICAgICAgICAgICAgICAgICAgICAgICAgICAgICAgICAgICAgICAgICAgICAgICAgICAgICAgICAgICAgICAgICAgICAgICAgICAgICAgICAgICAgICAgICAgICAgICAgICAgICAgICAgICAgICAgICAgICAgICAgICAgICAgICAgICAgICAgICAgICAgICAgICAgICAgICAgICAgICAgICAgICAgICAgICAgICAgICAgICAgICAgICAgICAgICAgICAgICAgICAgICAgICAgICAgICAgICAgICAgICAgICAgICAgICAgICAgICAgICAgICAgICAgICAgICAgICAgICAgICAgICAgICAgICAgICAgICAgICAgICAgICAgICAgICAgICAgICAgICAgICAgICAgICAgICAgICAgICAgICAgICAgICAgICAgICAgICAgICAgICAgICAgICAgICAgICAgICAgICAgICAgICAgICAgICAgICAgICAgICAgICAgICAgICAgICAgICAgICAgICAgICAgICAgICAgICAgICAgICAgICAgICAgICAgICAgICAgICAgICAgICAgICAgICAgICAgICAgICAgICAgICAgICAgICAgICAgICAgICAgICAgICAgICAgICAgICAgICAgICAgICAgICAgICAgICAgICAgICAgICAgICAgICAgICAgICAgICAgICAgICAgICAgICAgICAgICAgICAgICAgICAgICAgICAgICAgICAgICAgICAgICAgICAgICAgICAgICAgICAgICAgICAgICAgICAgICAgICAgICAgICAgICAgICAgICAgICAgICAgICAgICAgICAgICAgICAgICAgICAgICAgICAgICAgICAgICAgICAgICAgICAgICAgICAgICAgICAgICAgICAgICAgICAgICAgICAgICAgICAgICAgICAgICAgICAgICAgICAgICAgICAgICAgICAgICAgICAgICAgICAgICAgICAgICAgICAgICAgICAgICAgICAgICAgICAgICAgICAgICAgICAgICAgICAgICAgICAgICAgICAgICAgICAgICAgICAgICAgICAgICAgICAgICAgICAgICAgICAgICAgICAgICAgICAgICAgICAgICAgICAgICAgICAgICAgICAgICAgICAgICAgICAgICAgICAgICAgICAgICAgICAgICAgICAgICAgICAgICAgICAgICAgICAgICAgICAgICAgICAgICAgICAgICAgICAgICAgICAgICAgICAgICAgICAgICAgICAgICAgICAgICAgICAgICAgICAgICAgICAgICAgICAgICAgICAgICAgICAgICAgICAgICAgICAgICAgICAgICAgICAgICAgICAgICAgICAgICAgICAgICAgICAgICAgICAgICAgICAgICAgICAgICAgICAgICAgICAgICAgICAgICAgICAgICAgICAgICAgICAgICAgICAgICAgICAgICAgICAgICAgICAgICAgICAgICAgICAgICAgICAgICAgICAgICAgICAgICAgICAgICAgICAgICAgICAgICAgICAgICAgICAgICAgICAgICAgICAgICAgICAgICAgICAgICAgICAgICAgICAgICAgICAgICAgICAgICAgICAgICAgICAgICAgICAgICAgICAgICAgICAgICAgICAgICAgICAgICAgICAgICAgICAgICAgICAgICAgICAgICAgICAgICAgICAgICAgICAgICAgICAgICAgICAgICAgICAgICAgICAgICAgICAgICAgICAgICAgICAgICAgICAgICAgICAgICAgICAgICAgICAgICAgICAgICAgICAgICAgICAgICAgICAgICAgICAgICAgICAgICAgICAgICAgICAgICAgICAgICAgICAgICAgICAgICAgICAgICAgICAgICAgICAgICAgICAgICAgICAgICAgICAgICAgICAgICAgICAgICAgICAgICAgICAgICAgICAgICAgICAgICAgICAgICAgICAgICAgICAgICAgICAgICAgICAgICAgICAgICAgICAgICAgICAgICAgICAgICAgICAgICAgICAgICAgICAgICAgICAgICAgICAgICAgICAgICAgICAgICAgICAgICAgICAgICAgICAgICAgICAgICAgICAgICAgICAgICAgICAgICAgICAgICAgICAgICAgICAgICAgICAgICAgICAgICAgICAgICAgICAgICAgICAgICAgICAgICAgICAgICAgICAgICAgICAgICAgICAgICAgICAgICAgICAgICAgICAgICAgICAgICAgICAgICAgICAgICAgICAgICAgICAgICAgICAgICAgICAgICAgICAgICAgICAgICAgICAgICAgICAgICAgICAgICAgICAgICAgICAgICAgICAgICAgICAgICAgICAgICAgICAgICAgICAgICAgICAgICAgICAgICAgICAgICAgICAgICAgICAgICAgICAgICAgICAgICAgICAgICAgICAgICAgICAgICAgICAgICAgICAgICAgICAgICAgICAgICAgICAgICAgICAgICAgICAgICAgICAgICAgICAgICAgICAgICAgICAgICAgICAgICAgICAgICAgICAgICAgICAgICAgICAgICAgICAgICAgICAgICAgICAgICAgICAgICAgICAgICAgICAgICAgICAgICAgICAgICAgICAgICAgICAgICAgICAgICAgICAgICAgICAgICAgICAgICAgICAgICAgICAgICAgICAgICAgICAgICAgICAgICAgICAgICAgICAgICAgICAgICAgICAgICAgICAgICAgICAgICAgICAgICAgICAgICAgICAgICAgICAgICAgICAgICAgICAgICAgICAgICAgICAgICAgICAgICAgICAgICAgICAgICAgICAgICAgICAgICAgICAgICAgICAgICAgICAgICAgICAgICAgICAgICAgICAgICAgICAgICAgICAgICAgICAgICAgICAgICAgICAgICAgICAgICAgICAgICAgICAgICAgICAgICAgICAgICAgICAgICAgICAgICAgICAgICAgICAgICAgICAgICAgICAgICAgICAgICAgICAgICAgICAgICAgICAgICAgICAgICAgICAgICAgICAgICAgICAgICAgICAgICAgICAgICAgICAgICAgICAgICAgICAgICAgICAgICAgICAgICAgICAgICAgICAgICAgICAgICAgICAgICAgICAgICAgICAgICAgICAgICAgICAgICAgICAgICAgICAgICAgICAgICAgICAgICAgICAgICAgICAgICAgICAgICAgICAgICAgICAgICAgICAgICAgICAgICAgICAgICAgICAgICAgICAgICAgICAgICAgICAgICAgICAgICAgICAgICAgICAgICAgICAgICAgICAgICAgICAgICAgICAgICAgICAgICAgICAgICAgICAgICAgICAgICAgICAgICAgICAgICAgICAgICAgICAgICAgICAgICAgICAgICAgICAgICAgICAgICAgICAgICAgICAgICAgICAgICAgICAgICAgICAgICAgICAgICAgICAgICAgICAgICAgICAgICAgICAgICAgICAgICAgICAgICAgICAgICAgICAgICAgICAgICAgICAgICAgICAgICAgICAgICAgICAgICAgICAgICAgICAgICAgICAgICAgICAgICAgICAgICAgICAgICAgICAgICAgICAgICAgICAgICAgICAgICAgICAgICAgICAgICAgICAgICAgICAgICAgICAgICAgICAgICAgICAgICAgICAgICAgICAgICAgICAgICAgICAgICAgICAgICAgICAgICAgICAgICAgICAgICAgICAgICAgICAgICAgICAgICAgICAgICAgICAgICAgICAgICAgICAgICAgICAgICAgICAgICAgICAgICAgICAgICAgICAgICAgICAgICAgICAgICAgICAgICAgICAgICAgICAgICAgICAgICAgICAgICAgICAgICAgICAgICAgICAgICAgICAgICAgICAgICAgICAgICAgICAgICAgICAgICAgICAgICAgICAgICAgICAgICAgICAgICAgICAgICAgICAgICAgICAgICAgICAgICAgICAgICAgICAgICAgICAgICAgICAgICAgICAgICAgICAgICAgICAgICAgICAgICAgICAgICAgICAgICAgICAgICAgICAgICAgICAgICAgICAgICAgICAgICAgICAgICAgICAgICAgICAgICAgICAgICAgICAgICAgICAgICAgICAgICAgICAgICAgICAgICAgICAgICAgICAgICAgICAgICAgICAgICAgICAgICAgICAgICAgICAgICAgICAgICAgICAgICAgICAgICAgICAgICAgICAgICAgICAgICAgICAgICAgICAgICAgICAgICAgICAgICAgICAgICAgICAgICAgICAgICAgICAgICAgICAgICAgICAgICAgICAgICAgICAgICAgICAgICAgICAgICAgICAgICAgICAgICAgICAgICAgICAgICAgICAgICAgICAgICAgICAgICAgICAgICAgICAgICAgICAgICAgICAgICAgICAgICAgICAgICAgICAgICAgICAgICAgICAgICAgICAgICAgICAgICAgICAgICAgICAgICAgICAgICAgICAgICAgICAgICAgICAgICAgICAgICAgICAgICAgICAgICAgICAgICAgICAgICAgICAgICAgICAgICAgICAgICAgICAgICAgICAgICAgICAgICAgICAgICAgICAgICAgICAgICAgICAgICAgICAgICAgICAgICAgICAgICAgICAgICAgICAgICAgICAgICAgICAgICAgICAgICAgICAgICAgICAgICAgICAgICAgICAgICAgICAgICAgICAgICAgICAgICAgICAgICAgICAgICAgICAgICAgICAgICAgICAgICAgICAgICAgICAgICAgICAgICAgICAgICAgICAgICAgICAgICAgICAgICAgICAgICAgICAgICAgICAgICAgICAgICAgICAgICAgICAgICAgICAgICAgICAgICAgICAgICAgICAgICAgICAgICAgICAgICAgICAgICAgICAgICAgICAgICAgICAgICAgICAgICAgICAgICAgICAgICAgICAgICAgICAgICAgICAgICAgICAgICAgICAgICAgICAgICAgICAgICAgICAgICAgICAgICAgICAgICAgICAgICAgICAgICAgICAgICAgICAgICAgICAgICAgICAgICAgICAgICAgICAgICAgICAgICAgICAgICAgICAgICAgICAgICAgICAgICAgICAgICAgICAgICAgICAgICAgICAgICAgICAgICAgICAgICAgICAgICAgICAgICAgICAgICAgICAgICAgICAgICAgICAgICAgICAgICAgICAgICAgICAgICAgICAgICAgICAgICAgICAgICAgICAgICAgICAgICAgICAgICAgICAgICAgICAgICAgICAgICAgICAgICAgICAgICAgICAgICAgICAgICAgICAgICAgICAgICAgICAgICAgICAgICAgICAgICAgICAgICAgICAgICAgICAgICAgICAgICAgICAgICAgICAgICAgICAgICAgICAgICAgICAgICAgICAgICAgICAgICAgICAgICAgICAgICAgICAgICAgICAgICAgICAgICAgICAgICAgICAgICAgICAgICAgICAgICAgICAgICAgICAgICAgICAgICAgICAgICAgICAgICAgICAgICAgICAgICAgICAgICAgICAgICAgICAgICAgICAgICAgICAgICAgICAgICAgICAgICAgICAgICAgICAgICAgICAgICAgICAgICAgICAgICAgICAgICAgICAgICAgICAgICAgICAgICAgICAgICAgICAgICAgICAgICAgICAgICAgICAgICAgICAgICAgICAgICAgICAgICAgICAgICAgICAgICAgICAgICAgICAgICAgICAgICAgICAgICAgICAgICAgICAgICAgICAgICAgICAgICAgICAgICAgICAgICAgICAgICAgICAgICAgICAgICAgICAgICAgICAgICAgICAgICAgICAgICAgICAgICAgICAgICAgICAgICAgICAgICAgICAgICAgICAgICAgICAgICAgICAgICAgICAgICAgICAgICAgICAgICAgICAgICAgICAgICAgICAgICAgICAgICAgICAgICAgICAgICAgICAgICAgICAgICAgICAgICAgICAgICAgICAgICAgICAgICAgICAgICAgICAgICAgICAgICAgICAgICAgICAgICAgICAgICAgICAgICAgICAgICAgICAgICAgICAgICAgICAgICAgICAgICAgICAgICAgICAgICAgICAgICAgICAgICAgICAgICAgICAgICAgICAgICAgICAgICAgICAgICAgICAgICAgICAgICAgICAgICAgICAgICAgICAgICAgICAgICAgICAgICAgICAgICAgICAgICAgICAgICAgICAgICAgICAgICAgICAgICAgICAgICAgICAgICAgICAgICAgICAgICAgICAgICAgICAgICAgICAgICAgICAgICAgICAgICAgICAgICAgICAgICAgICAgICAgICAgICAgICAgICAgICAgICAgICAgICAgICAgICAgICAgICAgICAgICAgICAgICAgICAgICAgICAgICAgICAgICAgICAgICAgICAgICAgICAgICAgICAgICAgICAgICAgICAgICAgICAgICAgICAgICAgICAgICAgICAgICAgICAgICAgICAgICAgICAgICAgICAgICAgICAgICAgICAgICAgICAgICAgICAgICAgICAgICAgICAgICAgICAgICAgICAgICAgICAgICAgICAgICAgICAgICAgICAgICAgICAgICAgICAgICAgICAgICAgICAgICAgICAgICAgICAgICAgICAgICAgICAgICAgICAgICAgICAgICAgICAgICAgICAgICAgICAgICAgICAgICAgICAgICAgICAgICAgICAgICAgICAgICAgICAgICAgICAgICAgICAgICAgICAgICAgICAgICAgICAgICAgICAgICAgICAgICAgICAgICAgICAgICAgICAgICAgICAgICAgICAgICAgICAgICAgICAgICAgICAgICAgICAgICAgICAgICAgICAgICAgICAgICAgICAgICAgICAgICAgICAgICAgICAgICAgICAgICAgICAgICAgICAgICAgICAgICAgICAgICAgICAgICAgICAgICAgICAgICAgICAgICAgICAgICAgICAgICAgICAgICAgICAgICAgICAgICAgICAgICAgICAgICAgICAgICAgICAgICAgICAgICAgICAgICAgICAgICAgICAgICAgICAgICAgICAgICAgICAgICAgICAgICAgICAgICAgICAgICAgICAgICAgICAgICAgICAgICAgICAgICAgICAgICAgICAgICAgICAgICAgICAgICAgICAgICAgICAgICAgICAgICAgICAgICAgICAgICAgICAgICAgICAgICAgICAgICAgICAgICAgICAgICAgICAgICAgICAgICAgICAgICAgICAgICAgICAgICAgICAgICAgICAgICAgICAgICAgICAgICAgICAgICAgICAgICAgICAgICAgICAgICAgICAgICAgICAgICAgICAgICAgICAgICAgICAgICAgICAgICAgICAgICAgICAgICAgICAgICAgICAgICAgICAgICAgICAgICAgICAgICAgICAgICAgICAgICAgICAgICAgICAgICAgICAgICAgICAgICAgICAgICAgICAgICAgICAgICAgICAgICAgICAgICAgICAgICAgICAgICAgICAgICAgICAgICAgICAgICAgICAgICAgICAgICAgICAgICAgICAgICAgICAgICAgICAgICAgICAgICAgICAgICAgICAgICAgICAgICAgICAgICAgICAgICAgICAgICAgICAgICAgICAgICAgICAgICAgICAgICAgICAgICAgICAgICAgICAgICAgICAgICAgICAgICAgICAgICAgICAgICAgICAgICAgICAgICAgICAgICAgICAgICAgICAgICAgICAgICAgICAgICAgICAgICAgICAgICAgICAgICAgICAgICAgICAgICAgICAgICAgICAgICAgICAgICAgICAgICAgICAgICAgICAgICAgICAgICAgICAgICAgICAgICAgICAgICAgICAgICAgICAgICAgICAgICAgICAgICAgICAgICAgICAgICAgICAgICAgICAgICAgICAgICAgICAgICAgICAgICAgICAgICAgICAgICAgICAgICAgICAgICAgICAgICAgICAgICAgICAgICAgICAgICAgICAgICAgICAgICAgICAgICAgICAgICAgICAgICAgICAgICAgICAgICAgICAgICAgICAgICAgICAgICAgICAgICAgICAgICAgICAgICAgICAgICAgICAgICAgICAgICAgICAgICAgICAgICAgICAgICAgICAgICAgICAgICAgICAgICAgICAgICAgICAgICAgICAgICAgICAgICAgICAgICAgICAgICAgICAgICAgICAgICAgICAgICAgICAgICAgICAgICAgICAgICAgICAgICAgICAgICAgICAgICAgICAgICAgICAgICAgICAgICAgICAgICAgICAgICAgICAgICAgICAgICAgICAgICAgICAgICAgICAgICAgICAgICAgICAgICAgICAgICAgICAgICAgICAgICAgICAgICAgICAgICAgICAgICAgICAgICAgICAgICAgICAgICAgICAgICAgICAgICAgICAgICAgICAgICAgICAgICAgICAgICAgICAgICAgICAgICAgICAgICAgICAgICAgICAgICAgICAgICAgICAgICAgICAgICAgICAgICAgICAgICAgICAgICAgICAgICAgICAgICAgICAgICAgICAgICAgICAgICAgICAgICAgICAgICAgICAgICAgICAgICAgICAgICAgICAgICAgICAgICAgICAgICAgICAgICAgICAgICAgICAgICAgICAgICAgICAgICAgICAgICAgICAgICAgICAgICAgICAgICAgICAgICAgICAgICAgICAgICAgICAgICAgICAgICAgICAgICAgICAgICAgICAgICAgICAgICAgICAgICAgICAgICAgICAgICAgICAgICAgICAgICAgICAgICAgICAgICAgICAgICAgICAgICAgICAgICAgICAgICAgICAgICAgICAgICAgICAgICAgICAgICAgICAgICAgICAgICAgICAgICAgICAgICAgICAgICAgICAgICAgICAgICAgICAgICAgICAgICAgICAgICAgICAgICAgICAgICAgICAgICAgICAgICAgICAgICAgICAgICAgICAgICAgICAgICAgICAgICAgICAgICAgICAgICAgICAgICAgICAgICAgICAgICAgICAgICAgICAgICAgICAgICAgICAgICAgICAgICAgICAgICAgICAgICAgICAgICAgICAgICAgICAgICAgICAgICAgICAgICAgICAgICAgICAgICAgICAgICAgICAgICAgICAgICAgICAgICAgICAgICAgICAgICAgICAgICAgICAgICAgICAgICAgICAgICAgICAgICAgICAgICAgICAgICAgICAgICAgICAgICAgICAgICAgICAgICAgICAgICAgICAgICAgICAgICAgICAgICAgICAgICAgICAgICAgICAgICAgICAgICAgICAgICAgICAgICAgICAgICAgICAgICAgICAgICAgICAgICAgICAgICAgICAgICAgICAgICAgICAgICAgICAgICAgICAgICAgICAgICAgICAgICAgICAgICAgICAgICAgICAgICAgICAgICAgICAgICAgICAgICAgICAgICAgICAgICAgICAgICAgICAgICAgICAgICAgICAgICAgICAgICAgICAgICAgICAgICAgICAgICAgICAgICAgICAgICAgICAgICAgICAgICAgICAgICAgICAgICAgICAgICAgICAgICAgICAgICAgICAgICAgICAgICAgICAgICAgICAgICAgICAgICAgICAgICAgICAgICAgICAgICAgICAgICAgICAgICAgICAgICAgICAgICAgICAgICAgICAgICAgICAgICAgICAgICAgICAgICAgICAgICAgICAgICAgICAgICAgICAgICAgICAgICAgICAgICAgICAgICAgICAgICAgICAgICAgICAgICAgICAgICAgICAgICAgICAgICAgICAgICAgICAgICAgICAgICAgICAgICAgICAgICAgICAgICAgICAgICAgICAgICAgICAgICAgICAgICAgICAgICAgICAgICAgICAgICAgICAgICAgICAgICAgICAgICAgICAgICAgICAgICAgICAgICAgICAgICAgICAgICAgICAgICAgICAgICAgICAgICAgICAgICAgICAgICAgICAgICAgICAgICAgICAgICAgICAgICAgICAgICAgICAgICAgICAgICAgICAgICAgICAgICAgICAgICAgICAgICAgICAgICAgICAgICAgICAgICAgICAgICAgICAgICAgICAgICAgICAgICAgICAgICAgICAgICAgICAgICAgICAgICAgICAgICAgICAgICAgICAgICAgICAgICAgICAgICAgICAgICAgICAgICAgICAgICAgICAgICAgICAgICAgICAgICAgICAgICAgICAgICAgICAgICAgICAgICAgICAgICAgICAgICAgICAgICAgICAgICAgICAgICAgICAgICAgICAgICAgICAgICAgICAgICAgICAgICAgICAgICAgICAgICAgICAgICAgICAgICAgICAgICAgICAgICAgICAgICAgICAgICAgICAgICAgICAgICAgICAgICAgICAgICAgICAgICAgICAgICAgICAgICAgICAgICAgICAgICAgICAgICAgICAgICAgICAgICAgICAgICAgICAgICAgICAgICAgICAgICAgICAgICAgICAgICAgICAgICAgICAgICAgICAgICAgICAgICAgICAgICAgICAgICAgICAgICAgICAgICAgICAgICAgICAgICAgICAgICAgICAgICAgICAgICAgICAgICAgICAgICAgICAgICAgICAgICAgICAgICAgICAgICAgICAgICAgICAgICAgICAgICAgICAgICAgICAgICAgICAgICAgICAgICAgICAgICAgICAgICAgICAgICAgICAgICAgICAgICAgICAgICAgICAgICAgICAgICAgICAgICAgICAgICAgICAgICAgICAgICAgICAgICAgICAgICAgICAgICAgICAgICAgICAgICAgICAgICAgICAgICAgICAgICAgICAgICAgICAgICAgICAgICAgICAgICAgICAgICAgICAgICAgICAgICAgICAgICAgICAgICAgICAgICAgICAgICAgICAgICAgICAgICAgICAgICAgICAgICAgICAgICAgICAgICAgICAgICAgICAgICAgICAgICAgICAgICAgICAgICAgICAgICAgICAgICAgICAgICAgICAgICAgICAgICAgICAgICAgICAgICAgICAgICAgICAgICAgICAgICAgICAgICAgICAgICAgICAgICAgICAgICAgICAgICAgICAgICAgICAgICAgICAgICAgICAgICAgICAgICAgICAgICAgICAgICAgICAgICAgICAgICAgICAgICAgICAgICAgICAgICAgICAgICAgICAgICAgICAgICAgICAgICAgICAgICAgICAgICAgICAgICAgICAgICAgICAgICAgICAgICAgICAgICAgICAgICAgICAgICAgICAgICAgICAgICAgICAgICAgICAgICAgICAgICAgICAgICAgICAgICAgICAgICAgICAgICAgICAgICAgICAgICAgICAgICAgICAgICAgICAgICAgICAgICAgICAgICAgICAgICAgICAgICAgICAgICAgICAgICAgICAgICAgICAgICAgICAgICAgICAgICAgICAgICAgICAgICAgICAgICAgICAgICAgICAgICAgICAgICAgICAgICAgICAgICAgICAgICAgICAgICAgICAgICAgICAgICAgICAgICAgICAgICAgICAgICAgICAgICAgICAgICAgICAgICAgICAgICAgICAgICAgICAgICAgICAgICAgICAgICAgICAgICAgICAgICAgICAgICAgICAgICAgICAgICAgICAgICAgICAgICAgICAgICAgICAgICAgICAgICAgICAgICAgICAgICAgICAgICAgICAgICAgICAgICAgICAgICAgICAgICAgICAgICAgICAgICAgICAgICAgICAgICAgICAgICAgICAgICAgICAgICAgICAgICAgICAgICAgICAgICAgICAgICAgICAgICAgICAgICAgICAgICAgICAgICAgICAgICAgICAgICAgICAgICAgICAgICAgICAgICAgICAgICAgICAgICAgICAgICAgICAgICAgICAgICAgICAgICAg;" vertex="1" parent="1">
          <mxGeometry x="375" y="260" width="76" height="76" as="geometry" />
        </mxCell>
        <mxCell id="FdZVj9eKRGL_CXXwi0DK-5" value="&lt;div&gt;ASP.NET Core (Razor Pages)&lt;/div&gt;&lt;div&gt;&lt;br&gt;&lt;/div&gt;&lt;div&gt;&lt;br&gt;&lt;/div&gt;&lt;div&gt;&lt;br&gt;&lt;/div&gt;&lt;div&gt;&lt;br&gt;&lt;/div&gt;&lt;div&gt;&lt;br&gt;&lt;/div&gt;&lt;div&gt;&lt;br&gt;&lt;/div&gt;&lt;div&gt;&lt;br&gt;&lt;/div&gt;&lt;div&gt;&lt;br&gt;&lt;/div&gt;&lt;div&gt;&lt;br&gt;&lt;/div&gt;&lt;div&gt;&lt;br&gt;&lt;/div&gt;&lt;div&gt;&lt;br&gt;&lt;/div&gt;&lt;div&gt;&lt;br&gt;&lt;/div&gt;&lt;div&gt;&lt;br&gt;&lt;/div&gt;&lt;div&gt;&lt;br&gt;&lt;/div&gt;&lt;div&gt;&lt;br&gt;&lt;/div&gt;&lt;div&gt;&lt;br&gt;&lt;/div&gt;" style="rounded=0;whiteSpace=wrap;html=1;" vertex="1" parent="1">
          <mxGeometry x="49" y="370" width="730" height="250" as="geometry" />
        </mxCell>
        <mxCell id="FdZVj9eKRGL_CXXwi0DK-14" style="edgeStyle=orthogonalEdgeStyle;rounded=0;orthogonalLoop=1;jettySize=auto;html=1;exitX=0.5;exitY=1;exitDx=0;exitDy=0;entryX=0.5;entryY=0;entryDx=0;entryDy=0;" edge="1" parent="1" source="FdZVj9eKRGL_CXXwi0DK-6" target="FdZVj9eKRGL_CXXwi0DK-4">
          <mxGeometry relative="1" as="geometry" />
        </mxCell>
        <mxCell id="FdZVj9eKRGL_CXXwi0DK-6" value="&lt;font data-darkreader-inline-color=&quot;&quot; style=&quot;--darkreader-inline-color: #33a3ff;&quot; color=&quot;#007fff&quot;&gt;betterfinds.pt&lt;/font&gt;" style="rounded=1;whiteSpace=wrap;html=1;" vertex="1" parent="1">
          <mxGeometry x="353" y="160" width="120" height="60" as="geometry" />
        </mxCell>
        <mxCell id="FdZVj9eKRGL_CXXwi0DK-19" style="edgeStyle=orthogonalEdgeStyle;rounded=0;orthogonalLoop=1;jettySize=auto;html=1;exitX=0.5;exitY=0.5;exitDx=0;exitDy=0;exitPerimeter=0;entryX=0;entryY=0.5;entryDx=0;entryDy=0;" edge="1" parent="1" source="FdZVj9eKRGL_CXXwi0DK-7" target="FdZVj9eKRGL_CXXwi0DK-3">
          <mxGeometry relative="1" as="geometry" />
        </mxCell>
        <mxCell id="FdZVj9eKRGL_CXXwi0DK-7" value="&lt;div&gt;&lt;span data-darkreader-inline-bgcolor=&quot;&quot; style=&quot;background-color: rgb(255, 255, 255); --darkreader-inline-bgcolor: #181a1b;&quot;&gt;Utilizador&lt;/span&gt;&lt;/div&gt;" style="shape=umlActor;verticalLabelPosition=bottom;verticalAlign=top;html=1;outlineConnect=0;" vertex="1" parent="1">
          <mxGeometry x="179" y="70" width="30" height="60" as="geometry" />
        </mxCell>
        <mxCell id="FdZVj9eKRGL_CXXwi0DK-17" value="&lt;span data-darkreader-inline-bgcolor=&quot;&quot; style=&quot;background-color: rgb(255, 255, 255); --darkreader-inline-bgcolor: #181a1b;&quot;&gt;Cloudflare&lt;/span&gt;" style="text;html=1;strokeColor=none;fillColor=none;align=center;verticalAlign=middle;whiteSpace=wrap;rounded=0;" vertex="1" parent="1">
          <mxGeometry x="473" y="85" width="60" height="30" as="geometry" />
        </mxCell>
        <mxCell id="FdZVj9eKRGL_CXXwi0DK-18" value="&lt;span data-darkreader-inline-bgcolor=&quot;&quot; style=&quot;--darkreader-inline-bgcolor: #181a1b; background-color: rgb(255, 255, 255);&quot;&gt;Nginx&lt;/span&gt;" style="text;html=1;strokeColor=none;fillColor=none;align=center;verticalAlign=middle;whiteSpace=wrap;rounded=0;" vertex="1" parent="1">
          <mxGeometry x="473" y="283" width="60" height="30" as="geometry" />
        </mxCell>
        <mxCell id="FdZVj9eKRGL_CXXwi0DK-31" value="&lt;div&gt;Registo&lt;/div&gt;&lt;div&gt;&lt;i&gt;Login&lt;/i&gt;&lt;/div&gt;&lt;div&gt;&lt;i&gt;Logout&lt;/i&gt;&lt;br&gt;&lt;/div&gt;" style="rounded=1;whiteSpace=wrap;html=1;" vertex="1" parent="1">
          <mxGeometry x="99.00000000000001" y="450" width="100" height="70" as="geometry" />
        </mxCell>
        <mxCell id="FdZVj9eKRGL_CXXwi0DK-32" value="&lt;div&gt;&lt;i&gt;Home page&lt;/i&gt;&lt;/div&gt;&lt;div&gt;Pesquisa&lt;br&gt;&lt;/div&gt;" style="rounded=1;whiteSpace=wrap;html=1;" vertex="1" parent="1">
          <mxGeometry x="239" y="530" width="100" height="70" as="geometry" />
        </mxCell>
        <mxCell id="FdZVj9eKRGL_CXXwi0DK-33" value="Perfil público" style="rounded=1;whiteSpace=wrap;html=1;" vertex="1" parent="1">
          <mxGeometry x="99" y="530" width="100" height="70" as="geometry" />
        </mxCell>
        <mxCell id="FdZVj9eKRGL_CXXwi0DK-35" value="&lt;div&gt;Criar leilão&lt;/div&gt;&lt;div&gt;Editar leilão&lt;br&gt;&lt;/div&gt;" style="rounded=1;whiteSpace=wrap;html=1;" vertex="1" parent="1">
          <mxGeometry x="423" y="488" width="100" height="70" as="geometry" />
        </mxCell>
        <mxCell id="FdZVj9eKRGL_CXXwi0DK-36" value="&lt;div&gt;Meu perfil&lt;br&gt;&lt;/div&gt;&lt;div&gt;Meus leilões&lt;/div&gt;&lt;div&gt;Minhas licitações&lt;br&gt;&lt;/div&gt;" style="rounded=1;whiteSpace=wrap;html=1;" vertex="1" parent="1">
          <mxGeometry x="536" y="488" width="120" height="70" as="geometry" />
        </mxCell>
        <mxCell id="FdZVj9eKRGL_CXXwi0DK-37" value="Notificações" style="rounded=1;whiteSpace=wrap;html=1;" vertex="1" parent="1">
          <mxGeometry x="669" y="488" width="100" height="70" as="geometry" />
        </mxCell>
        <mxCell id="FdZVj9eKRGL_CXXwi0DK-38" value="&lt;div&gt;Página de&lt;/div&gt;&lt;div&gt;leilão&lt;br&gt;&lt;/div&gt;" style="rounded=1;whiteSpace=wrap;html=1;" vertex="1" parent="1">
          <mxGeometry x="239" y="450" width="100" height="70" as="geometry" />
        </mxCell>
        <mxCell id="FdZVj9eKRGL_CXXwi0DK-39" value="&lt;font data-darkreader-inline-color=&quot;&quot; style=&quot;--darkreader-inline-color: #a8a095;&quot; color=&quot;#999999&quot;&gt;Não requer autenticação&lt;/font&gt;" style="text;html=1;strokeColor=none;fillColor=none;align=center;verticalAlign=middle;whiteSpace=wrap;rounded=0;" vertex="1" parent="1">
          <mxGeometry x="147" y="400" width="144" height="30" as="geometry" />
        </mxCell>
        <mxCell id="FdZVj9eKRGL_CXXwi0DK-40" value="&lt;font data-darkreader-inline-color=&quot;&quot; style=&quot;--darkreader-inline-color: #a8a095;&quot; color=&quot;#999999&quot;&gt;Requer autenticação&lt;/font&gt;" style="text;html=1;strokeColor=none;fillColor=none;align=center;verticalAlign=middle;whiteSpace=wrap;rounded=0;" vertex="1" parent="1">
          <mxGeometry x="518.5" y="400" width="155" height="30" as="geometry" />
        </mxCell>
        <mxCell id="FdZVj9eKRGL_CXXwi0DK-41" value="" style="endArrow=classic;startArrow=classic;html=1;rounded=0;exitX=0.5;exitY=0;exitDx=0;exitDy=0;exitPerimeter=0;entryX=0.5;entryY=1;entryDx=0;entryDy=0;" edge="1" parent="1" source="FdZVj9eKRGL_CXXwi0DK-1" target="FdZVj9eKRGL_CXXwi0DK-5">
          <mxGeometry width="50" height="50" relative="1" as="geometry">
            <mxPoint x="390" y="500" as="sourcePoint" />
            <mxPoint x="440" y="450" as="targetPoint" />
          </mxGeometry>
        </mxCell>
        <mxCell id="FdZVj9eKRGL_CXXwi0DK-42" value="" style="endArrow=none;dashed=1;html=1;dashPattern=1 3;strokeWidth=2;rounded=0;" edge="1" parent="1">
          <mxGeometry width="50" height="50" relative="1" as="geometry">
            <mxPoint x="414" y="620" as="sourcePoint" />
            <mxPoint x="414" y="390" as="targetPoint" />
          </mxGeometry>
        </mxCell>
      </root>
    </mxGraphModel>
  </diagram>
</mxfile>
